<svg xmlns="http://www.w3.org/2000/svg" viewBox="0 8.883333206176758 121.30000305175781 42.616668701171875" data-asc="0.85" width="121.30000305175781" height="42.616668701171875"><defs/><g><g fill="#ffffff"><g transform="translate(0, 0)"><path d="M1.80 51.50Q1.55 51.40 0.83 51.35Q0.10 51.30 0 51.15L0.10 50.90L0.40 51Q0.80 51.05 1.10 51.13Q1.40 51.20 1.75 51.20Q2.75 51.20 3.68 50.63Q4.60 50.05 5.45 49.55Q5.70 49.40 5.95 49.27Q6.20 49.15 6.40 49.05L7.20 48.25L7.35 48.25Q7.45 48.05 8 47.75Q8.55 47.45 8.45 47.35Q8.50 47.35 8.58 47.30Q8.65 47.25 8.70 47.30Q9.15 46.70 9.40 46.48Q9.65 46.25 10.20 45.70Q10.50 45.40 11.18 44.70Q11.85 44 12.25 43.75Q12.35 43.25 12.95 42.90Q13.55 42.55 14.00 42Q13.85 41.85 14.18 41.45Q14.50 41.05 14.88 40.70Q15.25 40.35 15.25 40.35L15.45 39.90Q15.55 39.75 15.98 39.23Q16.40 38.70 16.85 38.20Q17.30 37.70 17.35 37.70Q17.40 37.50 17.68 37.17Q17.95 36.85 17.90 36.70Q18.30 36.40 18.85 35.70Q19.40 35 19.70 34.65Q20.30 33.90 20.65 33.20Q21 32.50 21.60 31.80Q23.35 29.65 25.13 27.40Q26.90 25.15 28.90 23.25Q29.65 22.55 30.13 21.85Q30.60 21.15 31.40 20.55Q31.55 20.45 32 19.95Q32.45 19.45 32.90 19Q33.35 18.55 33.45 18.55Q33.55 18.30 33.95 18.05Q34.35 17.80 34.55 17.60Q34.95 17.25 35.33 16.85Q35.70 16.45 36.10 16.10Q36.50 15.80 37.30 15.30Q38.10 14.80 38.45 14.50L38.60 14.40Q38.10 13.90 37.25 13.55Q36.40 13.20 34.70 13Q34.15 12.90 33.50 12.90Q32.85 12.90 32.25 12.90Q32 12.90 31.73 12.82Q31.45 12.75 31.20 12.70Q31.05 12.85 30.70 12.85Q30.55 12.85 30.38 12.82Q30.20 12.80 30.00 12.75L29.90 12.95L29.75 12.95Q29.60 12.95 29.10 12.97Q28.60 13 28.13 13.05Q27.65 13.10 27.60 13.25Q27.35 13.25 27.10 13.27Q26.85 13.30 26.60 13.25Q26.30 13.55 25.30 13.70Q24.30 13.85 23.40 13.97Q22.50 14.10 22.40 14.35Q19.65 14.80 16.82 16.13Q14.00 17.45 11.55 19.45Q9.10 21.45 7.38 24Q5.65 26.55 5.15 29.45Q5.10 29.60 5.10 29.77Q5.10 29.95 5.10 30.10Q5.10 30.60 5.18 31.10Q5.25 31.60 5.20 31.85Q5.10 31.95 5.05 31.95Q4.85 31.85 4.80 31.55Q4.75 31.25 4.50 31.25L4.30 31.35Q3.85 31.05 3.85 30.15Q3.85 29.90 3.88 29.70Q3.90 29.50 3.95 29.30Q4.30 27.45 5.30 25.57Q6.30 23.70 7.73 21.97Q9.15 20.25 10.60 19Q11.25 18.45 12.00 17.97Q12.75 17.50 13.40 17Q13.50 16.95 13.95 16.67Q14.40 16.40 14.88 16.13Q15.35 15.85 15.40 15.80Q15.85 15.65 16.60 15.17Q17.35 14.70 18.23 14.15Q19.10 13.60 19.88 13.22Q20.65 12.85 21.15 12.95L21.25 12.90Q21.50 12.60 22.55 12.25Q23.60 11.90 24.93 11.60Q26.25 11.30 27.38 11.13Q28.50 10.95 28.95 11L31.40 10.80Q31.50 10.75 31.75 10.75Q32.10 10.75 32.52 10.82Q32.95 10.90 33.15 10.95Q33.35 10.90 33.52 10.88Q33.70 10.85 33.85 10.85Q34.10 10.85 34.33 10.88Q34.55 10.90 34.75 10.95Q34.85 10.90 35.05 10.90Q35.35 10.90 35.67 10.97Q36 11.05 36.20 11.10Q36.35 10.95 36.55 10.95Q36.80 10.95 37 11.07Q37.20 11.20 37.70 11.20Q38 11.20 38.25 11.30Q38.50 11.40 38.80 11.45L41.40 12.30L42.30 13L42.75 12.75Q43 12.60 43.50 12.25Q44 11.90 44.25 11.90L45.30 11.30Q45.55 11.20 45.83 11.13Q46.10 11.05 46.35 10.95Q46.75 10.80 47.15 10.65Q47.55 10.50 47.95 10.40Q48.30 10.30 48.63 10.15Q48.95 10 49.30 10.05Q50.10 9.55 50.40 9.55Q50.65 9.55 50.92 9.63Q51.20 9.70 51.70 9.80L51.85 9.80Q51.90 9.75 52.30 9.75Q52.85 9.75 53.55 9.82Q54.25 9.90 54.45 10L54.95 10.15L54.95 10.10Q55.15 10.10 55.30 10.17Q55.45 10.25 55.60 10.30Q56.60 10.60 57.45 11L58.20 11.45Q58.40 11.65 58.92 12.13Q59.45 12.60 59.50 12.85L59.30 13.05L59.10 12.70Q58.80 12.45 58.55 12.15Q58.30 11.85 57.95 11.65Q57.20 11.15 56.25 11.15Q55.30 11.15 54.45 11.10L53.45 10.95L52.50 11.20L52.30 11.10Q52.15 11.20 51.58 11.17Q51 11.15 51.05 11.30Q51 11.25 50.92 11.22Q50.85 11.20 50.85 11.15Q50.05 11.50 49.73 11.63Q49.40 11.75 49.25 11.80Q49.10 11.85 48.77 11.95Q48.45 12.05 47.65 12.45Q46.70 12.85 45.77 13.30Q44.85 13.75 43.90 14.20Q44.65 14.80 45.25 15.55Q45.70 16 46 16.60Q46.05 16.65 46.05 16.80Q46.05 17.15 46.25 17.30Q46.45 17.45 46.50 17.70Q46.60 17.90 46.58 18.13Q46.55 18.35 46.60 18.60Q46.60 18.65 46.75 18.72Q46.90 18.80 46.90 18.90Q46.95 19.05 46.95 19.22Q46.95 19.40 46.95 19.55Q46.95 20.85 46.35 22.42Q45.75 24 44.70 25.20Q44.50 25.45 44.38 25.38Q44.25 25.30 44 25.55Q43.85 25.65 43.65 25.75Q43.45 25.85 43.35 26.05L42.55 27.40L40.85 28.20Q40.45 28.40 40.15 28.70Q39.85 29 39.50 29.25Q40.85 29.45 41.98 29.95Q43.10 30.45 43.70 31.15Q44.10 31.65 44.27 32.20Q44.45 32.75 44.45 33.35Q44.45 34.20 44.10 35.13Q43.75 36.05 43.20 36.95Q43.15 37 43.13 37.13Q43.10 37.25 43 37.30Q42.95 37.35 42.85 37.35Q42.75 37.35 42.70 37.45Q42.60 37.60 42.55 37.75Q42.50 37.90 42.40 38.05Q41.95 38.65 41.48 39.17Q41 39.70 40.55 40.10Q40.25 40.40 40.13 40.63Q40 40.85 39.65 41.10Q39.25 41.30 38.88 41.90Q38.50 42.50 38.15 42.75Q37.95 42.85 37.77 43.05Q37.60 43.25 37.40 43.35L34.20 45.75Q33.75 46.10 33.45 46.20Q33.15 46.30 32.70 46.55Q31.95 47 30.83 47.42Q29.70 47.85 28.10 48Q27.35 48.25 26.53 48.38Q25.70 48.50 25.00 48.50Q24.30 48.50 23.73 48.38Q23.15 48.25 22.85 47.95Q22.70 47.80 22.70 47.30Q22.40 47.10 22.25 46.95Q21.75 46.40 21.58 45.98Q21.40 45.55 21.40 45.20Q21.40 44.80 21.55 44.20Q21.65 43.60 21.98 43.13Q22.30 42.65 22.65 42.45Q23.05 42.20 23.40 41.85Q23.75 41.50 24.15 41.30Q24.40 40.90 24.50 40.55Q24.60 40.20 24.95 40.25L24.95 40.15Q25.20 39.95 25.75 39.55Q26.30 39.15 26.50 39.10Q26.60 39.10 26.65 39.05Q26.70 39.05 26.75 38.95Q26.80 38.85 26.85 38.80L26.85 38.75Q27.40 38.65 28.45 38.08Q29.50 37.50 30.95 36.75Q32.40 36 34.13 35.33Q35.85 34.65 37.65 34.40Q37.75 34.40 37.85 34.38Q37.95 34.35 38 34.35Q38.70 34.35 38.70 34.70Q38.70 35.15 37.70 35.05Q33.60 36.30 31.08 37.77Q28.55 39.25 27.75 39.85Q27.35 40.15 26.43 40.98Q25.50 41.80 24.68 42.77Q23.85 43.75 23.70 44.55Q23.65 44.75 23.65 45.05Q23.65 45.85 24.25 46.17Q24.85 46.50 25.80 46.50Q26.45 46.50 27.20 46.40Q27.95 46.30 28.70 46.15Q30.45 45.55 32.23 44.85Q34 44.15 35.70 43.20L36.05 42.90Q36.15 42.85 36.45 42.77Q36.75 42.70 37.10 42.50Q37.25 42.40 37.38 42.17Q37.50 41.95 37.70 41.80Q37.95 41.65 38.13 41.52Q38.30 41.40 38.60 41.30Q38.70 41.25 38.80 41.10Q38.90 40.95 39 40.95Q39.40 40.55 39.77 40.10Q40.15 39.65 40.45 39.20Q41.15 38.25 41.55 37.27Q41.95 36.30 41.95 35.40Q41.95 34.20 41.20 33.30Q40.55 32.45 39 32.02Q37.45 31.60 35.70 31.60Q34.15 31.60 32.73 31.92Q31.30 32.25 30.45 32.90L30.30 32.75L33.30 29.85Q33.90 29.45 34.90 29.25Q35.90 29.05 37 29.05Q37.30 29.05 37.63 29.05Q37.95 29.05 38.30 29.10Q39.05 28.70 39.92 28.20Q40.80 27.70 41.85 27Q44.35 24.30 44.35 21.55Q44.35 20.85 44.20 20.20Q44.15 20.10 44.08 20Q44 19.90 43.95 19.80L43.95 19.75Q43.95 19.65 44.02 19.50Q44.10 19.35 44.05 19.30Q43.95 19.10 43.77 18.70Q43.60 18.30 43.50 18.10Q43.45 18 43.45 17.82Q43.45 17.65 43.35 17.55Q43.25 17.40 43.10 17.30Q42.95 17.20 42.85 17.15Q42.80 17.05 42.67 17.02Q42.55 17 42.45 16.95Q42.10 16.55 41.92 16.20Q41.75 15.85 41.20 15.50L39.85 16.45Q39.35 16.80 39.30 17.22Q39.25 17.65 38.70 18L37.90 18.80Q37.80 18.85 37.55 18.85L37.10 19.35L37 19.50L36.70 19.45L35.95 20.10L35.65 20.65Q35.30 21 34.92 21.35Q34.55 21.70 34.20 22.10Q34 22.30 33.75 22.47Q33.50 22.65 33.40 22.90L33.40 23L33.35 23Q33.30 22.95 33.23 22.90Q33.15 22.85 33.15 22.90Q32.65 23.85 31.75 24.60L31.55 24.95Q31.40 25.05 31.18 25.15Q30.95 25.25 30.85 25.40L30.70 25.75L29.95 26.55L29.60 27.10L28.95 27.65Q28.65 28.05 28.35 28.48Q28.05 28.90 27.70 29.30L26.90 30.20L25.85 31.60L25.35 32.10L24.90 32.80L24.55 33.15L24.25 33.70Q24.10 33.90 23.95 34.13Q23.80 34.35 23.60 34.60Q23.45 34.80 23.05 35.38Q22.65 35.95 22.15 36.63Q21.65 37.30 21.23 37.80Q20.80 38.30 20.70 38.30Q20.65 38.35 20.13 38.95Q19.60 39.55 18.95 40.33Q18.30 41.10 17.78 41.70Q17.25 42.30 17.25 42.35L15.80 43.95Q15.55 44.20 15.08 44.48Q14.60 44.75 14.20 45Q14.10 45.20 13.45 45.85Q12.80 46.50 12.55 46.65L10.50 47.70Q10.30 47.85 10.08 48Q9.85 48.15 9.70 48.30L8.55 48.90L8.35 49Q8.30 49.15 7.78 49.48Q7.25 49.80 6.70 50.05Q6.15 50.30 5.90 50.40L5.40 50.60Q5.25 50.70 5.08 50.73Q4.90 50.75 4.75 50.85Q4.25 51.05 3.75 51.17Q3.25 51.30 2.70 51.40L1.80 51.50ZM59.80 33.95Q59.95 33.95 59.85 34.17Q59.75 34.40 59.75 34.50L58.10 36.55Q57.70 37.05 57.20 37.38Q56.70 37.70 56.25 38.15Q56.10 38.35 55.75 38.50Q55.40 38.65 55.20 38.85Q55 39.05 54.23 39.17Q53.45 39.30 53.15 39.30Q53.10 39.30 53 39.20L52.80 39.50Q52.30 40.30 51.63 40.95Q50.95 41.60 50.25 42.15Q49.90 42.45 49.52 42.73Q49.15 43 48.75 43.20Q48.35 43.40 47.70 43.40Q47 43.40 46.35 43.15Q45.40 42.80 44.90 41.95Q44.70 41.60 44.52 41.20Q44.35 40.80 44.35 40.30Q44.35 39.75 44.50 39.33Q44.65 38.90 44.80 38.50Q45.70 36.30 47.25 34.35Q47.35 34.25 47.52 33.95Q47.70 33.65 47.90 33.35Q47.65 33.55 47.32 33.83Q47 34.10 46.75 34.35Q46.45 34.70 46.27 34.85Q46.10 35 45.70 35.50Q45.60 35.70 45.15 36.02Q44.70 36.35 44.60 36.35Q44.45 36.35 44.52 36.08Q44.60 35.80 45.40 35Q45.55 34.90 45.65 34.75Q45.75 34.60 45.85 34.45L47.35 32.70L48.95 31.25Q49.20 31 49.73 30.42Q50.25 29.85 51.20 29.10Q51.45 28.90 51.98 28.32Q52.50 27.75 52.70 27.55Q52.95 27.30 53.20 27.40L53.40 27.15Q53.70 26.75 54 26.77Q54.30 26.80 54.65 26.50L55.10 26.15L55.15 26.15L55.15 26.10Q55.40 26 55.52 25.82Q55.65 25.65 55.95 25.65Q56.35 25.65 56.95 26.10Q57.55 26.55 58.05 27.07Q58.55 27.60 58.65 28Q58.65 28.10 58.65 28.15Q58.65 28.20 58.70 28.30Q58.95 28.55 58.95 29.20Q58.95 29.95 58.65 30.82Q58.35 31.70 58.02 32.42Q57.70 33.15 57.50 33.45Q57.50 33.45 57.42 33.27Q57.35 33.10 57.20 33.35L56.95 33.70L57 34.10L56.90 34.45L56.85 34.45Q56.70 34.75 56.27 35.30Q55.85 35.85 55.25 36.60Q54.95 36.95 54.60 37.40Q54.25 37.85 53.95 38.25L54.10 38.25Q54.60 38.25 55.23 37.90Q55.85 37.55 56.25 37.25Q56.95 36.85 57.52 36.23Q58.10 35.60 58.75 34.90Q58.95 34.65 59.10 34.48Q59.25 34.30 59.45 34.10Q59.60 33.95 59.80 33.95M51.60 37.30Q52.15 36.90 53.10 36.08Q54.05 35.25 55.40 33.40Q55.60 33.15 56.05 32.38Q56.50 31.60 56.60 31.35Q56.85 30.80 57.08 30.17Q57.30 29.55 57.30 28.90Q57.30 28.20 57.25 27.88Q57.20 27.55 56.85 27.55Q56.45 27.55 55.60 28.05L55.20 28.45Q53.90 29.25 52.60 30.30Q52.55 30.35 52.48 30.38Q52.40 30.40 52.40 30.50Q52.30 30.50 51.90 30.95Q51.50 31.40 51.15 31.85Q50.80 32.30 50.80 32.35Q50.70 32.55 50.38 32.70Q50.05 32.85 50.10 33.20L49.75 33.20L49.85 33.60L49.60 33.60L49.60 33.65Q49.60 34 49.25 34.10Q49.15 34.20 49.15 34.10Q49.10 34.25 49.02 34.27Q48.95 34.30 48.85 34.40L48.55 35L48.30 35.65Q48.25 35.65 47.92 35.90Q47.60 36.15 47.60 36.20L47.65 36.45Q47.30 36.50 47.25 36.75Q47.20 37 47.10 37.25L47.10 37.60L46.45 38.85L46.15 39.35Q46.10 39.40 46.05 39.55Q46 39.70 46.05 39.70L46.05 39.75L46.15 39.75L46.20 39.35Q46.30 39.55 46.35 39.98Q46.40 40.40 46.35 40.65Q46.30 40.85 46.23 41.13Q46.15 41.40 46.15 41.65L46.15 42.05Q46.15 42.40 46.60 42.50Q47.05 42.60 47.30 42.55Q47.40 42.50 47.88 42.25Q48.35 42 48.77 41.73Q49.20 41.45 49.15 41.35L49.20 41.40L49.35 41.40Q49.45 41.15 49.80 40.95Q50.15 40.75 50.35 40.55Q50.70 40.25 51.08 39.92Q51.45 39.60 51.70 39.25L52.20 38.55Q51.50 38.40 51.50 37.80Q51.50 37.60 51.60 37.30ZM63.95 43.10Q63.70 43.35 62.85 43.02Q62 42.70 61.60 42.50Q61 42.25 60.70 41.58Q60.40 40.90 60.50 40.25L60.65 39.85Q60.80 39.45 61 38.95Q61.20 38.45 61.40 38.10Q62.10 36.90 62.38 36.33Q62.65 35.75 62.98 35.17Q63.30 34.60 64.10 33.50Q64.15 33.45 64.42 32.90Q64.70 32.35 64.75 32.35L65.10 31.80Q65.45 31.55 66.10 30.48Q66.75 29.40 67.30 28.75Q66.95 29 66.58 29.30Q66.20 29.60 65.90 30Q65.75 30.20 65.17 30.82Q64.60 31.45 63.90 32.23Q63.20 33 62.65 33.63Q62.10 34.25 61.95 34.45Q61.35 35.10 61.10 35.10Q61 35.10 61 35Q61 34.80 61.35 34.35L62.95 32.55Q63.30 32.15 63.63 31.82Q63.95 31.50 64.25 31.15Q64.50 30.90 64.72 30.60Q64.95 30.30 65.20 30.05L66 29.20L68.20 26.40Q69.55 24.70 72.55 20.57Q75.55 16.45 81 10.70Q81.70 10.35 82.22 9.82Q82.75 9.30 82.90 9.25Q83.30 9.15 83.45 9.15Q83.95 9.15 84.35 9.50Q84.75 9.85 84.95 10.60Q85.05 11 85.45 11.57Q85.85 12.15 85.55 12.50Q85.40 12.65 84.90 13.32Q84.40 14 83.95 14.67Q83.50 15.35 83.40 15.60Q83.05 15.80 82.58 16.52Q82.10 17.25 81.85 17.65Q81.90 17.95 81.17 18.80Q80.45 19.65 79.47 20.67Q78.50 21.70 77.67 22.50Q76.85 23.30 76.70 23.50Q76.65 23.55 76.22 23.97Q75.80 24.40 75.40 24.80Q75 25.20 74.95 25.30L74.90 25.30L74.60 25.70Q74.55 25.95 73.83 26.47Q73.10 27 72.40 27.55Q71.70 28.10 71.70 28.35Q71.55 28.40 70.95 28.88Q70.35 29.35 69.63 29.98Q68.90 30.60 68.30 31.05Q67.70 31.50 67.60 31.50L66.10 34.15L66.10 34.25Q66.10 34.55 65.80 34.88Q65.50 35.20 65.30 35.20Q65.30 35.40 65.25 35.40Q65.05 35.55 65.05 35.95L65 35.95L64.90 36L65 36.25L64.70 36.30Q64.65 36.50 64.35 37Q64.05 37.50 63.80 37.50L63.80 37.55L63.75 37.55Q64.05 37.80 63.88 37.75Q63.70 37.70 63.60 37.70L63.60 37.75Q63.70 37.95 63.70 38.05Q63.70 38.35 63.35 38.35Q63.35 38.45 63.40 38.45L63.45 38.50L63.45 38.55Q63.10 38.65 63.10 39.10L63 39.10L62.60 40.05Q62.60 40.10 62.57 40.13Q62.55 40.15 62.55 40.20Q62.55 40.40 62.70 40.35Q62.85 40.30 62.75 40.60Q62.65 40.90 62.57 41.08Q62.50 41.25 62.50 41.35Q62.50 41.45 62.57 41.55Q62.65 41.65 62.70 41.75Q62.95 41.95 63.70 41.70Q64.45 41.45 65.20 41.02Q65.95 40.60 66.25 40.30L70.20 36.55L71.70 35.10Q71.80 35.05 72.20 34.65Q72.60 34.25 72.80 34.15Q72.90 34.10 73.10 34.17Q73.30 34.25 73.20 34.35L71.60 35.80Q70.95 36.35 70.67 36.83Q70.40 37.30 69.80 37.85Q69.30 38.25 68.88 38.70Q68.45 39.15 68.05 39.60L66.60 41.15Q66.10 41.55 65.75 41.83Q65.40 42.10 64.90 42.55Q64.75 42.70 64.42 42.85Q64.10 43 63.95 43.10M69.80 28.85Q71.05 28.10 72.47 26.82Q73.90 25.55 75.25 24.13Q76.60 22.70 77.65 21.45Q78.70 20.20 79.20 19.60Q79.30 19.50 79.45 19Q79.60 18.50 80.25 17.70Q80.50 17.35 80.78 16.80Q81.05 16.25 81.40 15.80Q81.95 15.10 82.22 14.42Q82.50 13.75 82.50 13.40Q82.50 13.10 82.30 13.10Q82.05 13.10 81.45 13.70Q81.10 13.95 80.08 15.13Q79.05 16.30 77.70 17.95Q76.35 19.60 75 21.32Q73.65 23.05 72.58 24.38Q71.50 25.70 71.05 26.25Q70.60 26.75 70.15 27.48Q69.70 28.20 69.55 28.65Q69.40 29.10 69.80 28.85M73.40 33.95Q73.30 33.95 73.30 33.75Q73.30 33.55 73.40 33.55Q73.45 33.55 73.60 33.48Q73.75 33.40 73.80 33.40Q73.85 33.40 73.85 33.45Q73.85 33.50 73.65 33.73Q73.45 33.95 73.40 33.95ZM85.10 25Q85.10 25 84.55 24.90Q84.00 24.80 83.40 24.45Q83.25 24.30 82.93 24.10Q82.60 23.90 82.80 23.65Q82.90 23.50 83.05 23.50Q83.20 23.30 83.38 23.15Q83.55 23 83.65 22.80Q84.60 21.60 85.68 20.57Q86.75 19.55 87.90 18.60Q88.30 18.25 88.65 17.90Q89.00 17.55 89.45 17.35Q90.00 17.10 90.15 17.25Q90.30 17.40 90.30 17.40Q90.30 17.45 90.25 17.45Q90.15 17.75 90.05 17.95Q89.85 18.20 89.55 18.42Q89.25 18.65 89.15 18.95Q89.15 19.10 89.10 19.10Q88.90 19.30 88.38 19.80Q87.85 20.30 87.85 20.55Q87.70 20.55 87.70 20.60L87.65 20.60Q87.60 20.95 87.35 21.15Q87.10 21.35 86.85 21.60Q86.65 21.80 86.55 22.07Q86.45 22.35 86.30 22.60Q86.15 22.80 85.98 22.92Q85.80 23.05 85.70 23.25Q85.50 23.60 85.60 24.02Q85.70 24.45 85.60 24.85Q85.55 25 85.33 25.02Q85.10 25.05 85.10 25M71.65 43.55Q70.35 43.05 70.50 41.55L70.70 41.15Q70.95 40.75 71.10 40.35Q71.25 39.95 71.45 39.60Q72.50 37.80 73.58 36.02Q74.65 34.25 75.85 32.55Q75.90 32.50 75.93 32.42Q75.95 32.35 76.00 32.35L76.00 32.25Q76.25 32.05 76.70 31.38Q77.15 30.70 77.68 29.92Q78.20 29.15 78.55 28.75Q78.20 29 77.83 29.30Q77.45 29.60 77.15 30Q77.00 30.20 76.43 30.82Q75.85 31.45 75.15 32.23Q74.45 33 73.90 33.63Q73.35 34.25 73.20 34.45Q72.60 35.10 72.35 35.10Q72.25 35.10 72.25 35Q72.25 34.80 72.60 34.35L74.20 32.55Q74.55 32.15 74.88 31.82Q75.20 31.50 75.50 31.15Q75.75 30.90 75.98 30.60Q76.20 30.30 76.45 30.05L77.25 29.20Q77.50 28.95 77.73 28.63Q77.95 28.30 78.20 28.05Q79.70 26.50 80.30 26.10Q80.90 25.70 81.25 25.95Q81.35 25.85 81.50 25.85Q81.65 25.85 81.80 25.93Q81.95 26 82.05 26.05Q82.25 26.15 82.65 26.43Q83.05 26.70 83.30 27.02Q83.55 27.35 83.25 27.65Q82.95 28 82.55 28.15Q82.15 28.30 81.80 28.65Q81.55 28.85 81.28 29.10Q81.00 29.35 80.85 29.65L80.80 29.70Q80.85 30.25 80.10 30.82Q79.35 31.40 78.95 31.80Q78.80 31.95 78.70 32.30L78.65 32.30L78.40 32.35Q78.30 32.70 77.98 32.92Q77.65 33.15 77.65 33.55Q77.35 33.65 77.13 34.20Q76.90 34.75 76.65 34.75L76.65 34.90Q76.65 35.15 76.35 35.48Q76.05 35.80 75.85 35.80Q75.85 35.85 75.85 35.95Q75.85 36.05 75.80 36.05Q75.60 36.20 75.60 36.60L75.45 36.60L75.45 36.65L75.55 36.90L75.25 36.95Q75.20 37.15 74.90 37.63Q74.60 38.10 74.35 38.10L74.35 38.15L74.30 38.15L74.55 38.40L74.50 38.40L74.50 38.45L74.45 38.45Q74.25 38.35 74.15 38.35L74.15 38.40Q74.25 38.60 74.25 38.70Q74.25 39 73.90 39Q73.90 39.05 73.90 39.05L74.00 39.15L74.00 39.20Q73.65 39.25 73.65 39.75L73.55 39.75L73.45 39.70Q73.35 40.05 73.23 40.42Q73.10 40.80 72.95 41.15Q72.90 41.40 72.78 41.63Q72.65 41.85 72.65 42.15L72.70 42.15L72.70 42.10Q73.25 41.70 74.00 41.27Q74.75 40.85 75.25 40.35L79.15 36.65L80.65 35.20Q80.75 35.10 81.05 34.85Q81.35 34.60 81.55 34.50Q81.65 34.45 81.85 34.52Q82.05 34.60 81.95 34.70L80.55 35.90Q79.90 36.40 79.65 36.90Q79.40 37.40 78.75 37.95Q78.30 38.35 77.90 38.80Q77.50 39.25 77.05 39.65L75.70 40.85Q75.25 41.25 74.83 41.75Q74.40 42.25 73.90 42.65L73.25 43.20Q73.05 43.35 72.73 43.50Q72.40 43.65 72.10 43.65Q71.95 43.65 71.65 43.55M82.15 34.30Q82.05 34.30 82.05 34.10Q82.05 33.90 82.15 33.90Q82.25 33.90 82.38 33.83Q82.50 33.75 82.55 33.75Q82.60 33.75 82.60 33.80Q82.60 33.90 82.43 34.10Q82.25 34.30 82.15 34.30ZM87.95 46.20Q87.80 46.20 87.23 46.02Q86.65 45.85 86.20 45.55Q85.75 45.25 85.80 45.05L86.00 44.95Q86.05 44.80 86.43 44.08Q86.80 43.35 87.18 42.70Q87.55 42.05 87.60 42.05Q87.60 41.85 87.83 41.50Q88.05 41.15 87.95 40.95Q88.30 40.65 88.50 40.17Q88.70 39.70 88.90 39.25Q89.30 38.45 89.70 37.65Q90.10 36.85 90.55 36.05Q91.10 35.05 91.43 34.05Q91.75 33.05 91.65 32.55Q91.45 32.85 90.93 33.48Q90.40 34.10 89.95 34.65Q89.50 35.20 89.50 35.20Q89.05 35.80 88.45 36.45Q87.85 37.10 87.40 37.70Q86.70 38.65 85.88 39.58Q85.05 40.50 84.15 41.30Q83.80 41.60 83.40 41.90Q83.00 42.20 82.55 42.45Q82.15 42.65 81.68 42.95Q81.20 43.25 80.75 43.25Q80.30 43.25 79.83 42.85Q79.35 42.45 79.10 41.95Q79.00 41.65 78.88 41.33Q78.75 41 78.75 40.60Q78.80 40 79.05 39.50Q79.30 39 79.55 38.50Q80.20 37.35 80.98 36.33Q81.75 35.30 82.70 34.35Q82.85 34.15 83.25 33.67Q83.65 33.20 84.08 32.77Q84.50 32.35 84.65 32.35Q84.65 32.25 85.23 31.73Q85.80 31.20 86.68 30.45Q87.55 29.70 88.38 28.95Q89.20 28.20 89.70 27.70Q90.10 27.35 90.38 27.13Q90.65 26.90 91.05 26.60Q91.30 26.45 91.95 26.05Q92.60 25.65 92.80 25.65Q93.20 25.65 94.10 26.05Q95.00 26.45 95.65 27.15Q96.20 26.35 96.65 25.43Q97.10 24.50 97.75 23.80Q98.30 23.20 98.50 22.85Q98.70 22.50 98.93 22.10Q99.15 21.70 99.60 20.95Q99.85 20.60 100.15 20.25Q100.45 19.90 100.70 19.55Q101.35 18.60 101.90 17.92Q102.45 17.25 103.20 16.45Q103.40 16.20 103.80 15.75Q104.20 15.30 104.40 15.25L105.95 14.50Q106.15 14.35 106.00 14.17Q105.85 14 106.05 13.85L107.35 12.90Q107.60 12.70 107.85 12.50Q108.10 12.30 108.45 12.20Q108.60 12.05 109.28 11.63Q109.95 11.20 110.20 11.15L111.80 10.15Q112.00 10.05 112.23 10Q112.45 9.95 112.60 9.85L113.70 9.65L113.85 9.60Q113.95 9.45 114.45 9.32Q114.95 9.20 115.48 9.10Q116.00 9 116.20 9L116.65 8.95Q116.80 8.85 116.95 8.90Q117.10 8.95 117.25 8.90Q117.75 8.90 118.18 8.90Q118.60 8.90 119.05 9L119.85 9.15Q120.05 9.30 120.65 9.55Q121.25 9.80 121.30 10L121.15 10.20L120.90 10Q120.60 9.85 120.33 9.65Q120.05 9.45 119.65 9.40Q119.50 9.35 119.35 9.35Q119.20 9.35 119.05 9.35Q118.40 9.35 117.73 9.55Q117.05 9.75 116.40 9.90Q116.20 9.95 115.98 10Q115.75 10.05 115.50 10.10L114.70 10.60L114.55 10.55Q114.45 10.70 113.93 10.82Q113.40 10.95 113.45 11.10Q113.25 11.10 113.25 11.05Q112.75 11.45 112.43 11.82Q112.10 12.20 111.50 12.60Q111.20 12.80 110.58 13Q109.95 13.20 109.55 13.30Q109.35 13.75 108.65 14.05Q107.95 14.35 107.55 14.75Q106.15 15.90 104.80 17.10Q103.45 18.30 102.15 19.60Q101.95 19.80 101.80 20Q101.65 20.20 101.45 20.45Q99.50 22.60 98.23 24.70Q96.95 26.80 96.50 27.75L96.30 28.15L96.25 28.50L95.70 29.35L95.45 29.95L94.95 30.60L94.05 32.40L93.45 33.40Q93.25 33.75 93.08 34.15Q92.90 34.55 92.75 34.95L92.35 35.50L92.05 36.25L91.75 36.60L91.60 37.20L91.15 38.20Q90.85 38.85 90.73 39.33Q90.60 39.80 90.60 40.05Q90.60 40.55 90.85 40.70Q91.10 40.85 91.30 40.90Q91.50 40.95 91.35 41.20Q91.00 41.85 90.40 42.67Q89.80 43.50 89.40 44.20L89.20 44.40Q89.15 44.65 88.73 45.40Q88.30 46.15 87.95 46.20M81.15 41.90Q81.65 41.85 82.30 41.25Q82.95 40.65 83.30 40.60Q83.45 40.30 83.80 40.08Q84.15 39.85 84.40 39.65L85.85 38.25Q86.90 37.25 88.03 36.05Q89.15 34.85 90.15 33.75L91.15 32.20Q91.55 31.60 92.35 31Q93.15 30.40 93.65 29.65Q93.60 29.45 93.95 29.07Q94.30 28.70 94.45 28.40Q94.55 28.30 94.48 28.05Q94.40 27.80 94.45 27.65Q94.45 27.60 94.20 27.60Q93.95 27.60 93.85 27.60Q93.55 27.90 93.15 28Q92.75 28.10 92.35 28.30L91.85 28.70Q91.65 28.80 90.70 29.42Q89.75 30.05 88.58 30.85Q87.40 31.65 86.55 32.30Q85.70 32.95 85.70 33.20L85.40 33.20L85.40 33.60L85.20 33.60L85.20 33.65Q85.10 33.75 85.00 33.90Q84.90 34.05 84.75 34.10Q84.65 34.20 84.65 34.10L84.60 34.10Q84.55 34.25 84.48 34.27Q84.40 34.30 84.30 34.40L83.90 35L83.85 35L84.05 35.40Q83.95 35.40 83.60 35.65Q83.25 35.90 83.25 35.95L83.25 36.20Q82.90 36.25 82.80 36.50Q82.70 36.75 82.55 37L82.00 37.60L81.70 38.40L81.35 38.90Q81.30 38.95 81.23 39.10Q81.15 39.25 81.20 39.25L81.20 39.30Q81.25 39.30 81.25 39.35Q81.25 39.40 81.13 39.50Q81.00 39.60 80.85 39.55Q80.80 39.75 80.55 40.30Q80.30 40.85 80.30 41.30Q80.30 42.05 81.15 41.90ZM97.40 43.20Q97.00 43.40 96.30 43.40Q95.65 43.40 95.00 43.15Q94.15 42.80 93.80 41.95Q93.65 41.70 93.55 41.40Q93.45 41.10 93.45 40.75Q93.45 40.10 93.78 39.58Q94.10 39.05 94.35 38.55Q95.00 37.40 95.48 36.35Q95.95 35.30 96.90 34.35Q97.05 34.20 97.58 33.65Q98.10 33.10 98.63 32.58Q99.15 32.05 99.30 32.05Q99.25 32 99.43 31.85Q99.60 31.70 99.65 31.70L101.05 30.20L101.10 30.25Q101.20 30.25 101.25 30.02Q101.30 29.80 101.50 29.75L101.80 29.70L101.95 29.30Q102.10 28.90 102.28 28.77Q102.45 28.65 102.75 28.45L104.10 27.50L105.75 26.30Q105.85 26.20 105.80 26.13Q105.75 26.05 105.90 26Q106.30 25.95 106.30 25.95Q106.30 25.95 106.30 25.90Q106.55 25.80 106.88 25.72Q107.20 25.65 107.50 25.65Q107.90 25.65 108.43 26.10Q108.95 26.55 109.38 27.07Q109.80 27.60 109.80 28L109.75 28.50Q109.90 29.10 109.23 29.75Q108.55 30.40 107.73 30.88Q106.90 31.35 106.45 31.60L105.70 32.25L104.95 32.65L104.65 32.65L104.35 32.90Q104.35 32.80 104.20 32.80Q103.90 33.10 103.55 33.10L103.50 33.10Q103.30 33.30 103.05 33.45Q102.80 33.60 102.55 33.75L101.80 34.20Q101.60 34.30 101.38 34.35Q101.15 34.40 100.90 34.50L100.55 34.70L99.30 35L99.15 35.10Q99.00 35.25 98.95 35.15Q98.90 35.05 99.03 34.98Q99.15 34.90 99.20 34.85Q99.60 34.55 100.05 34.27Q100.50 34 100.90 33.75Q101.15 33.60 101.45 33.35Q101.75 33.10 102.10 33.10Q102.15 33 102.50 32.75Q102.85 32.50 103.25 32.27Q103.65 32.05 103.75 32.05Q103.80 32.05 103.80 32Q104.05 31.65 104.45 31.48Q104.85 31.30 105.15 31.10L106.20 30.30Q106.75 29.90 107.38 29.38Q108.00 28.85 108.35 28.20Q108.45 28.10 108.50 27.95Q108.55 27.80 108.60 27.65L108.60 27.60L108.50 27.60Q108.20 27.90 107.80 28Q107.40 28.10 107.00 28.30L106.55 28.70Q105.80 29.10 105.05 29.55Q104.30 30 103.60 30.55Q103.40 30.55 103.40 30.75Q103.30 30.75 102.75 31.15Q102.20 31.55 101.73 31.92Q101.25 32.30 101.25 32.35Q101.10 32.55 100.75 32.70Q100.40 32.85 100.40 33.20L100.05 33.20L100.05 33.60L99.85 33.60L99.85 33.65Q99.80 33.75 99.68 33.90Q99.55 34.05 99.40 34.10Q99.30 34.20 99.30 34.10Q99.25 34.25 99.15 34.27Q99.05 34.30 98.95 34.40L98.60 35L98.55 35L98.70 35.40Q98.65 35.40 98.30 35.65Q97.95 35.90 97.95 35.95L97.90 35.95L97.90 36.20Q97.55 36.25 97.48 36.50Q97.40 36.75 97.25 37L96.70 37.60L96.20 38.35L95.80 38.85Q95.75 38.90 95.68 39.08Q95.60 39.25 95.70 39.25L95.75 39.25L95.90 38.85Q96.00 39.05 95.65 39.70Q95.30 40.35 95.20 40.60Q95.15 40.70 95.15 40.85Q95.15 41 95.15 41.10Q95.15 41.45 95.10 41.65L95.00 41.95Q95.00 42 94.98 42.02Q94.95 42.05 94.95 42.10Q94.95 42.45 95.38 42.52Q95.80 42.60 96.05 42.55Q96.20 42.50 96.70 42.25Q97.20 42 97.65 41.73Q98.10 41.45 98.10 41.35L98.15 41.40L98.30 41.40Q98.50 41.15 98.85 40.95Q99.20 40.75 99.45 40.55Q100.25 39.95 101.05 39.25Q102.45 38.10 103.83 36.70Q105.20 35.30 106.40 34.05Q106.65 33.80 106.75 33.80Q106.85 33.80 106.85 33.95Q106.85 34.10 106.70 34.35Q106.55 34.65 105.98 35.17Q105.40 35.70 104.70 36.55L102.65 38.85Q101.85 39.80 100.95 40.63Q100.05 41.45 99.10 42.15Q98.70 42.45 98.28 42.73Q97.85 43 97.40 43.20M107.20 33.90Q107.10 33.90 107.10 33.70Q107.10 33.50 107.20 33.50Q107.25 33.50 107.40 33.42Q107.55 33.35 107.60 33.35Q107.65 33.35 107.65 33.40Q107.65 33.45 107.45 33.67Q107.25 33.90 107.20 33.90Z"/></g></g></g></svg>