<svg xmlns="http://www.w3.org/2000/svg" viewBox="0 8.883333206176758 129.64999389648438 37.91666793823242" data-asc="0.85" width="129.64999389648438" height="37.91666793823242"><defs/><g><g fill="#ffffff"><g transform="translate(0, 0)"><path d="M4.95 45.40Q4.15 45.40 3.68 44.92Q3.20 44.45 3.00 44.45Q2.90 43.90 2.43 43.65Q1.95 43.40 1.60 43.10Q1.40 42.95 1.27 42.75Q1.15 42.55 1 42.35Q0.50 41.65 0.25 41.30Q0 40.95 0 40.05Q0 39.10 0.35 37.98Q0.70 36.85 1.10 36.05Q1.20 35.85 1.43 35.48Q1.65 35.10 1.70 34.95L1.75 34.95Q1.70 35.30 1.50 35.58Q1.30 35.85 1.30 36.20Q1.50 36.05 2.00 35.35Q2.50 34.65 2.55 34.45Q2.50 34.45 2.50 34.42Q2.50 34.40 2.50 34.40L2.40 34.40Q2.35 34.45 2.35 34.55Q2.35 34.65 2.25 34.75Q2.15 34.55 2.15 34.45Q2.15 34.10 2.40 33.83Q2.65 33.55 2.75 33.30L2.75 32.95Q3.15 32.70 3.40 32.13Q3.65 31.55 3.90 31.20Q4.05 31.05 4.25 30.98Q4.45 30.90 4.55 30.70Q4.70 30.45 4.78 30.17Q4.85 29.90 5.05 29.70Q5.25 29.55 5.55 29.50Q5.85 29.45 5.85 29.10L5.70 29.15L5.75 28.90Q6.55 28 7.28 27.05Q8 26.10 8.80 25.25Q9.05 25.05 9.25 24.90Q9.45 24.75 9.65 24.55Q10.15 24.10 10.65 23.63Q11.15 23.15 11.65 22.70Q12.55 21.85 13.45 20.92Q14.35 20 15.35 19.35Q15.60 19.15 15.88 19Q16.15 18.85 16.40 18.70Q17.40 18 18.40 17.35Q19.40 16.70 20.40 16.05Q21.10 15.65 21.85 15.32Q22.60 15 23.30 14.65Q24.10 14.25 24.95 13.92Q25.80 13.60 26.65 13.30Q27.35 13.05 28.33 12.70Q29.30 12.35 30.00 12.35Q30.60 12.35 31.00 12.55Q31.40 12.75 31.80 13.15Q32.20 13.50 32.93 14.05Q33.65 14.60 34.25 15.20Q34.85 15.80 34.85 16.35Q34.85 17 34.38 17.50Q33.90 18 33.35 18.30Q32.80 18.65 32.30 19.07Q31.80 19.50 31.15 19.85Q30.85 20.35 29.95 20.85Q29.05 21.35 28.50 21.35L28.50 21.45Q28.15 21.70 27.68 22.10Q27.20 22.50 26.80 22.60Q26.75 22.65 26.60 22.65Q26.55 22.70 26.45 22.82Q26.35 22.95 26.30 23L26.30 23.05Q26.05 23.10 25.85 23.22Q25.65 23.35 25.40 23.35Q25.25 23.60 24.95 23.60Q24.90 23.70 24.75 23.77Q24.60 23.85 24.55 24L24.50 24L24.35 23.95Q24.20 24.15 24.00 24.15Q23.80 24.15 23.55 24.25Q23.50 24.30 23.25 24.45Q23.00 24.60 22.90 24.60L22.85 24.60L22.90 24.50Q24.10 23.75 25.23 22.88Q26.35 22 27.50 21.20Q27.95 20.90 28.85 20.20Q29.75 19.50 30.75 18.65Q31.75 17.80 32.43 16.97Q33.10 16.15 33.10 15.65Q33.10 15.15 32.55 14.92Q32 14.70 31.60 14.70Q30.65 14.70 30.10 15.10Q29.55 15.50 29.00 15.50L28.95 15.65Q28.60 15.65 28.30 15.92Q28.00 16.20 27.60 16.20Q27.50 16.30 27.03 16.55Q26.55 16.80 26.05 17.05Q25.55 17.30 25.35 17.45Q24.45 17.95 23.55 18.45Q22.65 18.95 21.80 19.55Q21.60 19.65 21.40 19.82Q21.20 20 21.00 20.15L19.70 20.85Q19.65 20.85 19.20 21.20Q18.75 21.55 18.33 21.90Q17.90 22.25 17.90 22.25Q17.65 22.40 16.90 23Q16.15 23.60 15.18 24.45Q14.20 25.30 13.28 26.15Q12.35 27 11.72 27.65Q11.10 28.30 11.05 28.45Q10.55 28.70 10.10 29.35Q9.65 30 9.30 30.40Q7.25 33 5.60 35.33Q3.95 37.65 2.95 40.95Q2.85 41.30 2.75 41.67Q2.65 42.05 2.65 42.45Q2.65 43.30 3.10 43.48Q3.55 43.65 4.20 43.65Q5.70 43.65 7.38 43.20Q9.05 42.75 10.20 41.50Q11.05 41.05 11.70 40.77Q12.35 40.50 13.15 40.05Q13.45 39.85 13.78 39.42Q14.10 39 14.45 38.85Q14.75 38.70 14.78 38.75Q14.80 38.80 14.85 38.77Q14.90 38.75 15.25 38.55L15.25 38.45L15.35 38.55L15.45 38.55Q15.85 38.35 16.73 37.63Q17.60 36.90 18.40 36.25Q19.20 35.60 19.40 35.55Q19.50 35.45 19.70 35.30Q19.90 35.15 20.10 35.10Q20.60 34.85 21.13 34.10Q21.65 33.35 22.10 33.35Q22.25 33.35 22.25 33.60Q21.90 34.10 21.05 34.90Q20.20 35.70 19.28 36.50Q18.35 37.30 17.68 37.85Q17.00 38.40 17.00 38.45Q16.85 38.45 16.28 38.92Q15.70 39.40 14.95 40Q14.20 40.60 13.55 41.15Q12.90 41.70 12.65 41.85Q12.05 42.30 10.95 42.90Q9.85 43.50 8.57 44.08Q7.30 44.65 6.30 45.02Q5.30 45.40 4.95 45.40ZM22.90 43.20Q22.50 43.40 21.80 43.40Q21.15 43.40 20.50 43.15Q19.65 42.80 19.30 41.95Q19.15 41.70 19.05 41.40Q18.95 41.10 18.95 40.75Q18.95 40.10 19.28 39.58Q19.60 39.05 19.85 38.55Q20.50 37.40 20.98 36.35Q21.45 35.30 22.40 34.35Q22.55 34.20 23.08 33.65Q23.60 33.10 24.13 32.58Q24.65 32.05 24.80 32.05Q24.75 32 24.93 31.85Q25.10 31.70 25.15 31.70L26.55 30.20L26.60 30.25Q26.70 30.25 26.75 30.02Q26.80 29.80 27 29.75L27.30 29.70L27.45 29.30Q27.60 28.90 27.78 28.77Q27.95 28.65 28.25 28.45L29.60 27.50L31.25 26.30Q31.35 26.20 31.30 26.13Q31.25 26.05 31.40 26Q31.80 25.95 31.80 25.95Q31.80 25.95 31.80 25.90Q32.05 25.80 32.38 25.72Q32.70 25.65 33 25.65Q33.40 25.65 33.93 26.10Q34.45 26.55 34.88 27.07Q35.30 27.60 35.30 28L35.25 28.50Q35.40 29.10 34.73 29.75Q34.05 30.40 33.23 30.88Q32.40 31.35 31.95 31.60L31.20 32.25L30.45 32.65L30.15 32.65L29.85 32.90Q29.85 32.80 29.70 32.80Q29.40 33.10 29.05 33.10L29 33.10Q28.80 33.30 28.55 33.45Q28.30 33.60 28.05 33.75L27.30 34.20Q27.10 34.30 26.88 34.35Q26.65 34.40 26.40 34.50L26.05 34.70L24.80 35L24.65 35.10Q24.50 35.25 24.45 35.15Q24.40 35.05 24.53 34.98Q24.65 34.90 24.70 34.85Q25.10 34.55 25.55 34.27Q26 34 26.40 33.75Q26.65 33.60 26.95 33.35Q27.25 33.10 27.60 33.10Q27.65 33 28 32.75Q28.35 32.50 28.75 32.27Q29.15 32.05 29.25 32.05Q29.30 32.05 29.30 32Q29.55 31.65 29.95 31.48Q30.35 31.30 30.65 31.10L31.70 30.30Q32.25 29.90 32.88 29.38Q33.50 28.85 33.85 28.20Q33.95 28.10 34 27.95Q34.05 27.80 34.10 27.65L34.10 27.60L34 27.60Q33.70 27.90 33.30 28Q32.90 28.10 32.50 28.30L32.05 28.70Q31.30 29.10 30.55 29.55Q29.80 30 29.10 30.55Q28.90 30.55 28.90 30.75Q28.80 30.75 28.25 31.15Q27.70 31.55 27.23 31.92Q26.75 32.30 26.75 32.35Q26.60 32.55 26.25 32.70Q25.90 32.85 25.90 33.20L25.55 33.20L25.55 33.60L25.35 33.60L25.35 33.65Q25.30 33.75 25.18 33.90Q25.05 34.05 24.90 34.10Q24.80 34.20 24.80 34.10Q24.75 34.25 24.65 34.27Q24.55 34.30 24.45 34.40L24.10 35L24.05 35L24.20 35.40Q24.15 35.40 23.80 35.65Q23.45 35.90 23.45 35.95L23.40 35.95L23.40 36.20Q23.05 36.25 22.98 36.50Q22.90 36.75 22.75 37L22.20 37.60L21.70 38.35L21.30 38.85Q21.25 38.90 21.18 39.08Q21.10 39.25 21.20 39.25L21.25 39.25L21.40 38.85Q21.50 39.05 21.15 39.70Q20.80 40.35 20.70 40.60Q20.65 40.70 20.65 40.85Q20.65 41 20.65 41.10Q20.65 41.45 20.60 41.65L20.50 41.95Q20.50 42 20.48 42.02Q20.45 42.05 20.45 42.10Q20.45 42.45 20.88 42.52Q21.30 42.60 21.55 42.55Q21.70 42.50 22.20 42.25Q22.70 42 23.15 41.73Q23.60 41.45 23.60 41.35L23.65 41.40L23.80 41.40Q24 41.15 24.35 40.95Q24.70 40.75 24.95 40.55Q25.75 39.95 26.55 39.25Q27.95 38.10 29.33 36.70Q30.70 35.30 31.90 34.05Q32.15 33.80 32.25 33.80Q32.35 33.80 32.35 33.95Q32.35 34.10 32.20 34.35Q32.05 34.65 31.48 35.17Q30.90 35.70 30.20 36.55L28.15 38.85Q27.35 39.80 26.45 40.63Q25.55 41.45 24.60 42.15Q24.20 42.45 23.78 42.73Q23.35 43 22.90 43.20M32.70 33.90Q32.60 33.90 32.60 33.70Q32.60 33.50 32.70 33.50Q32.75 33.50 32.90 33.42Q33.05 33.35 33.10 33.35Q33.15 33.35 33.15 33.40Q33.15 33.45 32.95 33.67Q32.75 33.90 32.70 33.90ZM28.65 44.20Q28.25 43.90 28.25 43.25Q28.25 42.95 28.30 42.80Q28.40 42.55 28.48 42.38Q28.55 42.20 28.60 42L28.75 41.75L29.20 40.85Q29.45 40.30 29.85 39.75Q30.25 39.20 30.60 38.70Q30.60 38.65 30.70 38.52Q30.80 38.40 30.80 38.40L31.55 37.30Q31.75 37.05 31.98 36.80Q32.20 36.55 32.25 36.25L32.30 36.20Q32.45 36.10 32.68 35.77Q32.90 35.45 33 35.25Q33.55 34.55 34.08 33.85Q34.60 33.15 35.10 32.45L35.20 32.30L32.50 34.50Q32.05 34.85 31.60 35.33Q31.15 35.80 30.65 36.25Q30.30 36.55 30.15 36.55Q30.05 36.55 30.05 36.40Q30.05 36.10 30.50 35.75Q30.85 35.50 31.05 35.23Q31.25 34.95 31.60 34.65Q31.85 34.45 32.23 33.95Q32.60 33.45 32.85 33.25Q33.20 33 33.73 32.38Q34.25 31.75 34.55 31.45Q35.85 30.25 36.30 29.60Q36.75 28.95 37.25 28.45L39 26.45Q39.15 26.30 39.35 26L39.75 25.75Q40.05 25.80 40.58 26.20Q41.10 26.60 40.80 27.20Q40.80 27.25 40.40 27.63Q40 28 39.60 28.40Q39.20 28.80 39.10 28.85Q39 28.85 39 28.90Q38.15 29.90 37.85 30.10Q37.55 30.30 37.53 30.35Q37.50 30.40 37.30 31Q37.15 31.10 37.03 31.27Q36.90 31.45 36.80 31.65L36.65 31.65Q36.60 31.85 36.48 31.98Q36.35 32.10 36.25 32.25L36 32.65L35.60 33.05L35.25 33.55Q35.15 33.70 35.08 33.85Q35 34 34.90 34.15Q34.70 34.40 34.48 34.67Q34.25 34.95 34.05 35.25Q33.90 35.45 33.70 35.58Q33.50 35.70 33.40 36Q33.35 36.10 33.25 36.42Q33.15 36.75 33.05 36.75Q33.05 37.15 32.77 37.35Q32.50 37.55 32.25 37.85L31.80 38.70L31.60 39.10L31.10 39.75L30.65 40.60Q30.40 41.10 29.98 41.60Q29.55 42.10 29.45 42.65Q29.40 42.65 29.23 43.05Q29.05 43.45 28.88 43.83Q28.70 44.20 28.65 44.20M40 44.70Q39.80 44.75 39.40 44.80Q39 44.85 38.55 44.85Q38.05 44.85 37.58 44.75Q37.10 44.65 36.90 44.45Q36.80 44.25 36.83 44.20Q36.85 44.15 36.75 43.95Q36.55 43.65 36.53 43.75Q36.50 43.85 36.40 43.55Q36.35 43.40 36.35 43Q36.35 42.40 36.43 41.67Q36.50 40.95 36.50 40.70Q36.50 40.05 36.68 39.48Q36.85 38.90 37 38.35Q37.25 37.30 37.70 36.35Q38.15 35.40 38.65 34.50Q39.05 33.80 39.50 33.08Q39.95 32.35 40.50 31.70L40.60 31.50Q40.35 31.55 40.15 31.77Q39.95 32 39.80 32.20Q39.65 32.40 39.40 32.65Q39.15 32.90 38.90 33.10Q37.10 34.75 35.18 36.88Q33.25 39 31.65 40.70Q30.45 41.90 30.15 41.90Q29.95 41.90 30.33 41.35Q30.70 40.80 31.55 40.15Q31.55 40.15 31.83 39.83Q32.10 39.50 32.10 39.45Q32.40 39.30 32.52 39.02Q32.65 38.75 33 38.55L33.75 37.75L34.15 37.15Q34.60 36.45 35.23 35.90Q35.85 35.35 36.40 34.70Q36.45 34.65 36.83 34.27Q37.20 33.90 37.25 33.90Q37.35 33.55 37.78 33.23Q38.20 32.90 38.40 32.70L39.60 31.45L39.65 31.40L39.75 31.45L39.70 31.40Q39.80 31.15 40.13 30.92Q40.45 30.70 40.65 30.50Q40.90 30.25 41.50 29.52Q42.10 28.80 42.90 28.80Q43.30 28.80 43.65 29Q43.80 29.05 44.18 29.40Q44.55 29.75 44.83 30.05Q45.10 30.35 44.95 30.45Q44.75 30.65 44.65 30.70Q44.45 30.85 43.98 31.30Q43.50 31.75 43.25 31.70Q43.25 31.70 43.03 32.05Q42.80 32.40 41.80 33.65Q41.70 33.55 41.33 34.20Q40.95 34.85 40.80 35.10Q40.55 35.65 40.23 36.02Q39.90 36.40 39.60 36.90L39.60 37Q39.60 37.15 39.50 37.23Q39.40 37.30 39.30 37.40L39.30 37.75Q39.30 37.90 39.08 38.38Q38.85 38.85 38.70 39.40Q38.85 39.95 38.65 40.30Q38.45 40.65 38.23 40.98Q38 41.30 38.05 41.85Q38.05 41.95 38.03 42.20Q38 42.45 38 42.80Q38 43.20 38.10 43.65Q38.20 44.10 38.45 44.35Q38.60 44.50 38.85 44.50Q39.35 44.50 39.95 44.17Q40.55 43.85 40.75 43.75L41.05 43.55Q41.05 43.60 41.05 43.60Q41 43.70 40.75 43.98Q40.50 44.25 40.55 44.35Q40.40 44.35 40.40 44.35L40 44.70ZM48.05 46.60Q47.85 46.65 47.50 46.73Q47.15 46.80 46.75 46.80Q46.25 46.80 45.72 46.60Q45.20 46.40 44.85 45.75Q44.75 45.55 44.75 45.50Q44.75 45.45 44.65 45.25Q44.45 45 44.42 45.08Q44.40 45.15 44.30 44.85Q44.15 44.45 44.38 43.65Q44.60 42.85 44.55 42.50Q44.50 41.85 44.82 41.13Q45.15 40.40 45.25 39.85Q45.50 38.85 45.85 37.90Q46.20 36.95 46.65 36.05Q47 35.45 47.30 34.75Q47.60 34.05 47.70 33.70L48.75 31.75Q48.85 31.65 48.80 31.67Q48.75 31.70 48.65 31.70Q48.60 31.70 48.47 31.88Q48.35 32.05 48.25 32.05L48.15 32.05Q48.05 32 47.52 31.98Q47 31.95 46.90 31.90Q46.65 31.50 46.55 30.90L46.65 29.50Q46.75 29.55 46.77 29.60Q46.80 29.65 46.90 29.65Q46.95 29.65 47.38 29.57Q47.80 29.50 48.20 29.45Q48.60 29.40 48.65 29.40Q48.75 29.40 49.15 29.42Q49.55 29.45 49.75 29.45Q50.15 29 50.60 28.60Q50.70 28.50 50.88 28.10Q51.05 27.70 51.10 27.70Q51.40 27.30 51.52 27.10Q51.65 26.90 52 26.50Q52.70 25.70 53.17 24.80Q53.65 23.90 54.40 23.20Q54.55 23.05 54.95 22.47Q55.35 21.90 55.75 21.38Q56.15 20.85 56.25 20.85L56.25 20.75Q56.25 20.50 56.05 20.45Q55.85 20.40 56 20.20Q56.40 19.80 57.13 19.07Q57.85 18.35 58.20 17.95Q58.80 17.35 59.65 17.35Q60.30 17.35 60.75 17.63Q61.20 17.90 61.05 18Q58.60 20 56.50 22.52Q54.40 25.05 53.20 26.95L52.95 27.35Q52.85 27.50 52.77 27.60Q52.70 27.70 52.60 27.85L52.20 28.55L51.75 29.35L51.70 29.45L51.75 29.45Q51.85 29.45 52.10 29.35Q52.35 29.25 52.45 29.25Q52.55 29.25 52.80 29.30Q53.05 29.35 53.15 29.35L53.30 29.35Q53.40 29.35 53.67 29.27Q53.95 29.20 54.05 29.20Q54.15 29.20 54.32 29.25Q54.50 29.30 54.65 29.30Q54.95 29.30 55.35 29.32Q55.75 29.35 56.05 29.40Q56.10 29.40 56.15 29.45Q56.20 29.50 56.25 29.50Q56.35 29.50 56.90 29.52Q57.45 29.55 57.55 29.55Q57.70 29.55 57.80 29.45Q57.80 29.60 57.85 29.65Q57.95 29.55 58.10 29.55Q58.25 29.55 58.40 29.50Q58.40 29.50 58.45 29.55Q58.50 29.60 58.45 29.65Q58.10 29.75 57.65 29.88Q57.20 30 57.10 30Q57.05 30 57.02 29.95Q57 29.90 56.90 29.90Q56.85 29.90 56.60 29.98Q56.35 30.05 56.20 30.05Q56.15 30.10 56.15 30.20Q56.10 30.20 56.02 30.13Q55.95 30.05 55.85 30.05Q55.80 30.05 55.57 30.10Q55.35 30.15 55.15 30.20Q55.10 30.25 55.10 30.45Q54.85 30.45 54.42 30.42Q54 30.40 54 30.40L53.70 30.50Q53.70 30.50 53.60 30.55Q53.50 30.60 53.40 30.70Q53.35 30.70 53.27 30.65Q53.20 30.60 53.10 30.60Q53.05 30.60 52.57 30.70Q52.10 30.80 51.85 30.90Q51.80 30.95 51.67 31.02Q51.55 31.10 51.45 31.10L50.60 31.10Q50.40 31.45 50.38 31.52Q50.35 31.60 50.15 31.95L49.60 32.90Q49.30 33.45 49.22 33.75Q49.15 34.05 49.05 34.35Q48.95 34.65 48.55 35.20Q48.20 35.70 48.07 36.23Q47.95 36.75 47.85 37Q47.60 37.55 47.50 37.92Q47.40 38.30 47.15 38.80L47.15 38.90Q47.15 39 47.07 39.08Q47 39.15 46.90 39.25L46.90 39.65Q46.90 39.75 46.70 40.23Q46.50 40.70 46.40 41.25Q46.45 41.40 46.45 41.70Q46.45 42.25 46.13 42.63Q45.80 43 45.90 43.70Q45.95 43.90 45.95 44.83Q45.95 45.75 46.45 46.20Q46.60 46.35 46.90 46.35Q47.40 46.35 47.97 46.02Q48.55 45.70 48.75 45.65L49.05 45.50Q49.05 45.55 49.05 45.55Q49 45.60 48.77 45.88Q48.55 46.15 48.60 46.25Q48.45 46.25 48.45 46.25L48.05 46.60ZM67 33.95Q67.15 33.95 67.05 34.17Q66.95 34.40 66.95 34.50L65.30 36.55Q64.90 37.05 64.40 37.38Q63.90 37.70 63.45 38.15Q63.30 38.35 62.95 38.50Q62.60 38.65 62.40 38.85Q62.20 39.05 61.42 39.17Q60.65 39.30 60.35 39.30Q60.30 39.30 60.20 39.20L60.00 39.50Q59.50 40.30 58.82 40.95Q58.15 41.60 57.45 42.15Q57.10 42.45 56.72 42.73Q56.35 43 55.95 43.20Q55.55 43.40 54.90 43.40Q54.20 43.40 53.55 43.15Q52.60 42.80 52.10 41.95Q51.90 41.60 51.72 41.20Q51.55 40.80 51.55 40.30Q51.55 39.75 51.70 39.33Q51.85 38.90 52.00 38.50Q52.90 36.30 54.45 34.35Q54.55 34.25 54.72 33.95Q54.90 33.65 55.10 33.35Q54.85 33.55 54.52 33.83Q54.20 34.10 53.95 34.35Q53.65 34.70 53.47 34.85Q53.30 35 52.90 35.50Q52.80 35.70 52.35 36.02Q51.90 36.35 51.80 36.35Q51.65 36.35 51.72 36.08Q51.80 35.80 52.60 35Q52.75 34.90 52.85 34.75Q52.95 34.60 53.05 34.45L54.55 32.70L56.15 31.25Q56.40 31 56.92 30.42Q57.45 29.85 58.40 29.10Q58.65 28.90 59.17 28.32Q59.70 27.75 59.90 27.55Q60.15 27.30 60.40 27.40L60.60 27.15Q60.90 26.75 61.20 26.77Q61.50 26.80 61.85 26.50L62.30 26.15L62.35 26.15L62.35 26.10Q62.60 26 62.72 25.82Q62.85 25.65 63.15 25.65Q63.55 25.65 64.15 26.10Q64.75 26.55 65.25 27.07Q65.75 27.60 65.85 28Q65.85 28.10 65.85 28.15Q65.85 28.20 65.90 28.30Q66.15 28.55 66.15 29.20Q66.15 29.95 65.85 30.82Q65.55 31.70 65.22 32.42Q64.90 33.15 64.70 33.45Q64.70 33.45 64.63 33.27Q64.55 33.10 64.40 33.35L64.15 33.70L64.20 34.10L64.10 34.45L64.05 34.45Q63.90 34.75 63.47 35.30Q63.05 35.85 62.45 36.60Q62.15 36.95 61.80 37.40Q61.45 37.85 61.15 38.25L61.30 38.25Q61.80 38.25 62.42 37.90Q63.05 37.55 63.45 37.25Q64.15 36.85 64.72 36.23Q65.30 35.60 65.95 34.90Q66.15 34.65 66.30 34.48Q66.45 34.30 66.65 34.10Q66.80 33.95 67 33.95M58.80 37.30Q59.35 36.90 60.30 36.08Q61.25 35.25 62.60 33.40Q62.80 33.15 63.25 32.38Q63.70 31.60 63.80 31.35Q64.05 30.80 64.27 30.17Q64.50 29.55 64.50 28.90Q64.50 28.20 64.45 27.88Q64.40 27.55 64.05 27.55Q63.65 27.55 62.80 28.05L62.40 28.45Q61.10 29.25 59.80 30.30Q59.75 30.35 59.67 30.38Q59.60 30.40 59.60 30.50Q59.50 30.50 59.10 30.95Q58.70 31.40 58.35 31.85Q58.00 32.30 58.00 32.35Q57.90 32.55 57.57 32.70Q57.25 32.85 57.30 33.20L56.95 33.20L57.05 33.60L56.80 33.60L56.80 33.65Q56.80 34 56.45 34.10Q56.35 34.20 56.35 34.10Q56.30 34.25 56.22 34.27Q56.15 34.30 56.05 34.40L55.75 35L55.50 35.65Q55.45 35.65 55.12 35.90Q54.80 36.15 54.80 36.20L54.85 36.45Q54.50 36.50 54.45 36.75Q54.40 37 54.30 37.25L54.30 37.60L53.65 38.85L53.35 39.35Q53.30 39.40 53.25 39.55Q53.20 39.70 53.25 39.70L53.25 39.75L53.35 39.75L53.40 39.35Q53.50 39.55 53.55 39.98Q53.60 40.40 53.55 40.65Q53.50 40.85 53.42 41.13Q53.35 41.40 53.35 41.65L53.35 42.05Q53.35 42.40 53.80 42.50Q54.25 42.60 54.50 42.55Q54.60 42.50 55.07 42.25Q55.55 42 55.97 41.73Q56.40 41.45 56.35 41.35L56.40 41.40L56.55 41.40Q56.65 41.15 57.00 40.95Q57.35 40.75 57.55 40.55Q57.90 40.25 58.27 39.92Q58.65 39.60 58.90 39.25L59.40 38.55Q58.70 38.40 58.70 37.80Q58.70 37.60 58.80 37.30ZM72.80 46.20Q72.65 46.20 72.07 46.02Q71.50 45.85 71.05 45.55Q70.60 45.25 70.65 45.05L70.85 44.95Q70.90 44.80 71.27 44.08Q71.65 43.35 72.02 42.70Q72.40 42.05 72.45 42.05Q72.45 41.85 72.67 41.50Q72.90 41.15 72.80 40.95Q73.15 40.65 73.35 40.17Q73.55 39.70 73.75 39.25Q74.15 38.45 74.55 37.65Q74.95 36.85 75.40 36.05Q75.95 35.05 76.27 34.05Q76.60 33.05 76.50 32.55Q76.30 32.85 75.77 33.48Q75.25 34.10 74.80 34.65Q74.35 35.20 74.35 35.20Q73.90 35.80 73.30 36.45Q72.70 37.10 72.25 37.70Q71.55 38.65 70.72 39.58Q69.90 40.50 69 41.30Q68.65 41.60 68.25 41.90Q67.85 42.20 67.40 42.45Q67 42.65 66.52 42.95Q66.05 43.25 65.60 43.25Q65.15 43.25 64.67 42.85Q64.20 42.45 63.95 41.95Q63.85 41.65 63.72 41.33Q63.60 41 63.60 40.60Q63.65 40 63.90 39.50Q64.15 39 64.40 38.50Q65.05 37.35 65.82 36.33Q66.60 35.30 67.55 34.35Q67.70 34.15 68.10 33.67Q68.50 33.20 68.92 32.77Q69.35 32.35 69.50 32.35Q69.50 32.25 70.07 31.73Q70.65 31.20 71.52 30.45Q72.40 29.70 73.22 28.95Q74.05 28.20 74.55 27.70Q74.95 27.35 75.22 27.13Q75.50 26.90 75.90 26.60Q76.15 26.45 76.80 26.05Q77.45 25.65 77.65 25.65Q78.05 25.65 78.95 26.05Q79.85 26.45 80.50 27.15Q81.05 26.35 81.50 25.43Q81.95 24.50 82.60 23.80Q83.15 23.20 83.35 22.85Q83.55 22.50 83.77 22.10Q84 21.70 84.45 20.95Q84.70 20.60 85 20.25Q85.30 19.90 85.55 19.55Q86.20 18.60 86.75 17.92Q87.30 17.25 88.05 16.45Q88.25 16.20 88.65 15.75Q89.05 15.30 89.25 15.25L90.80 14.50Q91 14.35 90.85 14.17Q90.70 14 90.90 13.85L92.20 12.90Q92.45 12.70 92.70 12.50Q92.95 12.30 93.30 12.20Q93.45 12.05 94.13 11.63Q94.80 11.20 95.05 11.15L96.65 10.15Q96.85 10.05 97.07 10Q97.30 9.95 97.45 9.85L98.55 9.65L98.70 9.60Q98.80 9.45 99.30 9.32Q99.80 9.20 100.32 9.10Q100.85 9 101.05 9L101.50 8.95Q101.65 8.85 101.80 8.90Q101.95 8.95 102.10 8.90Q102.60 8.90 103.03 8.90Q103.45 8.90 103.90 9L104.70 9.15Q104.90 9.30 105.50 9.55Q106.10 9.80 106.15 10L106 10.20L105.75 10Q105.45 9.85 105.17 9.65Q104.90 9.45 104.50 9.40Q104.35 9.35 104.20 9.35Q104.05 9.35 103.90 9.35Q103.25 9.35 102.57 9.55Q101.90 9.75 101.25 9.90Q101.05 9.95 100.82 10Q100.60 10.05 100.35 10.10L99.55 10.60L99.40 10.55Q99.30 10.70 98.78 10.82Q98.25 10.95 98.30 11.10Q98.10 11.10 98.10 11.05Q97.60 11.45 97.27 11.82Q96.95 12.20 96.35 12.60Q96.05 12.80 95.42 13Q94.80 13.20 94.40 13.30Q94.20 13.75 93.50 14.05Q92.80 14.35 92.40 14.75Q91 15.90 89.65 17.10Q88.30 18.30 87 19.60Q86.80 19.80 86.65 20Q86.50 20.20 86.30 20.45Q84.35 22.60 83.07 24.70Q81.80 26.80 81.35 27.75L81.15 28.15L81.10 28.50L80.55 29.35L80.30 29.95L79.80 30.60L78.90 32.40L78.30 33.40Q78.10 33.75 77.92 34.15Q77.75 34.55 77.60 34.95L77.20 35.50L76.90 36.25L76.60 36.60L76.45 37.20L76 38.20Q75.70 38.85 75.57 39.33Q75.45 39.80 75.45 40.05Q75.45 40.55 75.70 40.70Q75.95 40.85 76.15 40.90Q76.35 40.95 76.20 41.20Q75.85 41.85 75.25 42.67Q74.65 43.50 74.25 44.20L74.05 44.40Q74 44.65 73.57 45.40Q73.15 46.15 72.80 46.20M66 41.90Q66.50 41.85 67.15 41.25Q67.80 40.65 68.15 40.60Q68.30 40.30 68.65 40.08Q69 39.85 69.25 39.65L70.70 38.25Q71.75 37.25 72.88 36.05Q74 34.85 75 33.75L76 32.20Q76.40 31.60 77.20 31Q78 30.40 78.50 29.65Q78.45 29.45 78.80 29.07Q79.15 28.70 79.30 28.40Q79.40 28.30 79.32 28.05Q79.25 27.80 79.30 27.65Q79.30 27.60 79.05 27.60Q78.80 27.60 78.70 27.60Q78.40 27.90 78 28Q77.60 28.10 77.20 28.30L76.70 28.70Q76.50 28.80 75.55 29.42Q74.60 30.05 73.42 30.85Q72.25 31.65 71.40 32.30Q70.55 32.95 70.55 33.20L70.25 33.20L70.25 33.60L70.05 33.60L70.05 33.65Q69.95 33.75 69.85 33.90Q69.75 34.05 69.60 34.10Q69.50 34.20 69.50 34.10L69.45 34.10Q69.40 34.25 69.32 34.27Q69.25 34.30 69.15 34.40L68.75 35L68.70 35L68.90 35.40Q68.80 35.40 68.45 35.65Q68.10 35.90 68.10 35.95L68.10 36.20Q67.75 36.25 67.65 36.50Q67.55 36.75 67.40 37L66.85 37.60L66.55 38.40L66.20 38.90Q66.15 38.95 66.07 39.10Q66 39.25 66.05 39.25L66.05 39.30Q66.10 39.30 66.10 39.35Q66.10 39.40 65.97 39.50Q65.85 39.60 65.70 39.55Q65.65 39.75 65.40 40.30Q65.15 40.85 65.15 41.30Q65.15 42.05 66 41.90ZM92.95 25Q92.95 25 92.40 24.90Q91.85 24.80 91.25 24.45Q91.10 24.30 90.77 24.10Q90.45 23.90 90.65 23.65Q90.75 23.50 90.90 23.50Q91.05 23.30 91.22 23.15Q91.40 23 91.50 22.80Q92.45 21.60 93.52 20.57Q94.60 19.55 95.75 18.60Q96.15 18.25 96.50 17.90Q96.85 17.55 97.30 17.35Q97.85 17.10 98.00 17.25Q98.15 17.40 98.15 17.40Q98.15 17.45 98.10 17.45Q98.00 17.75 97.90 17.95Q97.70 18.20 97.40 18.42Q97.10 18.65 97.00 18.95Q97.00 19.10 96.95 19.10Q96.75 19.30 96.22 19.80Q95.70 20.30 95.70 20.55Q95.55 20.55 95.55 20.60L95.50 20.60Q95.45 20.95 95.20 21.15Q94.95 21.35 94.70 21.60Q94.50 21.80 94.40 22.07Q94.30 22.35 94.15 22.60Q94.00 22.80 93.82 22.92Q93.65 23.05 93.55 23.25Q93.35 23.60 93.45 24.02Q93.55 24.45 93.45 24.85Q93.40 25 93.17 25.02Q92.95 25.05 92.95 25M79.50 43.55Q78.20 43.05 78.35 41.55L78.55 41.15Q78.80 40.75 78.95 40.35Q79.10 39.95 79.30 39.60Q80.35 37.80 81.42 36.02Q82.50 34.25 83.70 32.55Q83.75 32.50 83.77 32.42Q83.80 32.35 83.85 32.35L83.85 32.25Q84.10 32.05 84.55 31.38Q85.00 30.70 85.52 29.92Q86.05 29.15 86.40 28.75Q86.05 29 85.67 29.30Q85.30 29.60 85.00 30Q84.85 30.20 84.27 30.82Q83.70 31.45 83.00 32.23Q82.30 33 81.75 33.63Q81.20 34.25 81.05 34.45Q80.45 35.10 80.20 35.10Q80.10 35.10 80.10 35Q80.10 34.80 80.45 34.35L82.05 32.55Q82.40 32.15 82.72 31.82Q83.05 31.50 83.35 31.15Q83.60 30.90 83.82 30.60Q84.05 30.30 84.30 30.05L85.10 29.20Q85.35 28.95 85.57 28.63Q85.80 28.30 86.05 28.05Q87.55 26.50 88.15 26.10Q88.75 25.70 89.10 25.95Q89.20 25.85 89.35 25.85Q89.50 25.85 89.65 25.93Q89.80 26 89.90 26.05Q90.10 26.15 90.50 26.43Q90.90 26.70 91.15 27.02Q91.40 27.35 91.10 27.65Q90.80 28 90.40 28.15Q90.00 28.30 89.65 28.65Q89.40 28.85 89.12 29.10Q88.85 29.35 88.70 29.65L88.65 29.70Q88.70 30.25 87.95 30.82Q87.20 31.40 86.80 31.80Q86.65 31.95 86.55 32.30L86.50 32.30L86.25 32.35Q86.15 32.70 85.82 32.92Q85.50 33.15 85.50 33.55Q85.20 33.65 84.97 34.20Q84.75 34.75 84.50 34.75L84.50 34.90Q84.50 35.15 84.20 35.48Q83.90 35.80 83.70 35.80Q83.70 35.85 83.70 35.95Q83.70 36.05 83.65 36.05Q83.45 36.20 83.45 36.60L83.30 36.60L83.30 36.65L83.40 36.90L83.10 36.95Q83.05 37.15 82.75 37.63Q82.45 38.10 82.20 38.10L82.20 38.15L82.15 38.15L82.40 38.40L82.35 38.40L82.35 38.45L82.30 38.45Q82.10 38.35 82.00 38.35L82.00 38.40Q82.10 38.60 82.10 38.70Q82.10 39 81.75 39Q81.75 39.05 81.75 39.05L81.85 39.15L81.85 39.20Q81.50 39.25 81.50 39.75L81.40 39.75L81.30 39.70Q81.20 40.05 81.07 40.42Q80.95 40.80 80.80 41.15Q80.75 41.40 80.62 41.63Q80.50 41.85 80.50 42.15L80.55 42.15L80.55 42.10Q81.10 41.70 81.85 41.27Q82.60 40.85 83.10 40.35L87.00 36.65L88.50 35.20Q88.60 35.10 88.90 34.85Q89.20 34.60 89.40 34.50Q89.50 34.45 89.70 34.52Q89.90 34.60 89.80 34.70L88.40 35.90Q87.75 36.40 87.50 36.90Q87.25 37.40 86.60 37.95Q86.15 38.35 85.75 38.80Q85.35 39.25 84.90 39.65L83.55 40.85Q83.10 41.25 82.67 41.75Q82.25 42.25 81.75 42.65L81.10 43.20Q80.90 43.35 80.57 43.50Q80.25 43.65 79.95 43.65Q79.80 43.65 79.50 43.55M90.00 34.30Q89.90 34.30 89.90 34.10Q89.90 33.90 90.00 33.90Q90.10 33.90 90.22 33.83Q90.35 33.75 90.40 33.75Q90.45 33.75 90.45 33.80Q90.45 33.90 90.27 34.10Q90.10 34.30 90.00 34.30ZM91.40 43.20Q91 43.40 90.30 43.40Q89.65 43.40 89 43.15Q88.15 42.80 87.80 41.95Q87.65 41.70 87.55 41.40Q87.45 41.10 87.45 40.75Q87.45 40.10 87.77 39.58Q88.10 39.05 88.35 38.55Q89 37.40 89.47 36.35Q89.95 35.30 90.90 34.35Q91.05 34.20 91.57 33.65Q92.10 33.10 92.63 32.58Q93.15 32.05 93.30 32.05Q93.25 32 93.42 31.85Q93.60 31.70 93.65 31.70L95.05 30.20L95.10 30.25Q95.20 30.25 95.25 30.02Q95.30 29.80 95.50 29.75L95.80 29.70L95.95 29.30Q96.10 28.90 96.27 28.77Q96.45 28.65 96.75 28.45L98.10 27.50L99.75 26.30Q99.85 26.20 99.80 26.13Q99.75 26.05 99.90 26Q100.30 25.95 100.30 25.95Q100.30 25.95 100.30 25.90Q100.55 25.80 100.88 25.72Q101.20 25.65 101.50 25.65Q101.90 25.65 102.42 26.10Q102.95 26.55 103.38 27.07Q103.80 27.60 103.80 28L103.75 28.50Q103.90 29.10 103.22 29.75Q102.55 30.40 101.72 30.88Q100.90 31.35 100.45 31.60L99.70 32.25L98.95 32.65L98.65 32.65L98.35 32.90Q98.35 32.80 98.20 32.80Q97.90 33.10 97.55 33.10L97.50 33.10Q97.30 33.30 97.05 33.45Q96.80 33.60 96.55 33.75L95.80 34.20Q95.60 34.30 95.38 34.35Q95.15 34.40 94.90 34.50L94.55 34.70L93.30 35L93.15 35.10Q93 35.25 92.95 35.15Q92.90 35.05 93.02 34.98Q93.15 34.90 93.20 34.85Q93.60 34.55 94.05 34.27Q94.50 34 94.90 33.75Q95.15 33.60 95.45 33.35Q95.75 33.10 96.10 33.10Q96.15 33 96.50 32.75Q96.85 32.50 97.25 32.27Q97.65 32.05 97.75 32.05Q97.80 32.05 97.80 32Q98.05 31.65 98.45 31.48Q98.85 31.30 99.15 31.10L100.20 30.30Q100.75 29.90 101.38 29.38Q102 28.85 102.35 28.20Q102.45 28.10 102.50 27.95Q102.55 27.80 102.60 27.65L102.60 27.60L102.50 27.60Q102.20 27.90 101.80 28Q101.40 28.10 101 28.30L100.55 28.70Q99.80 29.10 99.05 29.55Q98.30 30 97.60 30.55Q97.40 30.55 97.40 30.75Q97.30 30.75 96.75 31.15Q96.20 31.55 95.72 31.92Q95.25 32.30 95.25 32.35Q95.10 32.55 94.75 32.70Q94.40 32.85 94.40 33.20L94.05 33.20L94.05 33.60L93.85 33.60L93.85 33.65Q93.80 33.75 93.67 33.90Q93.55 34.05 93.40 34.10Q93.30 34.20 93.30 34.10Q93.25 34.25 93.15 34.27Q93.05 34.30 92.95 34.40L92.60 35L92.55 35L92.70 35.40Q92.65 35.40 92.30 35.65Q91.95 35.90 91.95 35.95L91.90 35.95L91.90 36.20Q91.55 36.25 91.47 36.50Q91.40 36.75 91.25 37L90.70 37.60L90.20 38.35L89.80 38.85Q89.75 38.90 89.67 39.08Q89.60 39.25 89.70 39.25L89.75 39.25L89.90 38.85Q90 39.05 89.65 39.70Q89.30 40.35 89.20 40.60Q89.15 40.70 89.15 40.85Q89.15 41 89.15 41.10Q89.15 41.45 89.10 41.65L89 41.95Q89 42 88.97 42.02Q88.95 42.05 88.95 42.10Q88.95 42.45 89.38 42.52Q89.80 42.60 90.05 42.55Q90.20 42.50 90.70 42.25Q91.20 42 91.65 41.73Q92.10 41.45 92.10 41.35L92.15 41.40L92.30 41.40Q92.50 41.15 92.85 40.95Q93.20 40.75 93.45 40.55Q94.25 39.95 95.05 39.25Q96.45 38.10 97.82 36.70Q99.20 35.30 100.40 34.05Q100.65 33.80 100.75 33.80Q100.85 33.80 100.85 33.95Q100.85 34.10 100.70 34.35Q100.55 34.65 99.97 35.17Q99.40 35.70 98.70 36.55L96.65 38.85Q95.85 39.80 94.95 40.63Q94.05 41.45 93.10 42.15Q92.70 42.45 92.27 42.73Q91.85 43 91.40 43.20M101.20 33.90Q101.10 33.90 101.10 33.70Q101.10 33.50 101.20 33.50Q101.25 33.50 101.40 33.42Q101.55 33.35 101.60 33.35Q101.65 33.35 101.65 33.40Q101.65 33.45 101.45 33.67Q101.25 33.90 101.20 33.90ZM112.70 26.10L113.25 26.45Q113.60 26.80 114.35 27.35Q115.10 27.90 115.10 28.45Q115.10 28.85 114.80 29.13Q114.50 29.40 114.15 29.65Q113.80 29.85 113.50 30.10Q113.20 30.35 112.80 30.55Q112.60 30.85 112.50 30.88Q112.40 30.90 112.05 30.90L112.05 30.95Q111.85 31.15 111.55 31.35Q111.25 31.55 111 31.65Q110.95 31.70 110.85 31.70L110.65 31.90L110.65 31.95Q110.55 32 110.42 32.05Q110.30 32.10 110.15 32.10Q109.95 32.15 110.17 31.90Q110.40 31.65 110.80 31.30Q111.20 30.95 111.40 30.80Q111.80 30.55 112.40 30.05Q113 29.55 113.50 28.98Q114 28.40 114 28Q114 27.75 113.35 27.75Q112.80 27.75 112.45 28L111 28.70Q110.20 29.05 109.47 29.52Q108.75 30 108.05 30.55Q107.85 30.55 107.85 30.75Q107.75 30.75 107.22 31.15Q106.70 31.55 106.22 31.92Q105.75 32.30 105.75 32.35Q105.55 32.55 105.20 32.70Q104.85 32.85 104.85 33.20L104.55 33.20L104.55 33.60L104.30 33.60L104.30 33.65Q104.25 33.75 104.13 33.90Q104 34.05 103.85 34.10Q103.80 34.15 103.80 34.10L103.75 34.10Q103.70 34.25 103.63 34.27Q103.55 34.30 103.45 34.40L103.05 35L103 35L103.20 35.40Q103.10 35.40 102.75 35.65Q102.40 35.90 102.40 35.95L102.35 35.95L102.35 36.20Q102 36.25 101.92 36.50Q101.85 36.75 101.70 37L101.15 37.60L100.85 38.40L100.50 38.90Q100.45 38.95 100.38 39.10Q100.30 39.25 100.35 39.25L100.35 39.30Q100.45 39.30 100.30 39.48Q100.15 39.65 100.05 39.80Q100.15 40.10 100.15 40.25Q100.15 40.45 100.10 40.67Q100.05 40.90 100.05 41.15Q100.05 41.40 100.22 41.73Q100.40 42.05 100.90 42.30Q101.30 42.50 102.17 42.15Q103.05 41.80 103.95 41.25Q104.25 41.05 104.88 40.60Q105.50 40.15 106.10 39.70Q106.70 39.25 106.85 39.10Q108.25 37.95 109.35 36.83Q110.45 35.70 111.65 34.45Q111.90 34.20 112 34.20Q112.10 34.20 112.10 34.35Q112.10 34.50 111.95 34.75Q111.80 35.05 111.22 35.60Q110.65 36.15 109.95 36.95L106.50 40.75Q105.90 41.60 105.05 42.20Q104.20 42.80 103.80 43.05Q103.40 43.25 102.63 43.42Q101.85 43.60 101.15 43.60Q100.95 43.60 100.75 43.58Q100.55 43.55 100.40 43.50Q100.05 43.35 99.25 42.83Q98.45 42.30 98.25 41.95Q98.10 41.65 98 41.33Q97.90 41 97.90 40.60Q97.95 40 98.20 39.50Q98.45 39 98.70 38.50Q99.35 37.35 100.13 36.33Q100.90 35.30 101.80 34.35Q101.95 34.15 102.38 33.67Q102.80 33.20 103.22 32.77Q103.65 32.35 103.80 32.35Q103.70 32.25 103.80 32.25Q103.95 32.10 104.25 31.70Q104.55 31.30 104.75 31.30Q105.20 30.90 104.85 31L104.30 31.45Q103.65 32 102.88 32.63Q102.10 33.25 101.70 33.65Q101.25 34.10 100.70 34.58Q100.15 35.05 99.75 35.55Q99.50 35.80 99.40 35.80Q99.25 35.80 99.25 35.65Q99.25 35.40 99.55 35.05L100.20 34.35Q100.60 33.95 101 33.55Q101.40 33.15 101.85 32.75Q102.25 32.45 102.67 32.05Q103.10 31.65 103.45 31.30Q103.65 31.10 104.22 30.63Q104.80 30.15 105.50 29.60Q106.20 29.05 106.65 28.75Q107.15 28.35 107.95 27.90Q108.75 27.45 109.50 27.10Q110.25 26.75 110.55 26.70L111.25 26.35Q111.25 26.35 111.38 26.32Q111.50 26.30 111.65 26.30Q111.80 26.30 111.90 26.35Q111.95 26.35 112.15 26.25Q112.35 26.15 112.20 26.25L112.25 26.25Q112.35 26.25 112.47 26.13Q112.60 26 112.70 26.10ZM124.45 25Q124.45 25 123.90 24.90Q123.35 24.80 122.75 24.45Q122.60 24.30 122.27 24.10Q121.95 23.90 122.15 23.65Q122.25 23.50 122.40 23.50Q122.55 23.30 122.72 23.15Q122.90 23 123.00 22.80Q123.95 21.60 125.02 20.57Q126.10 19.55 127.25 18.60Q127.65 18.25 128.00 17.90Q128.35 17.55 128.80 17.35Q129.35 17.10 129.50 17.25Q129.65 17.40 129.65 17.40Q129.65 17.45 129.60 17.45Q129.50 17.75 129.40 17.95Q129.20 18.20 128.90 18.42Q128.60 18.65 128.50 18.95Q128.50 19.10 128.45 19.10Q128.25 19.30 127.72 19.80Q127.20 20.30 127.20 20.55Q127.05 20.55 127.05 20.60L127.00 20.60Q126.95 20.95 126.70 21.15Q126.45 21.35 126.20 21.60Q126.00 21.80 125.90 22.07Q125.80 22.35 125.65 22.60Q125.50 22.80 125.32 22.92Q125.15 23.05 125.05 23.25Q124.85 23.60 124.95 24.02Q125.05 24.45 124.95 24.85Q124.90 25 124.67 25.02Q124.45 25.05 124.45 25M111.00 43.55Q109.70 43.05 109.85 41.55L110.05 41.15Q110.30 40.75 110.45 40.35Q110.60 39.95 110.80 39.60Q111.85 37.80 112.92 36.02Q114.00 34.25 115.20 32.55Q115.25 32.50 115.27 32.42Q115.30 32.35 115.35 32.35L115.35 32.25Q115.60 32.05 116.05 31.38Q116.50 30.70 117.02 29.92Q117.55 29.15 117.90 28.75Q117.55 29 117.17 29.30Q116.80 29.60 116.50 30Q116.35 30.20 115.77 30.82Q115.20 31.45 114.50 32.23Q113.80 33 113.25 33.63Q112.70 34.25 112.55 34.45Q111.95 35.10 111.70 35.10Q111.60 35.10 111.60 35Q111.60 34.80 111.95 34.35L113.55 32.55Q113.90 32.15 114.22 31.82Q114.55 31.50 114.85 31.15Q115.10 30.90 115.32 30.60Q115.55 30.30 115.80 30.05L116.60 29.20Q116.85 28.95 117.07 28.63Q117.30 28.30 117.55 28.05Q119.05 26.50 119.65 26.10Q120.25 25.70 120.60 25.95Q120.70 25.85 120.85 25.85Q121.00 25.85 121.15 25.93Q121.30 26 121.40 26.05Q121.60 26.15 122.00 26.43Q122.40 26.70 122.65 27.02Q122.90 27.35 122.60 27.65Q122.30 28 121.90 28.15Q121.50 28.30 121.15 28.65Q120.90 28.85 120.62 29.10Q120.35 29.35 120.20 29.65L120.15 29.70Q120.20 30.25 119.45 30.82Q118.70 31.40 118.30 31.80Q118.15 31.95 118.05 32.30L118.00 32.30L117.75 32.35Q117.65 32.70 117.32 32.92Q117.00 33.15 117.00 33.55Q116.70 33.65 116.47 34.20Q116.25 34.75 116.00 34.75L116.00 34.90Q116.00 35.15 115.70 35.48Q115.40 35.80 115.20 35.80Q115.20 35.85 115.20 35.95Q115.20 36.05 115.15 36.05Q114.95 36.20 114.95 36.60L114.80 36.60L114.80 36.65L114.90 36.90L114.60 36.95Q114.55 37.15 114.25 37.63Q113.95 38.10 113.70 38.10L113.70 38.15L113.65 38.15L113.90 38.40L113.85 38.40L113.85 38.45L113.80 38.45Q113.60 38.35 113.50 38.35L113.50 38.40Q113.60 38.60 113.60 38.70Q113.60 39 113.25 39Q113.25 39.05 113.25 39.05L113.35 39.15L113.35 39.20Q113.00 39.25 113.00 39.75L112.90 39.75L112.80 39.70Q112.70 40.05 112.57 40.42Q112.45 40.80 112.30 41.15Q112.25 41.40 112.12 41.63Q112.00 41.85 112.00 42.15L112.05 42.15L112.05 42.10Q112.60 41.70 113.35 41.27Q114.10 40.85 114.60 40.35L118.50 36.65L120.00 35.20Q120.10 35.10 120.40 34.85Q120.70 34.60 120.90 34.50Q121.00 34.45 121.20 34.52Q121.40 34.60 121.30 34.70L119.90 35.90Q119.25 36.40 119.00 36.90Q118.75 37.40 118.10 37.95Q117.65 38.35 117.25 38.80Q116.85 39.25 116.40 39.65L115.05 40.85Q114.60 41.25 114.17 41.75Q113.75 42.25 113.25 42.65L112.60 43.20Q112.40 43.35 112.07 43.50Q111.75 43.65 111.45 43.65Q111.30 43.65 111.00 43.55M121.50 34.30Q121.40 34.30 121.40 34.10Q121.40 33.90 121.50 33.90Q121.60 33.90 121.72 33.83Q121.85 33.75 121.90 33.75Q121.95 33.75 121.95 33.80Q121.95 33.90 121.77 34.10Q121.60 34.30 121.50 34.30Z"/></g></g></g></svg>