<svg xmlns="http://www.w3.org/2000/svg" viewBox="0 8.350000381469727 76.80357360839844 37.05000305175781" data-asc="0.85" width="76.80357360839844" height="37.05000305175781"><defs/><g><g fill="#ffffff"><g transform="translate(0, 0)"><path d="M4.95 45.40Q4.15 45.40 3.68 44.92Q3.20 44.45 3.00 44.45Q2.90 43.90 2.43 43.65Q1.95 43.40 1.60 43.10Q1.40 42.95 1.27 42.75Q1.15 42.55 1 42.35Q0.50 41.65 0.25 41.30Q0 40.95 0 40.05Q0 39.10 0.35 37.98Q0.70 36.85 1.10 36.05Q1.20 35.85 1.43 35.48Q1.65 35.10 1.70 34.95L1.75 34.95Q1.70 35.30 1.50 35.58Q1.30 35.85 1.30 36.20Q1.50 36.05 2.00 35.35Q2.50 34.65 2.55 34.45Q2.50 34.45 2.50 34.42Q2.50 34.40 2.50 34.40L2.40 34.40Q2.35 34.45 2.35 34.55Q2.35 34.65 2.25 34.75Q2.15 34.55 2.15 34.45Q2.15 34.10 2.40 33.83Q2.65 33.55 2.75 33.30L2.75 32.95Q3.15 32.70 3.40 32.13Q3.65 31.55 3.90 31.20Q4.05 31.05 4.25 30.98Q4.45 30.90 4.55 30.70Q4.70 30.45 4.78 30.17Q4.85 29.90 5.05 29.70Q5.25 29.55 5.55 29.50Q5.85 29.45 5.85 29.10L5.70 29.15L5.75 28.90Q6.55 28 7.28 27.05Q8 26.10 8.80 25.25Q9.05 25.05 9.25 24.90Q9.45 24.75 9.65 24.55Q10.15 24.10 10.65 23.63Q11.15 23.15 11.65 22.70Q12.55 21.85 13.45 20.92Q14.35 20 15.35 19.35Q15.60 19.15 15.88 19Q16.15 18.85 16.40 18.70Q17.40 18 18.40 17.35Q19.40 16.70 20.40 16.05Q21.10 15.65 21.85 15.32Q22.60 15 23.30 14.65Q24.10 14.25 24.95 13.92Q25.80 13.60 26.65 13.30Q27.35 13.05 28.33 12.70Q29.30 12.35 30.00 12.35Q30.60 12.35 31.00 12.55Q31.40 12.75 31.80 13.15Q32.20 13.50 32.93 14.05Q33.65 14.60 34.25 15.20Q34.85 15.80 34.85 16.35Q34.85 17 34.38 17.50Q33.90 18 33.35 18.30Q32.80 18.65 32.30 19.07Q31.80 19.50 31.15 19.85Q30.85 20.35 29.95 20.85Q29.05 21.35 28.50 21.35L28.50 21.45Q28.15 21.70 27.68 22.10Q27.20 22.50 26.80 22.60Q26.75 22.65 26.60 22.65Q26.55 22.70 26.45 22.82Q26.35 22.95 26.30 23L26.30 23.05Q26.05 23.10 25.85 23.22Q25.65 23.35 25.40 23.35Q25.25 23.60 24.95 23.60Q24.90 23.70 24.75 23.77Q24.60 23.85 24.55 24L24.50 24L24.35 23.95Q24.20 24.15 24.00 24.15Q23.80 24.15 23.55 24.25Q23.50 24.30 23.25 24.45Q23.00 24.60 22.90 24.60L22.85 24.60L22.90 24.50Q24.10 23.75 25.23 22.88Q26.35 22 27.50 21.20Q27.95 20.90 28.85 20.20Q29.75 19.50 30.75 18.65Q31.75 17.80 32.43 16.97Q33.10 16.15 33.10 15.65Q33.10 15.15 32.55 14.92Q32 14.70 31.60 14.70Q30.65 14.70 30.10 15.10Q29.55 15.50 29.00 15.50L28.95 15.65Q28.60 15.65 28.30 15.92Q28.00 16.20 27.60 16.20Q27.50 16.30 27.03 16.55Q26.55 16.80 26.05 17.05Q25.55 17.30 25.35 17.45Q24.45 17.95 23.55 18.45Q22.65 18.95 21.80 19.55Q21.60 19.65 21.40 19.82Q21.20 20 21.00 20.15L19.70 20.85Q19.65 20.85 19.20 21.20Q18.75 21.55 18.33 21.90Q17.90 22.25 17.90 22.25Q17.65 22.40 16.90 23Q16.15 23.60 15.18 24.45Q14.20 25.30 13.28 26.15Q12.35 27 11.72 27.65Q11.10 28.30 11.05 28.45Q10.55 28.70 10.10 29.35Q9.65 30 9.30 30.40Q7.25 33 5.60 35.33Q3.95 37.65 2.95 40.95Q2.85 41.30 2.75 41.67Q2.65 42.05 2.65 42.45Q2.65 43.30 3.10 43.48Q3.55 43.65 4.20 43.65Q5.70 43.65 7.38 43.20Q9.05 42.75 10.20 41.50Q11.05 41.05 11.70 40.77Q12.35 40.50 13.15 40.05Q13.45 39.85 13.78 39.42Q14.10 39 14.45 38.85Q14.75 38.70 14.78 38.75Q14.80 38.80 14.85 38.77Q14.90 38.75 15.25 38.55L15.25 38.45L15.35 38.55L15.45 38.55Q15.85 38.35 16.73 37.63Q17.60 36.90 18.40 36.25Q19.20 35.60 19.40 35.55Q19.50 35.45 19.70 35.30Q19.90 35.15 20.10 35.10Q20.60 34.85 21.13 34.10Q21.65 33.35 22.10 33.35Q22.25 33.35 22.25 33.60Q21.90 34.10 21.05 34.90Q20.20 35.70 19.28 36.50Q18.35 37.30 17.68 37.85Q17.00 38.40 17.00 38.45Q16.85 38.45 16.28 38.92Q15.70 39.40 14.95 40Q14.20 40.60 13.55 41.15Q12.90 41.70 12.65 41.85Q12.05 42.30 10.95 42.90Q9.85 43.50 8.57 44.08Q7.30 44.65 6.30 45.02Q5.30 45.40 4.95 45.40ZM29.05 44.70Q28.85 44.75 28.48 44.80Q28.10 44.85 27.65 44.85Q27.15 44.85 26.65 44.75Q26.15 44.65 25.95 44.45Q25.90 44.25 25.90 44.20Q25.90 44.15 25.80 43.95Q25.65 43.65 25.63 43.75Q25.60 43.85 25.50 43.55Q25.45 43.40 25.45 43Q25.45 42.40 25.53 41.67Q25.60 40.95 25.60 40.70Q25.60 40 25.78 39.45Q25.95 38.90 26.10 38.35Q26.35 37.30 26.80 36.35Q27.25 35.40 27.75 34.50Q28.15 33.80 28.60 33.08Q29.05 32.35 29.55 31.70L29.70 31.50Q29.40 31.55 29.23 31.77Q29.05 32 28.90 32.20Q28.50 32.70 28 33.10Q27.10 33.90 25.93 35.10Q24.75 36.30 23.60 37.60Q22.45 38.90 21.53 40.05Q20.60 41.20 20.20 41.90Q19.80 42.60 19.65 42.42Q19.50 42.25 19.35 42.30Q19.05 42.10 18.85 41.90Q18.65 41.70 18.65 41.45Q18.65 41.10 18.85 40.85Q19.35 40 20.03 39.05Q20.70 38.10 21.95 36.15Q22.60 35.15 23.13 34.20Q23.65 33.25 24.15 32.35Q24.70 31.70 24.75 31.42Q24.80 31.15 24.80 30.92Q24.80 30.70 25.15 30.25Q25.25 30.15 25.45 29.65Q25.65 29.15 25.70 29.10Q25.95 28.70 26.18 28.27Q26.40 27.85 26.65 27.45Q27.15 26.70 27.43 26.18Q27.70 25.65 28.25 24.95Q28.40 24.80 28.80 24.07Q29.20 23.35 29.63 22.63Q30.05 21.90 30.10 21.90Q30.15 21.65 30.43 21.35Q30.70 21.05 30.85 20.85Q31.15 20.45 31.40 20.02Q31.65 19.60 31.95 19.20Q32.20 18.80 32.48 18.50Q32.75 18.20 33 17.85Q33.65 16.95 34.20 16.32Q34.75 15.70 35.50 14.90Q35.70 14.70 36.08 14.30Q36.45 13.90 36.70 13.80L38.20 13.20Q38.45 13.05 38.30 12.85Q38.15 12.65 38.35 12.50Q38.65 12.25 38.98 12.05Q39.30 11.85 39.65 11.65Q39.90 11.50 40.15 11.30Q40.40 11.10 40.75 11.05Q40.90 10.90 41.58 10.55Q42.25 10.20 42.45 10.15L44.10 9.25Q44.30 9.15 44.50 9.13Q44.70 9.10 44.85 9L45.95 8.85L46.15 8.80Q46.25 8.65 46.75 8.57Q47.25 8.50 47.78 8.45Q48.30 8.40 48.50 8.40L48.95 8.40Q49 8.35 49.15 8.35Q49.80 8.35 50.33 8.40Q50.85 8.45 51.35 8.60Q51.55 8.65 51.75 8.67Q51.95 8.70 52.15 8.80Q52.35 8.95 52.95 9.25Q53.55 9.55 53.60 9.75L53.45 9.95L53.20 9.70Q52.90 9.55 52.60 9.32Q52.30 9.10 51.95 9.05Q51.75 8.95 51.58 8.95Q51.40 8.95 51.20 8.95Q50.55 8.95 49.93 9.10Q49.30 9.25 48.70 9.35L47.80 9.45L47 9.90L46.80 9.85Q46.75 9.95 46.23 10.05Q45.70 10.15 45.75 10.30Q45.55 10.30 45.55 10.25Q45.05 10.60 44.73 10.95Q44.40 11.30 43.80 11.65Q43.50 11.80 42.88 11.95Q42.25 12.10 41.85 12.20Q41.65 12.65 40.95 12.92Q40.25 13.20 39.85 13.50Q38.45 14.60 37.10 15.70Q35.75 16.80 34.45 17.95L33.80 18.80Q31.80 20.80 30.15 23.32Q28.50 25.85 27.80 27.75L27.65 28.15Q27.60 28.30 27.43 28.42Q27.25 28.55 27.15 28.70L27.10 29.05Q26.25 30.60 25.88 31.38Q25.50 32.15 25.38 32.48Q25.25 32.80 25.10 33L24.45 34L23.60 35.55L23.20 36.10L22.85 36.85L22.50 37.20L22.30 37.80Q22.25 38 21.95 38.45Q21.65 38.90 21.40 39.30Q21.60 39.15 21.73 38.95Q21.85 38.75 22.10 38.55L22.85 37.75L23.25 37.15Q23.70 36.45 24.33 35.90Q24.95 35.35 25.50 34.70Q25.55 34.65 25.93 34.27Q26.30 33.90 26.35 33.90Q26.45 33.55 26.88 33.23Q27.30 32.90 27.50 32.70L28.70 31.45L28.75 31.40L28.80 31.45L28.80 31.40Q28.90 31.15 29.23 30.92Q29.55 30.70 29.75 30.50Q30 30.25 30.60 29.52Q31.20 28.80 32 28.80Q32.40 28.80 32.75 29Q32.90 29.05 33.28 29.40Q33.65 29.75 33.93 30.05Q34.20 30.35 34.05 30.45Q33.85 30.65 33.70 30.70Q33.50 30.85 33.05 31.30Q32.60 31.75 32.35 31.70Q32.35 31.70 32.13 32.05Q31.90 32.40 30.90 33.65Q30.80 33.55 30.40 34.20Q30 34.85 29.90 35.10Q29.65 35.65 29.33 36.02Q29 36.40 28.70 36.90L28.70 36.95Q28.70 37.15 28.60 37.23Q28.50 37.30 28.40 37.40L28.40 37.75Q28.40 37.90 28.15 38.38Q27.90 38.85 27.75 39.40Q27.80 39.55 27.80 39.85Q27.80 40.40 27.43 40.77Q27.05 41.15 27.10 41.85Q27.15 42.05 27.10 42.98Q27.05 43.90 27.55 44.35Q27.70 44.50 27.95 44.50Q28.40 44.50 29.03 44.17Q29.65 43.85 29.85 43.75L30.15 43.55Q30.15 43.60 30.10 43.60Q30.05 43.70 29.83 43.98Q29.60 44.25 29.65 44.35Q29.50 44.35 29.50 44.35L29.05 44.70ZM45.20 25Q45.20 25 44.65 24.90Q44.10 24.80 43.50 24.45Q43.35 24.30 43.03 24.10Q42.70 23.90 42.90 23.65Q43 23.50 43.15 23.50Q43.30 23.30 43.48 23.15Q43.65 23 43.75 22.80Q44.70 21.60 45.78 20.57Q46.85 19.55 48 18.60Q48.40 18.25 48.75 17.90Q49.10 17.55 49.55 17.35Q50.10 17.10 50.25 17.25Q50.40 17.40 50.40 17.40Q50.40 17.45 50.35 17.45Q50.25 17.75 50.15 17.95Q49.95 18.20 49.65 18.42Q49.35 18.65 49.25 18.95Q49.25 19.10 49.20 19.10Q49 19.30 48.48 19.80Q47.95 20.30 47.95 20.55Q47.80 20.55 47.80 20.60L47.75 20.60Q47.70 20.95 47.45 21.15Q47.20 21.35 46.95 21.60Q46.75 21.80 46.65 22.07Q46.55 22.35 46.40 22.60Q46.25 22.80 46.08 22.92Q45.90 23.05 45.80 23.25Q45.60 23.60 45.70 24.02Q45.80 24.45 45.70 24.85Q45.65 25 45.43 25.02Q45.20 25.05 45.20 25M31.75 43.55Q30.45 43.05 30.60 41.55L30.80 41.15Q31.05 40.75 31.20 40.35Q31.35 39.95 31.55 39.60Q32.60 37.80 33.68 36.02Q34.75 34.25 35.95 32.55Q36 32.50 36.03 32.42Q36.05 32.35 36.10 32.35L36.10 32.25Q36.35 32.05 36.80 31.38Q37.25 30.70 37.78 29.92Q38.30 29.15 38.65 28.75Q38.30 29 37.93 29.30Q37.55 29.60 37.25 30Q37.10 30.20 36.53 30.82Q35.95 31.45 35.25 32.23Q34.55 33 34 33.63Q33.45 34.25 33.30 34.45Q32.70 35.10 32.45 35.10Q32.35 35.10 32.35 35Q32.35 34.80 32.70 34.35L34.30 32.55Q34.65 32.15 34.98 31.82Q35.30 31.50 35.60 31.15Q35.85 30.90 36.08 30.60Q36.30 30.30 36.55 30.05L37.35 29.20Q37.60 28.95 37.83 28.63Q38.05 28.30 38.30 28.05Q39.80 26.50 40.40 26.10Q41 25.70 41.35 25.95Q41.45 25.85 41.60 25.85Q41.75 25.85 41.90 25.93Q42.05 26 42.15 26.05Q42.35 26.15 42.75 26.43Q43.15 26.70 43.40 27.02Q43.65 27.35 43.35 27.65Q43.05 28 42.65 28.15Q42.25 28.30 41.90 28.65Q41.65 28.85 41.38 29.10Q41.10 29.35 40.95 29.65L40.90 29.70Q40.95 30.25 40.20 30.82Q39.45 31.40 39.05 31.80Q38.90 31.95 38.80 32.30L38.75 32.30L38.50 32.35Q38.40 32.70 38.08 32.92Q37.75 33.15 37.75 33.55Q37.45 33.65 37.23 34.20Q37 34.75 36.75 34.75L36.75 34.90Q36.75 35.15 36.45 35.48Q36.15 35.80 35.95 35.80Q35.95 35.85 35.95 35.95Q35.95 36.05 35.90 36.05Q35.70 36.20 35.70 36.60L35.55 36.60L35.55 36.65L35.65 36.90L35.35 36.95Q35.30 37.15 35 37.63Q34.70 38.10 34.45 38.10L34.45 38.15L34.40 38.15L34.65 38.40L34.60 38.40L34.60 38.45L34.55 38.45Q34.35 38.35 34.25 38.35L34.25 38.40Q34.35 38.60 34.35 38.70Q34.35 39 34 39Q34 39.05 34 39.05L34.10 39.15L34.10 39.20Q33.75 39.25 33.75 39.75L33.65 39.75L33.55 39.70Q33.45 40.05 33.33 40.42Q33.20 40.80 33.05 41.15Q33 41.40 32.88 41.63Q32.75 41.85 32.75 42.15L32.80 42.15L32.80 42.10Q33.35 41.70 34.10 41.27Q34.85 40.85 35.35 40.35L39.25 36.65L40.75 35.20Q40.85 35.10 41.15 34.85Q41.45 34.60 41.65 34.50Q41.75 34.45 41.95 34.52Q42.15 34.60 42.05 34.70L40.65 35.90Q40 36.40 39.75 36.90Q39.50 37.40 38.85 37.95Q38.40 38.35 38 38.80Q37.60 39.25 37.15 39.65L35.80 40.85Q35.35 41.25 34.93 41.75Q34.50 42.25 34 42.65L33.35 43.20Q33.15 43.35 32.83 43.50Q32.50 43.65 32.20 43.65Q32.05 43.65 31.75 43.55M42.25 34.30Q42.15 34.30 42.15 34.10Q42.15 33.90 42.25 33.90Q42.35 33.90 42.48 33.83Q42.60 33.75 42.65 33.75Q42.70 33.75 42.70 33.80Q42.70 33.90 42.53 34.10Q42.35 34.30 42.25 34.30ZM41.30 44.85Q40.95 44.75 40.50 44.58Q40.05 44.40 39.90 43.95Q39.85 43.85 39.85 43.55Q39.85 43.15 40.05 42.85Q40.25 42.55 40.40 42.25Q40.90 41.40 41.48 40.60Q42.05 39.80 42.65 39Q43.05 38.45 43.45 37.85Q43.85 37.25 44.25 36.75Q44.25 36.75 44.40 36.55Q44.55 36.35 45.20 35.60L45.15 35.60Q45.15 35.40 45.20 35.40Q45.35 35.25 45.35 35Q45.50 34.90 45.73 34.55Q45.95 34.20 46.05 34.20L45.95 34.05Q46.25 33.80 46.55 33.27Q46.85 32.75 47.05 32.40Q47.60 31.70 48.18 31.07Q48.75 30.45 49.10 29.65L49.15 29.55L49.10 29.55Q48.90 29.70 48.60 29.70Q48.35 29.70 48.08 29.55Q47.80 29.40 47.55 29.25L47.20 29.05Q46.95 29.35 46.65 29.63Q46.35 29.90 46.05 30.25L43.25 33.45L42.15 34.60Q41.90 34.85 41.70 34.85Q41.50 34.85 41.50 34.70Q41.50 34.50 41.90 34.10Q42.45 33.55 43 33.02Q43.55 32.50 44.05 31.95Q44.45 31.45 44.85 30.98Q45.25 30.50 45.60 30Q45.90 29.60 46.25 29.23Q46.60 28.85 46.80 28.40L46.80 28.35Q46.80 28.25 46.73 28.13Q46.65 28 46.65 27.85Q46.65 27.55 46.75 27.17Q46.85 26.80 46.95 26.55Q47.50 25.50 48.28 24.60Q49.05 23.70 49.85 22.80Q50.15 22.45 50.50 22.10Q50.85 21.75 51.20 21.50L51.85 21.05L52.35 20.80Q52.70 20.85 53.33 21.30Q53.95 21.75 53.85 22.15Q53.85 22.40 53.38 22.88Q52.90 23.35 52.70 23.60L51.95 24.50L51.55 24.80L50.95 25.45Q50.80 25.65 50.63 25.80Q50.45 25.95 50.30 26.10Q50.20 26.30 50 26.30Q49.80 26.65 49.08 27.13Q48.35 27.60 48.35 28Q48.30 28.05 48.15 28.45Q48 28.85 48.35 28.85L48.35 28.80L48.40 28.80Q48.50 28.80 48.85 28.67Q49.20 28.55 49.20 28.50L49.35 28.50Q49.50 28.35 49.68 28.30Q49.85 28.25 50 28.20Q50.20 28.10 50.33 28Q50.45 27.90 50.65 27.85Q50.80 27.80 51.10 27.80Q51.70 27.80 52.23 28.17Q52.75 28.55 53 29.05L53.05 29.15Q53.05 29.30 52.90 29.40L52.25 29.75L51.85 30.05L51.55 30.15L50.85 30.80L50.80 30.85Q50.65 30.85 50.65 30.95Q50.45 31.25 50.25 31.25L50.20 31.25L50.20 31.50Q50.15 31.55 50.05 31.67Q49.95 31.80 49.85 31.80Q49.70 31.80 49.70 31.85L49.65 31.85L49.70 32Q49.35 32.10 49.15 32.30Q49 32.45 48.95 32.60Q48.90 32.75 48.80 32.85Q48.65 33.05 48.30 33.40Q47.95 33.75 47.90 33.95Q47.90 34 47.85 34L47.85 34.05L47.50 34.25Q47.50 34.45 47.15 34.83Q46.80 35.20 46.48 35.52Q46.15 35.85 46.15 36L46.20 36.15L46.15 36.15Q45.95 36.30 45.55 36.80Q45.15 37.30 45.15 37.55L45.10 37.55Q45.10 37.55 44.93 37.63Q44.75 37.70 44.50 38.30Q44.35 38.40 43.93 38.95Q43.50 39.50 43.50 39.70Q43.50 39.75 43.45 39.75Q43.20 40.10 42.98 40.75Q42.75 41.40 42.95 41.40Q43.80 40.85 44.65 40.10Q45.35 39.40 46.13 38.70Q46.90 38 47.60 37.30Q48.10 36.75 48.68 36.13Q49.25 35.50 49.75 35L50.70 34.10Q50.85 33.95 50.90 33.95Q51 33.95 50.75 34.35Q50.50 34.75 50.40 34.85Q50.05 35.20 49.73 35.67Q49.40 36.15 49.15 36.40Q48.70 36.85 48.33 37.38Q47.95 37.90 47.50 38.35Q47.35 38.55 47.15 38.70Q46.95 38.85 46.75 39.05Q46.40 39.40 46.08 39.88Q45.75 40.35 45.45 40.75Q45.35 40.90 45.10 41.23Q44.85 41.55 44.85 41.70L44.80 41.75L44.25 42.50Q44.05 42.75 43.93 42.73Q43.80 42.70 43.65 42.95L43.40 43.20Q42.80 44.25 41.75 44.70Q41.70 44.70 41.50 44.73Q41.30 44.75 41.30 44.85M51.10 34Q50.95 34 50.95 33.80Q50.95 33.60 51.10 33.60Q51.15 33.60 51.28 33.52Q51.40 33.45 51.45 33.45Q51.50 33.45 51.50 33.50Q51.50 33.60 51.33 33.80Q51.15 34 51.10 34ZM64.05 33.95Q64.20 33.95 64.10 34.17Q64 34.40 64 34.50L62.35 36.55Q61.95 37.05 61.45 37.38Q60.95 37.70 60.50 38.15Q60.35 38.35 60.00 38.50Q59.65 38.65 59.45 38.85Q59.25 39.05 58.48 39.17Q57.70 39.30 57.40 39.30Q57.35 39.30 57.25 39.20L57.05 39.50Q56.55 40.30 55.88 40.95Q55.20 41.60 54.50 42.15Q54.15 42.45 53.78 42.73Q53.40 43 53.00 43.20Q52.60 43.40 51.95 43.40Q51.25 43.40 50.60 43.15Q49.65 42.80 49.15 41.95Q48.95 41.60 48.78 41.20Q48.60 40.80 48.60 40.30Q48.60 39.75 48.75 39.33Q48.90 38.90 49.05 38.50Q49.95 36.30 51.50 34.35Q51.60 34.25 51.78 33.95Q51.95 33.65 52.15 33.35Q51.90 33.55 51.58 33.83Q51.25 34.10 51.00 34.35Q50.70 34.70 50.53 34.85Q50.35 35 49.95 35.50Q49.85 35.70 49.40 36.02Q48.95 36.35 48.85 36.35Q48.70 36.35 48.78 36.08Q48.85 35.80 49.65 35Q49.80 34.90 49.90 34.75Q50.00 34.60 50.10 34.45L51.60 32.70L53.20 31.25Q53.45 31 53.98 30.42Q54.50 29.85 55.45 29.10Q55.70 28.90 56.23 28.32Q56.75 27.75 56.95 27.55Q57.20 27.30 57.45 27.40L57.65 27.15Q57.95 26.75 58.25 26.77Q58.55 26.80 58.90 26.50L59.35 26.15L59.40 26.15L59.40 26.10Q59.65 26 59.78 25.82Q59.90 25.65 60.20 25.65Q60.60 25.65 61.20 26.10Q61.80 26.55 62.30 27.07Q62.80 27.60 62.90 28Q62.90 28.10 62.90 28.15Q62.90 28.20 62.95 28.30Q63.20 28.55 63.20 29.20Q63.20 29.95 62.90 30.82Q62.60 31.70 62.28 32.42Q61.95 33.15 61.75 33.45Q61.75 33.45 61.68 33.27Q61.60 33.10 61.45 33.35L61.20 33.70L61.25 34.10L61.15 34.45L61.10 34.45Q60.95 34.75 60.53 35.30Q60.10 35.85 59.50 36.60Q59.20 36.95 58.85 37.40Q58.50 37.85 58.20 38.25L58.35 38.25Q58.85 38.25 59.48 37.90Q60.10 37.55 60.50 37.25Q61.20 36.85 61.78 36.23Q62.35 35.60 63.00 34.90Q63.20 34.65 63.35 34.48Q63.50 34.30 63.70 34.10Q63.85 33.95 64.05 33.95M55.85 37.30Q56.40 36.90 57.35 36.08Q58.30 35.25 59.65 33.40Q59.85 33.15 60.30 32.38Q60.75 31.60 60.85 31.35Q61.10 30.80 61.33 30.17Q61.55 29.55 61.55 28.90Q61.55 28.20 61.50 27.88Q61.45 27.55 61.10 27.55Q60.70 27.55 59.85 28.05L59.45 28.45Q58.15 29.25 56.85 30.30Q56.80 30.35 56.73 30.38Q56.65 30.40 56.65 30.50Q56.55 30.50 56.15 30.95Q55.75 31.40 55.40 31.85Q55.05 32.30 55.05 32.35Q54.95 32.55 54.63 32.70Q54.30 32.85 54.35 33.20L54.00 33.20L54.10 33.60L53.85 33.60L53.85 33.65Q53.85 34 53.50 34.10Q53.40 34.20 53.40 34.10Q53.35 34.25 53.28 34.27Q53.20 34.30 53.10 34.40L52.80 35L52.55 35.65Q52.50 35.65 52.18 35.90Q51.85 36.15 51.85 36.20L51.90 36.45Q51.55 36.50 51.50 36.75Q51.45 37 51.35 37.25L51.35 37.60L50.70 38.85L50.40 39.35Q50.35 39.40 50.30 39.55Q50.25 39.70 50.30 39.70L50.30 39.75L50.40 39.75L50.45 39.35Q50.55 39.55 50.60 39.98Q50.65 40.40 50.60 40.65Q50.55 40.85 50.48 41.13Q50.40 41.40 50.40 41.65L50.40 42.05Q50.40 42.40 50.85 42.50Q51.30 42.60 51.55 42.55Q51.65 42.50 52.13 42.25Q52.60 42 53.03 41.73Q53.45 41.45 53.40 41.35L53.45 41.40L53.60 41.40Q53.70 41.15 54.05 40.95Q54.40 40.75 54.60 40.55Q54.95 40.25 55.33 39.92Q55.70 39.60 55.95 39.25L56.45 38.55Q55.75 38.40 55.75 37.80Q55.75 37.60 55.85 37.30ZM60.45 44.20Q60.05 43.90 60.05 43.25Q60.05 42.95 60.10 42.80Q60.20 42.55 60.28 42.38Q60.35 42.20 60.40 42L60.55 41.75L61.00 40.85Q61.25 40.30 61.65 39.75Q62.05 39.20 62.40 38.70Q62.40 38.65 62.50 38.52Q62.60 38.40 62.60 38.40L63.35 37.30Q63.55 37.05 63.78 36.80Q64 36.55 64.05 36.25L64.10 36.20Q64.25 36.10 64.48 35.77Q64.70 35.45 64.80 35.25Q65.35 34.55 65.88 33.85Q66.40 33.15 66.90 32.45L67 32.30L64.30 34.50Q63.85 34.85 63.40 35.33Q62.95 35.80 62.45 36.25Q62.10 36.55 61.95 36.55Q61.85 36.55 61.85 36.40Q61.85 36.10 62.30 35.75Q62.65 35.50 62.85 35.23Q63.05 34.95 63.40 34.65Q63.65 34.45 64.03 33.95Q64.40 33.45 64.65 33.25Q65 33 65.53 32.38Q66.05 31.75 66.35 31.45Q67.65 30.25 68.10 29.60Q68.55 28.95 69.05 28.45L70.80 26.45Q70.95 26.30 71.15 26L71.55 25.75Q71.85 25.80 72.38 26.20Q72.90 26.60 72.60 27.20Q72.60 27.25 72.20 27.63Q71.80 28 71.40 28.40Q71 28.80 70.90 28.85Q70.80 28.85 70.80 28.90Q69.95 29.90 69.65 30.10Q69.35 30.30 69.33 30.35Q69.30 30.40 69.10 31Q68.95 31.10 68.83 31.27Q68.70 31.45 68.60 31.65L68.45 31.65Q68.40 31.85 68.28 31.98Q68.15 32.10 68.05 32.25L67.80 32.65L67.40 33.05L67.05 33.55Q66.95 33.70 66.88 33.85Q66.80 34 66.70 34.15Q66.50 34.40 66.28 34.67Q66.05 34.95 65.85 35.25Q65.70 35.45 65.50 35.58Q65.30 35.70 65.20 36Q65.15 36.10 65.05 36.42Q64.95 36.75 64.85 36.75Q64.85 37.15 64.58 37.35Q64.30 37.55 64.05 37.85L63.60 38.70L63.40 39.10L62.90 39.75L62.45 40.60Q62.20 41.10 61.78 41.60Q61.35 42.10 61.25 42.65Q61.20 42.65 61.03 43.05Q60.85 43.45 60.68 43.83Q60.50 44.20 60.45 44.20M71.80 44.70Q71.60 44.75 71.20 44.80Q70.80 44.85 70.35 44.85Q69.85 44.85 69.38 44.75Q68.90 44.65 68.70 44.45Q68.60 44.25 68.63 44.20Q68.65 44.15 68.55 43.95Q68.35 43.65 68.33 43.75Q68.30 43.85 68.20 43.55Q68.15 43.40 68.15 43Q68.15 42.40 68.23 41.67Q68.30 40.95 68.30 40.70Q68.30 40.05 68.48 39.48Q68.65 38.90 68.80 38.35Q69.05 37.30 69.50 36.35Q69.95 35.40 70.45 34.50Q70.85 33.80 71.30 33.08Q71.75 32.35 72.30 31.70L72.40 31.50Q72.15 31.55 71.95 31.77Q71.75 32 71.60 32.20Q71.45 32.40 71.20 32.65Q70.95 32.90 70.70 33.10Q68.90 34.75 66.98 36.88Q65.05 39 63.45 40.70Q62.25 41.90 61.95 41.90Q61.75 41.90 62.13 41.35Q62.50 40.80 63.35 40.15Q63.35 40.15 63.63 39.83Q63.90 39.50 63.90 39.45Q64.20 39.30 64.33 39.02Q64.45 38.75 64.80 38.55L65.55 37.75L65.95 37.15Q66.40 36.45 67.03 35.90Q67.65 35.35 68.20 34.70Q68.25 34.65 68.63 34.27Q69 33.90 69.05 33.90Q69.15 33.55 69.58 33.23Q70 32.90 70.20 32.70L71.40 31.45L71.45 31.40L71.55 31.45L71.50 31.40Q71.60 31.15 71.93 30.92Q72.25 30.70 72.45 30.50Q72.70 30.25 73.30 29.52Q73.90 28.80 74.70 28.80Q75.10 28.80 75.45 29Q75.60 29.05 75.98 29.40Q76.35 29.75 76.63 30.05Q76.90 30.35 76.75 30.45Q76.55 30.65 76.45 30.70Q76.25 30.85 75.78 31.30Q75.30 31.75 75.05 31.70Q75.05 31.70 74.83 32.05Q74.60 32.40 73.60 33.65Q73.50 33.55 73.13 34.20Q72.75 34.85 72.60 35.10Q72.35 35.65 72.03 36.02Q71.70 36.40 71.40 36.90L71.40 37Q71.40 37.15 71.30 37.23Q71.20 37.30 71.10 37.40L71.10 37.75Q71.10 37.90 70.88 38.38Q70.65 38.85 70.50 39.40Q70.65 39.95 70.45 40.30Q70.25 40.65 70.03 40.98Q69.80 41.30 69.85 41.85Q69.85 41.95 69.83 42.20Q69.80 42.45 69.80 42.80Q69.80 43.20 69.90 43.65Q70 44.10 70.25 44.35Q70.40 44.50 70.65 44.50Q71.15 44.50 71.75 44.17Q72.35 43.85 72.55 43.75L72.85 43.55Q72.85 43.60 72.85 43.60Q72.80 43.70 72.55 43.98Q72.30 44.25 72.35 44.35Q72.20 44.35 72.20 44.35L71.80 44.70Z"/></g></g></g></svg>