<svg xmlns="http://www.w3.org/2000/svg" viewBox="0 9.600000381469727 80.94000244140625 41.900001525878906" data-asc="0.85" width="80.94000244140625" height="41.900001525878906"><defs/><g><g fill="#ffffff"><g transform="translate(0, 0)"><path d="M1.80 51.50Q1.55 51.40 0.85 51.35Q0.15 51.30 0 51.15L0.10 50.90L0.45 51Q0.80 51.05 1.13 51.13Q1.45 51.20 1.80 51.20Q2.80 51.20 3.70 50.63Q4.60 50.05 5.45 49.55Q5.70 49.40 5.95 49.27Q6.20 49.15 6.40 49.05L7.20 48.25L7.40 48.25Q7.50 48.05 8.03 47.75Q8.55 47.45 8.45 47.35Q8.55 47.35 8.60 47.30Q8.65 47.25 8.70 47.30Q9.20 46.70 9.43 46.48Q9.65 46.25 10.20 45.70Q10.50 45.40 11.20 44.70Q11.90 44 12.25 43.75Q12.40 43.25 12.97 42.90Q13.55 42.55 14 42Q13.85 41.85 14.18 41.45Q14.50 41.05 14.90 40.70Q15.30 40.35 15.25 40.35L15.50 39.90Q15.60 39.75 16.03 39.23Q16.45 38.70 16.90 38.20Q17.35 37.70 17.35 37.70Q17.45 37.50 17.73 37.17Q18 36.85 17.95 36.70Q18.35 36.40 18.90 35.70Q19.45 35 19.75 34.65Q20.30 33.90 20.65 33.20Q21.00 32.50 21.60 31.80Q23.40 29.65 25.18 27.40Q26.95 25.15 28.95 23.25Q29.65 22.55 30.15 21.85Q30.65 21.15 31.45 20.55Q31.60 20.45 32.05 19.95Q32.50 19.45 32.93 19Q33.35 18.55 33.45 18.55Q33.55 18.30 33.95 18.05Q34.35 17.80 34.55 17.60Q34.95 17.25 35.35 16.85Q35.75 16.45 36.15 16.10Q36.35 15.90 36.70 15.70Q36.35 15.40 36.30 15.45L35.50 15.20Q34.95 15 34.18 14.50Q33.40 14 33.15 13.95L33.10 13.70Q32.95 13.80 32.70 13.70L32.70 13.65L32.60 13.90Q32.15 13.80 32 13.50Q31.85 13.20 31.40 13.20Q30.75 13.20 30.15 13.05Q29.55 12.90 28.95 12.90Q28.70 12.90 28.43 12.82Q28.15 12.75 27.90 12.70Q27.75 12.85 27.40 12.85Q27.20 12.85 27.05 12.82Q26.90 12.80 26.70 12.75L26.60 12.95L26.45 12.95Q26.35 12.95 25.83 12.97Q25.30 13 24.85 13.05Q24.40 13.10 24.35 13.25Q24.15 13.25 23.90 13.27Q23.65 13.30 23.40 13.25Q23.15 13.55 22.18 13.70Q21.20 13.85 20.30 13.97Q19.40 14.10 19.35 14.35Q16.70 14.80 14.10 16.13Q11.50 17.45 9.38 19.45Q7.25 21.45 5.97 24Q4.70 26.55 4.70 29.45Q4.70 30.10 4.93 30.80Q5.15 31.50 5.15 31.85Q5.15 31.95 5.05 31.95Q4.80 31.85 4.72 31.55Q4.65 31.25 4.35 31.25L4.20 31.35Q3.70 31.05 3.60 30.42Q3.50 29.80 3.50 29.30Q3.50 27.45 4.20 25.57Q4.90 23.70 6 21.97Q7.10 20.25 8.35 19Q8.90 18.45 9.55 17.97Q10.20 17.50 10.85 17Q10.90 16.95 11.33 16.67Q11.75 16.40 12.18 16.13Q12.60 15.85 12.60 15.80Q13.15 15.60 14.15 14.88Q15.15 14.15 16.18 13.50Q17.20 12.85 17.90 12.95L17.95 12.90Q18.20 12.65 19.20 12.30Q20.20 11.95 21.45 11.65Q22.70 11.35 23.80 11.15Q24.90 10.95 25.35 11L27.75 10.80Q28.00 10.65 28.65 10.63Q29.30 10.60 29.55 10.65Q29.70 10.60 29.85 10.57Q30.00 10.55 30.20 10.55Q30.45 10.55 30.70 10.57Q30.95 10.60 31.15 10.65Q31.25 10.60 31.45 10.60Q31.70 10.60 32.05 10.67Q32.40 10.75 32.60 10.80Q32.75 10.65 32.95 10.65Q33.20 10.65 33.40 10.92Q33.60 11.20 34.10 11.20Q34.40 11.20 34.68 11.30Q34.95 11.40 35.25 11.45L38 12.30L40 13.30Q40.40 12.95 41.35 12.60Q41.50 12.50 42.15 12.35Q42.80 12.20 43.48 12.05Q44.15 11.90 44.30 11.90L45.30 11.30Q45.55 11.20 45.85 11.13Q46.15 11.05 46.40 10.95Q46.80 10.80 47.18 10.65Q47.55 10.50 47.95 10.40Q48.30 10.30 48.63 10.15Q48.95 10 49.30 10.05Q49.95 9.60 50.35 9.60Q50.60 9.60 50.90 9.70Q51.20 9.80 51.70 9.80L51.90 9.80Q52.00 9.75 52.40 9.75Q52.95 9.75 53.60 9.82Q54.25 9.90 54.50 10L54.95 10.15L54.95 10.10Q55.15 10.10 55.30 10.17Q55.45 10.25 55.60 10.30Q56.10 10.45 56.55 10.60Q57.00 10.75 57.45 11L58.25 11.45Q58.40 11.65 58.95 12.13Q59.50 12.60 59.55 12.85L59.30 13.05L59.10 12.70Q58.85 12.45 58.60 12.15Q58.35 11.85 57.95 11.65Q57.20 11.15 56.28 11.15Q55.35 11.15 54.45 11.10L53.45 10.95L52.50 11.20L52.35 11.10Q52.20 11.20 51.63 11.17Q51.05 11.15 51.05 11.30Q51.00 11.25 50.95 11.22Q50.90 11.20 50.85 11.15Q50.05 11.50 49.75 11.63Q49.45 11.75 49.28 11.80Q49.10 11.85 48.80 11.95Q48.50 12.05 47.70 12.45Q46.75 12.85 45.80 13.30Q44.85 13.75 43.90 14.20Q43.25 14.40 42.83 14.70Q42.40 15 41.85 15.25Q41.95 15.65 42.30 16.07Q42.65 16.50 42.85 16.65Q42.95 16.75 43.03 16.90Q43.10 17.05 43.20 17.20Q43.45 17.65 43.63 17.88Q43.80 18.10 43.70 18.95Q43.65 19.65 44.25 20.13Q44.85 20.60 44.85 21.30Q44.85 21.40 44.75 21.70Q44.60 22.15 44.60 22.55Q44.60 23.20 44.90 23.75Q45.20 24.30 45.20 25.25Q45.15 25.35 45.15 25.45Q45.15 25.70 45.35 25.93Q45.55 26.15 45.35 26.45Q45.30 26.65 45.15 26.75Q45.00 26.85 44.90 27.05Q44.85 27.15 44.85 27.50Q44.85 27.70 44.88 27.90Q44.90 28.10 44.90 28.30Q44.90 28.70 44.75 28.95Q43.90 30.20 43.43 31.75Q42.95 33.30 42.55 33.85Q42.40 34.05 42.25 34.20Q42.10 34.35 42.00 34.55Q41.65 34.95 41.68 35.50Q41.70 36.05 41.35 36.45Q40.75 37.20 40.18 38.05Q39.60 38.90 38.90 39.55L38.25 40.15Q37.60 40.75 36.95 41.38Q36.30 42 35.60 42.65Q35.15 43 34.65 43.30Q34.15 43.60 33.70 43.95Q32.95 44.55 31.30 45.27Q29.65 46 27.75 46.52Q25.85 47.05 24.30 47.05Q22.95 47.05 22.25 46.55Q21.15 45.80 20.90 45.17Q20.65 44.55 20.70 43.80Q20.70 43.20 21.00 42.70Q21.30 42.20 21.65 41.90Q22.05 41.55 22.38 41.15Q22.70 40.75 23.10 40.45Q23.35 40.05 23.40 39.77Q23.45 39.50 23.80 39.50L23.80 39.40Q24.05 39.15 24.35 38.80Q24.65 38.45 24.90 38.30Q24.95 38.30 24.98 38.27Q25.00 38.25 25.05 38.25Q25.10 38.20 25.15 38.10Q25.20 38 25.25 37.95L25.25 37.90Q25.40 37.85 25.53 37.75Q25.65 37.65 25.80 37.60Q25.90 37.50 25.98 37.42Q26.05 37.35 26.10 37.35Q26.15 37.30 26.28 37.15Q26.40 37 26.40 37L26.70 36.90Q26.80 36.70 26.83 36.75Q26.85 36.80 27.00 36.75Q28.30 35.85 31.18 34.10Q34.05 32.35 38 30.95L38.40 31.05Q36.65 31.85 34.83 32.98Q33 34.10 31.38 35.23Q29.75 36.35 28.63 37.25Q27.50 38.15 27.10 38.55Q26.70 38.90 25.83 39.90Q24.95 40.90 24.20 42.05Q23.45 43.20 23.40 43.95Q23.35 45.05 23.90 45.48Q24.45 45.90 25.40 45.90Q26.75 45.90 28.45 45.27Q30.15 44.65 31.65 43.85Q33.15 43.05 33.80 42.50Q34.40 42 35.02 41.55Q35.65 41.10 36.15 40.55L36.70 39.95Q36.90 39.80 37.08 39.33Q37.25 38.85 37.45 38.65Q37.50 38.60 37.75 38.25Q38 37.90 38.25 37.52Q38.50 37.15 38.50 37.15Q38.80 36.90 39.48 35.83Q40.15 34.75 40.83 33.27Q41.50 31.80 41.80 30.40Q41.90 30.20 41.90 29.70Q41.90 28.90 41.80 27.77Q41.70 26.65 41.75 26.30Q41.90 25.65 41.95 25.15Q42.00 24.65 42.00 24.25Q42.00 23.35 41.75 22.65Q41.50 21.95 41.08 21.07Q40.65 20.20 40.10 18.80Q40.05 18.55 39.88 18.25Q39.70 17.95 39.40 17.75L39.15 17.55Q39.10 17.65 39 17.77Q38.90 17.90 38.70 18L37.95 18.80Q37.80 18.85 37.55 18.85L37.10 19.35L37.05 19.50L36.75 19.45L36 20.10L35.65 20.65Q35.30 21 34.95 21.35Q34.60 21.70 34.20 22.10Q34 22.30 33.77 22.47Q33.55 22.65 33.40 22.90L33.40 23L33.35 23Q33.35 22.95 33.25 22.90Q33.15 22.85 33.20 22.90Q32.60 23.85 31.80 24.60L31.55 24.95Q31.40 25.05 31.18 25.15Q30.95 25.25 30.85 25.40L30.70 25.75L29.95 26.55L29.65 27.10L29.00 27.65L27.70 29.30L26.90 30.20L25.85 31.60L25.40 32.10L24.95 32.80L24.55 33.15L24.30 33.70Q24.10 33.90 23.95 34.13Q23.80 34.35 23.65 34.60Q23.50 34.80 23.08 35.38Q22.65 35.95 22.15 36.63Q21.65 37.30 21.23 37.80Q20.80 38.30 20.70 38.30Q20.70 38.35 20.18 38.95Q19.65 39.55 18.98 40.33Q18.30 41.10 17.78 41.70Q17.25 42.30 17.25 42.35L15.80 43.95Q15.55 44.20 15.08 44.48Q14.60 44.75 14.20 45Q14.10 45.20 13.45 45.85Q12.80 46.50 12.55 46.65L10.50 47.70Q10.30 47.85 10.08 48Q9.85 48.15 9.70 48.30L8.55 48.90L8.40 49Q8.30 49.15 7.78 49.45Q7.25 49.75 6.70 50.02Q6.15 50.30 5.90 50.40L5.40 50.60Q5.25 50.70 5.08 50.73Q4.90 50.75 4.75 50.85Q4.25 51.05 3.77 51.20Q3.30 51.35 2.75 51.40L1.80 51.50ZM57.00 25Q57.00 25 56.45 24.90Q55.90 24.80 55.30 24.45Q55.15 24.30 54.83 24.10Q54.50 23.90 54.70 23.65Q54.80 23.50 54.95 23.50Q55.10 23.30 55.28 23.15Q55.45 23 55.55 22.80Q56.50 21.60 57.58 20.57Q58.65 19.55 59.80 18.60Q60.20 18.25 60.55 17.90Q60.90 17.55 61.35 17.35Q61.90 17.10 62.05 17.25Q62.20 17.40 62.20 17.40Q62.20 17.45 62.15 17.45Q62.05 17.75 61.95 17.95Q61.75 18.20 61.45 18.42Q61.15 18.65 61.05 18.95Q61.05 19.10 61.00 19.10Q60.80 19.30 60.28 19.80Q59.75 20.30 59.75 20.55Q59.60 20.55 59.60 20.60L59.55 20.60Q59.50 20.95 59.25 21.15Q59.00 21.35 58.75 21.60Q58.55 21.80 58.45 22.07Q58.35 22.35 58.20 22.60Q58.05 22.80 57.88 22.92Q57.70 23.05 57.60 23.25Q57.40 23.60 57.50 24.02Q57.60 24.45 57.50 24.85Q57.45 25 57.23 25.02Q57.00 25.05 57.00 25M43.55 43.55Q42.25 43.05 42.40 41.55L42.60 41.15Q42.85 40.75 43.00 40.35Q43.15 39.95 43.35 39.60Q44.40 37.80 45.48 36.02Q46.55 34.25 47.75 32.55Q47.80 32.50 47.83 32.42Q47.85 32.35 47.90 32.35L47.90 32.25Q48.15 32.05 48.60 31.38Q49.05 30.70 49.58 29.92Q50.10 29.15 50.45 28.75Q50.10 29 49.73 29.30Q49.35 29.60 49.05 30Q48.90 30.20 48.33 30.82Q47.75 31.45 47.05 32.23Q46.35 33 45.80 33.63Q45.25 34.25 45.10 34.45Q44.50 35.10 44.25 35.10Q44.15 35.10 44.15 35Q44.15 34.80 44.50 34.35L46.10 32.55Q46.45 32.15 46.78 31.82Q47.10 31.50 47.40 31.15Q47.65 30.90 47.88 30.60Q48.10 30.30 48.35 30.05L49.15 29.20Q49.40 28.95 49.63 28.63Q49.85 28.30 50.10 28.05Q51.60 26.50 52.20 26.10Q52.80 25.70 53.15 25.95Q53.25 25.85 53.40 25.85Q53.55 25.85 53.70 25.93Q53.85 26 53.95 26.05Q54.15 26.15 54.55 26.43Q54.95 26.70 55.20 27.02Q55.45 27.35 55.15 27.65Q54.85 28 54.45 28.15Q54.05 28.30 53.70 28.65Q53.45 28.85 53.18 29.10Q52.90 29.35 52.75 29.65L52.70 29.70Q52.75 30.25 52.00 30.82Q51.25 31.40 50.85 31.80Q50.70 31.95 50.60 32.30L50.55 32.30L50.30 32.35Q50.20 32.70 49.88 32.92Q49.55 33.15 49.55 33.55Q49.25 33.65 49.03 34.20Q48.80 34.75 48.55 34.75L48.55 34.90Q48.55 35.15 48.25 35.48Q47.95 35.80 47.75 35.80Q47.75 35.85 47.75 35.95Q47.75 36.05 47.70 36.05Q47.50 36.20 47.50 36.60L47.35 36.60L47.35 36.65L47.45 36.90L47.15 36.95Q47.10 37.15 46.80 37.63Q46.50 38.10 46.25 38.10L46.25 38.15L46.20 38.15L46.45 38.40L46.40 38.40L46.40 38.45L46.35 38.45Q46.15 38.35 46.05 38.35L46.05 38.40Q46.15 38.60 46.15 38.70Q46.15 39 45.80 39Q45.80 39.05 45.80 39.05L45.90 39.15L45.90 39.20Q45.55 39.25 45.55 39.75L45.45 39.75L45.35 39.70Q45.25 40.05 45.13 40.42Q45.00 40.80 44.85 41.15Q44.80 41.40 44.68 41.63Q44.55 41.85 44.55 42.15L44.60 42.15L44.60 42.10Q45.15 41.70 45.90 41.27Q46.65 40.85 47.15 40.35L51.05 36.65L52.55 35.20Q52.65 35.10 52.95 34.85Q53.25 34.60 53.45 34.50Q53.55 34.45 53.75 34.52Q53.95 34.60 53.85 34.70L52.45 35.90Q51.80 36.40 51.55 36.90Q51.30 37.40 50.65 37.95Q50.20 38.35 49.80 38.80Q49.40 39.25 48.95 39.65L47.60 40.85Q47.15 41.25 46.73 41.75Q46.30 42.25 45.80 42.65L45.15 43.20Q44.95 43.35 44.63 43.50Q44.30 43.65 44.00 43.65Q43.85 43.65 43.55 43.55M54.05 34.30Q53.95 34.30 53.95 34.10Q53.95 33.90 54.05 33.90Q54.15 33.90 54.28 33.83Q54.40 33.75 54.45 33.75Q54.50 33.75 54.50 33.80Q54.50 33.90 54.33 34.10Q54.15 34.30 54.05 34.30ZM53.70 44.05Q53.00 43.65 53.00 42.95Q53.00 42.60 53.10 42.17Q53.20 41.75 53.35 41.10Q53.65 39.85 54.33 38.40Q55.00 36.95 55.88 35.52Q56.75 34.10 57.50 32.95Q57.65 32.75 57.60 32.65Q57.85 32.45 58.28 31.77Q58.70 31.10 59.20 30.32Q59.70 29.55 60.00 29.15Q59.65 29.40 59.30 29.57Q58.95 29.75 58.55 30.15L53.95 34.85Q53.25 35.60 53.00 35.60Q52.95 35.60 52.95 35.55Q52.95 35.25 53.40 34.80L55.10 32.90Q55.50 32.50 56.05 31.80Q56.60 31.10 56.95 30.75Q57.25 30.45 57.43 30.15Q57.60 29.85 57.85 29.60Q58.10 29.35 58.55 29.07Q59.00 28.80 59.20 28.60Q59.50 28.30 59.58 28.02Q59.65 27.75 59.95 27.45Q60.65 26.65 61.00 26.27Q61.35 25.90 61.65 25.60Q61.80 25.50 62.58 25.63Q63.35 25.75 63.50 25.85Q63.70 25.90 64.10 26.32Q64.50 26.75 64.73 27.23Q64.95 27.70 64.70 28Q64.40 28.35 64 28.52Q63.60 28.70 63.30 29Q63.05 29.25 62.78 29.48Q62.50 29.70 62.35 30.05L62.30 30.05Q62.40 30.65 61.65 31.23Q60.90 31.80 60.60 32.20Q60.45 32.35 60.35 32.70L60.30 32.70L60.00 32.75Q59.95 33.10 59.63 33.35Q59.30 33.60 59.30 34Q58.65 34.25 58.50 34.77Q58.35 35.30 58.25 35.75Q58.15 36.20 57.60 36.25Q57.60 36.30 57.63 36.40Q57.65 36.50 57.60 36.50Q57.30 36.70 57.05 37.35Q56.80 38 56.60 38.58Q56.40 39.15 56.25 39.15Q56.25 39.20 56.25 39.20Q56.30 39.25 56.33 39.27Q56.35 39.30 56.35 39.30Q56.35 39.35 56.18 39.40Q56.00 39.45 56.00 39.85L55.80 39.85Q55.75 40.20 55.63 40.58Q55.50 40.95 55.40 41.30Q55.35 41.55 55.23 41.75Q55.10 41.95 55.10 42.20Q56.30 41.35 57.10 40.45Q57.55 39.90 58.13 39.30Q58.70 38.70 59.25 38.10Q59.45 37.70 59.70 37.30Q59.95 36.90 60.15 36.70Q60.30 36.50 60.83 35.73Q61.35 34.95 61.88 34.23Q62.40 33.50 62.50 33.50L63.60 32.35Q63.75 32.15 63.93 31.82Q64.10 31.50 64.30 31.30Q64.55 31.05 64.78 30.85Q65 30.65 65.30 30.45Q65.55 30.25 66.15 29.52Q66.75 28.80 67.10 28.70Q67.20 28.55 67.45 28.30Q67.70 28.05 67.90 27.95L69.30 26.90Q69.45 26.80 69.68 26.73Q69.90 26.65 70 26.55L71.05 26.30L71.25 26.30Q71.65 26.30 71.65 26.45Q71.65 26.65 71.20 26.95Q70.75 27.25 70.55 27.25Q70.15 27.70 69.85 27.95Q69.55 28.20 69 28.60Q68.75 28.80 68.25 29.30Q67.75 29.80 67.35 29.90Q67.30 30.20 66.75 30.77Q66.20 31.35 65.63 31.90Q65.05 32.45 64.80 32.70Q63.80 33.85 63.28 34.40Q62.75 34.95 62.40 35.33Q62.05 35.70 61.53 36.27Q61.00 36.85 59.95 38Q59.60 38.40 59.28 38.88Q58.95 39.35 58.55 39.75Q58.35 40.05 58.05 40.33Q57.75 40.60 57.50 40.90Q57.15 41.35 56.83 41.70Q56.50 42.05 56.05 42.50L54.85 43.90Q54.55 44.20 54.25 44.20Q54.00 44.20 53.70 44.05ZM80.85 33.95Q81 33.95 80.90 34.17Q80.80 34.40 80.80 34.50L79.15 36.55Q78.75 37.05 78.25 37.38Q77.75 37.70 77.30 38.15Q77.15 38.35 76.80 38.50Q76.45 38.65 76.25 38.85Q76.05 39.05 75.28 39.17Q74.50 39.30 74.20 39.30Q74.15 39.30 74.05 39.20L73.85 39.50Q73.35 40.30 72.67 40.95Q72 41.60 71.30 42.15Q70.95 42.45 70.58 42.73Q70.20 43 69.80 43.20Q69.40 43.40 68.75 43.40Q68.05 43.40 67.40 43.15Q66.45 42.80 65.95 41.95Q65.75 41.60 65.58 41.20Q65.40 40.80 65.40 40.30Q65.40 39.75 65.55 39.33Q65.70 38.90 65.85 38.50Q66.75 36.30 68.30 34.35Q68.40 34.25 68.58 33.95Q68.75 33.65 68.95 33.35Q68.70 33.55 68.38 33.83Q68.05 34.10 67.80 34.35Q67.50 34.70 67.33 34.85Q67.15 35 66.75 35.50Q66.65 35.70 66.20 36.02Q65.75 36.35 65.65 36.35Q65.50 36.35 65.58 36.08Q65.65 35.80 66.45 35Q66.60 34.90 66.70 34.75Q66.80 34.60 66.90 34.45L68.40 32.70L70 31.25Q70.25 31 70.78 30.42Q71.30 29.85 72.25 29.10Q72.50 28.90 73.03 28.32Q73.55 27.75 73.75 27.55Q74 27.30 74.25 27.40L74.45 27.15Q74.75 26.75 75.05 26.77Q75.35 26.80 75.70 26.50L76.15 26.15L76.20 26.15L76.20 26.10Q76.45 26 76.58 25.82Q76.70 25.65 77 25.65Q77.40 25.65 78 26.10Q78.60 26.55 79.10 27.07Q79.60 27.60 79.70 28Q79.70 28.10 79.70 28.15Q79.70 28.20 79.75 28.30Q80 28.55 80 29.20Q80 29.95 79.70 30.82Q79.40 31.70 79.08 32.42Q78.75 33.15 78.55 33.45Q78.55 33.45 78.48 33.27Q78.40 33.10 78.25 33.35L78 33.70L78.05 34.10L77.95 34.45L77.90 34.45Q77.75 34.75 77.33 35.30Q76.90 35.85 76.30 36.60Q76 36.95 75.65 37.40Q75.30 37.85 75 38.25L75.15 38.25Q75.65 38.25 76.28 37.90Q76.90 37.55 77.30 37.25Q78 36.85 78.58 36.23Q79.15 35.60 79.80 34.90Q80 34.65 80.15 34.48Q80.30 34.30 80.50 34.10Q80.65 33.95 80.85 33.95M72.65 37.30Q73.20 36.90 74.15 36.08Q75.10 35.25 76.45 33.40Q76.65 33.15 77.10 32.38Q77.55 31.60 77.65 31.35Q77.90 30.80 78.13 30.17Q78.35 29.55 78.35 28.90Q78.35 28.20 78.30 27.88Q78.25 27.55 77.90 27.55Q77.50 27.55 76.65 28.05L76.25 28.45Q74.95 29.25 73.65 30.30Q73.60 30.35 73.53 30.38Q73.45 30.40 73.45 30.50Q73.35 30.50 72.95 30.95Q72.55 31.40 72.20 31.85Q71.85 32.30 71.85 32.35Q71.75 32.55 71.42 32.70Q71.10 32.85 71.15 33.20L70.80 33.20L70.90 33.60L70.65 33.60L70.65 33.65Q70.65 34 70.30 34.10Q70.20 34.20 70.20 34.10Q70.15 34.25 70.08 34.27Q70 34.30 69.90 34.40L69.60 35L69.35 35.65Q69.30 35.65 68.98 35.90Q68.65 36.15 68.65 36.20L68.70 36.45Q68.35 36.50 68.30 36.75Q68.25 37 68.15 37.25L68.15 37.60L67.50 38.85L67.20 39.35Q67.15 39.40 67.10 39.55Q67.05 39.70 67.10 39.70L67.10 39.75L67.20 39.75L67.25 39.35Q67.35 39.55 67.40 39.98Q67.45 40.40 67.40 40.65Q67.35 40.85 67.28 41.13Q67.20 41.40 67.20 41.65L67.20 42.05Q67.20 42.40 67.65 42.50Q68.10 42.60 68.35 42.55Q68.45 42.50 68.92 42.25Q69.40 42 69.83 41.73Q70.25 41.45 70.20 41.35L70.25 41.40L70.40 41.40Q70.50 41.15 70.85 40.95Q71.20 40.75 71.40 40.55Q71.75 40.25 72.13 39.92Q72.50 39.60 72.75 39.25L73.25 38.55Q72.55 38.40 72.55 37.80Q72.55 37.60 72.65 37.30Z"/></g></g></g></svg>