<svg xmlns="http://www.w3.org/2000/svg" id="Ebene_1" data-name="Ebene 1" viewBox="0 0 786.68 146.81">
  <path d="M274.78,15.33l-13.44,33.8,7.05-6.38c3.93-2.63,5.96.11,6.33,4.05,1,10.73-8.84,34.92-18.49,40.38-2.52,1.42-4.8,2.43-7.11.08-.43-.43-2.97-4.25-3.03-4.65-.27-1.77,1.4-4.92,1.35-6.86-5.92,6.09-9.34-4.1-7.68-9.11-2.85,2.13-6.7,11.86-9.6,13.18s-3.33-1.2-4.81-1.89c-1.8-.84-3.44-.37-4.67-3-2.22-4.73,2.06-16.49,3.72-21.48l-1.19-.23c-2.89,5.75-4.99,12.05-8.32,17.58-2.06,3.41-5.54,9.24-9.6,4.64-2.33-2.64-1.85-4.45-1.99-7.61-.02-.54.31-1.32-.48-1.19-1.07,1.88-2.65,4.15-4.08,5.76-3.59,4.04-8.46,9.42-10.08.48-3.97,2.88-7.63,9.41-13.19,7.19-3.85,14.35-7.39,28.87-9.95,43.53-.54,3.09-.68,9.41-1.59,11.84-.18.48-.08.96-.75,1.19-1.72.26-2.4-.49-2.61-2.1-.66-5.09.77-12.45,1.61-17.61,3.1-18.95,8.55-37.58,15.2-55.54-1.26-.31-.84.41-1.24.9-3.12,3.87-7.16,12.44-10.26,15.17-2.68,2.36-6.1-.8-6.22-3.89-.11-2.72.57-8.53.99-11.42.39-2.7,1.31-5.31,1.86-7.97-3.69,3.87-6.56,8.94-9.19,13.58-.96,1.7-4.26,9.54-5.52,9.87-1.12.29-3.19-1.78-2.96-2.94l7.6-20.51c-4.48,1.77-15.6,25.86-17.11,26.33-7.32,2.28.91-14.69,2.24-16.73-.88-.21-1.32.76-1.88,1.34-2.72,2.83-9.69,11.89-13.35,12.48-2.32.37-1.82-1.07-2.66-1.69-2.58-1.91-4.77-2.85-4.66-6.86l-1.2.97-.71-.96c.14,1.17-1.17.98-1.95,1.64-4.61,3.87-13.56,16.86-19.64,8.66-4.12-5.56,1.02-14.75,4.11-19.86,5.66-9.34,13.43-17.28,21.04-25,4.29-1.68,4.3,2.25,4.04,5.48-.48,5.89-3.96,10.76-5.95,16.14l-1.68.24c-2.53-2.42,4.74-13.78,4.1-17.04-4.56,4.88-9.04,9.92-12.9,15.4-4.92,6.96-10.21,15.18-10.36,23.92.68.14,1.18-.16,1.78-.38,2.87-1.03,15.9-10.91,17.34-13.36,3.13-5.35,5.46-11.67,9.76-16.64,1.78-2.06,5.51-5.58,8.34-3.7.99,2.03,3.92,3,4.42,5.17.92,4-1.68,9.14-2.29,13.09,2.9-1.2,10.94-14.39,12.32-14.8,4.89-1.46-.93,7.32-.8,9.04,2.07-1.4,6.43-9.12,9.1-7.93,2.43,1.08,1.98,4.3,1.94,6.49,2.01-1.48,5.29-7.1,7.88-6.73,4.97.72,1.21,10.72.8,13.73s-.68,6.47-.29,9.3c3.04-3.69,5.83-7.58,8.89-11.25,3.43-4.11,8.62-7.27,8.65-13.18l2.16.43.22,3.38c3.42-1.81,8.6-3.78,12.25-1.94,1.2.07,2.68,3.2,3.33,2.89,2.01-.94,5.27-10.97,9.01-10s.89,7.95.81,10.27c-.04,1.38.53,2.47.47,3.74-.23,5.03-4.39,11.51-2.61,17.1,2.41-.06,12.49-17.85,12.25-20.37-.14-1.44-2.16-1.49-1.94-3.81.19-1.9,4.69-7.15,6.97-5.09,1.7,1.49-1.21,6.17-.72,6.7,9.09,2.73-.48,14.63,1.19,21.11,1.97-2.04,2.45-5.16,3.75-7.76,2.48-4.96,10.41-17.42,14.41-20.84,3.07-2.63,5.07.1,5.06,3.38-.02,9.85-5.96,16.18-5.23,25.95.05.71-.38,1.39.71,1.19,1.45-.61,6.65-8.01,7.53-9.74,5.21-10.31,8.81-23.23,13.9-34.06,2.27-4.83,4.98-9.45,7.36-14.22l2.17-.47ZM271.9,44.58c-.75-.14-1.11.07-1.7.45-5.57,3.61-14.95,21.14-17,27.61-.08.24-.13.78.23.71.81-.74,1.4-1.63,2.4-2.15.2-.1,1.54-.52,1.19.47-.6,1.73-3.28,4.71-4.25,6.78-.47,1-2.53,6.29-1.97,6.89,6.27-2.77,11-9.85,14.16-15.81,4.01-7.57,6.82-16.34,6.94-24.95ZM244.97,53.63c.63-.6.54-6.58.54-7.85-.07-.59-.5.01-.7.26-3.22,3.95-7.44,10.51-9.94,15-1.99,3.59-4.11,7.74-4.71,11.83l12.44-18.49c.44-.86,2.1-.5,2.37-.75ZM194.67,70.48c3.24-3.89,8.22-8.72,10.64-13.1,1.63-2.95,1.7-6.09,1.82-9.44l-11.93,20.44-.54,2.09ZM132.29,48.9c-7.75,1.85-11.36,8.86-12.81,16.2-.91,4.61-2.02,11.17,3.89,5.32,5.09-5.04,7.84-14.59,8.92-21.53ZM195.58,51.82c-2.12-1.23-11.26,3.14-12.65,5.24-.52.78-3.43,9.62-3.13,10.06l2.4-.71-2.4,7.43c5.82-6.21,16.05-12.74,15.78-22.01Z" fill="#ffffff"/>
  <path d="M497.87,75.27c.59.68,5.78-4.32,6.24-5.03.96-1.48,1.02-3.36,1.83-4.89,1.42-2.69,8.65-14.78,10.99-15.43,1.93-.54,3.35,1.34,1.58,2.8,8.7-.22,6.37,10.43,4.32,15.83l11.83-15.77,1.13-.31,1.37,1.85-4.25,10.4c1.91-1.56,8-12,9.83-12,.84,0,1.7,1.16,1.94,1.91,1.15,3.65-3.26,15.7-3.62,20.16,3.96-1.43,4.57-6.16,6.47-9.6,2.42-4.38,9.78-13.46,15.01-13.8,1.59-.1,3.34,1.31,3.33,2.92-.02,3.69-3.78,5.32-4.63,7.8-2.83,8.27-.89,21.83-2.01,31.08-1.81,14.95-12.72,41.08-24.88,50.42-7.33,5.64-21.05,3.27-27.31-2.94-6.68-6.64-1.02-10.37,4.6-14,3.78-2.45,12.55-7.43,16.59-8.83.76-.26,1.44-.5,2.26-.37-4.64,4.38-10.85,6.88-16.08,10.53-6.28,4.37-12.27,9.1-1.66,13.2,15.22,5.87,22.28-3.76,29.34-15.74,9.5-16.12,15.18-34.12,13.83-53.07-2.84,2.43-7.99,10.95-11.04,4.32-.43-.29-4.03,5.29-6.8.34-2.1-3.75.65-9.63,1.43-13.64.1-.5.49-1.68-.36-1.56-1.43,2.05-8.77,15.82-9.92,16.22-3.26,1.14-3.75-1.95-3.52-4.48.13-1.44,1.21-2.73.73-4.08-1.82,2.15-9.09,11.77-11.13,12.38-2.71.82-2.05-1.02-2.67-1.69-.29-.31-2.43-.99-3.48-2.04s-1.44-2.24-2.38-3.37c-.64,2.89,1.6,5.06,3.6,6.71-3.01.12-5.85-3.86-5.76-6.71-.77-.87-4.43,5.65-8.19,2.67-3.51-2.77-1.3-13.26-.3-17.16,1.7-6.64,10.29-26.81,16.21-29.83,4.88-2.49,6.61,1.22,6.14,5.67-.79,7.64-8.88,21.41-13.87,27.37-3.21,3.83-7.82,5.71-6.7,11.76ZM516.09,32.11c-1.78-1.84-7.26,7.46-7.92,8.62-4.39,7.73-7.28,16.32-9.34,24.94,1.31-.24,2.48-2.17,3.28-3.19,6.51-8.37,12.67-19.8,13.99-30.37ZM563.59,53.69c-7.94,3.7-13.99,13.09-15.82,21.58,5.2-4.27,9.09-10.11,11-16.57,1.03-.81,2.01.73,2.19.73.71-.01,2.95-5.41,2.63-5.73ZM520.89,56.09c-.83-.86-7.51,4.62-8.25,5.9-1.39,2.42-4.3,12.94-1.99,14.76.52.26.91.32,1.46.09,4.3-1.78,9.74-15.97,8.77-20.75Z" fill="#ffffff"/>
  <path d="M59.38,47.94c.67.11.65-.81.84-1.31,1.99-5.44,3.48-11.01,5.65-16.42,2.84-7.07,6.35-14.56,10.14-21.05,1.41-.51,3.33.62,3.53,2.12.21,1.59-2.22,10.77-2.83,12.99-.7,2.55-1.38,5.25-2.38,7.7-.58,1.42-3.94,7.93-4.87,8.56-.39.26-.98.4-1.39.16l-1.01-1.37c-3.81,13.68-6.85,27.68-7.2,41.96l7.59-4.4c3.1-1.47,7.29-3.25,10.78-2.44.83.19,1.97.77,1.78,1.81-3.86-1.24-19.76,7.77-20.53,10.41-.53,1.82-.24,10.41-.12,12.87.15,3.15.84,6.63.98,9.82l1.91-.48.28,11.53c-4.3,2.13-5.32-2.62-6.27-5.78-1.7-5.59-2.23-12.14-2.64-17.99-.14-2.08.42-5.95,0-7.57-.14-.54-1.29-.54-1.43-1.09-.29-1.12,1.56-1.66,1.79-2.93.32-1.77.01-3.64.11-5.42l-4.33,6.46c-7.59,9.19-25.5,16.65-36.82,20.26-2.75.88-10.96,3.98-12.83,1.11-.76-1.16,2.79-3.37,3.67-4.04,8.01-6.07,17.39-11.01,25.24-17.45l.85-.11v.97s-22.78,17.73-22.78,17.73c11.42-4.46,26.97-9.94,35.69-18.75,18.52-18.7,8.78-55.71,12.77-79.31-1.52-.58-2,1.88-3.63,2.16-.95.16-3.36-.31-2.87-1.44,1.98-1.48,6.51-7.8,9.02-7.13,3.42.91.93,9.41.81,12.14-.52,11.91.76,23.84.5,35.74ZM68.01,37.39c1.61-2.1,2.82-5.07,3.71-7.55s1.77-5.19,2.04-7.79l-3.71,8.99-2.04,6.35Z" fill="#ffffff"/>
  <path d="M654.75,65.2c1.8-.96,4.82-7.55,6.48-7.71,3.01-.29,2.81,4.25,2.63,6.27,1.9-1.16,3.72-7.6,6.47-5.27,3.24,2.74.71,8.39,1.21,11.98.7.79,3.07-2.88,3.58-3.37.6-.58,5.06-4.49,5.53-3.82l-7.67,15.11c-5.62,1.22-6.28-6.85-5.28-10.8-2.63,1.24-4.64,11.96-8.61,8.88-3.25-2.52-1.52-5.61-1.22-8.88-3.5,5-6.19,10.01-10.78,14.17-13.46,12.21-30.06,25.02-46.55,33.08-4.28,2.09-13.27,6.54-16.26.88-1.72-3.26,5-7.96,7.64-9.02.48-.19,1.58-.6,1.89-.03-1.69,3.08-6.35,5.07-6,8.87,10.48-4.26,20.06-10.74,29.18-17.35,9.94-7.2,34.34-25.4,32.89-38.94-.54-5.03-6.69-7.38-11.21-6.52-1.05.2-4.68,3.96-6.14,4.9-1.82,1.17-3.55,1.73-5.37,2.79l-4.13,15.29c-7.9.34-1.68-12.06-1.01-16.64.15-1.02-.48-1.94-.32-2.65.11-.46,1.36-1.62,1.79-2.55,3.12-6.78,5.5-14.29,8.69-21.07.76-.54,1.78.24,2.43.01,1.68-.6,2.3-4.44,5.91-2.55,5.09,2.66,4.63,14.57.79,18.4,7.24,2.64,13.83,8.14,13.43,16.54ZM630.28,49.85c7.83-.84,10.89-9.28,10.07-16.3-4.83,4.19-8.43,10.11-10.07,16.3Z" fill="#ffffff"/>
  <path d="M728.62,64.72l-5.6,10.97c-6.38.05-2.95-8.51-2.56-12.4l-6.14,12.8c-3.81,5.87-8.33-1.77-7.77-6.08-.68-.16-.79.1-1.21.47-1.21,1.07-4.79,6.36-5.85,6.65-4.52,1.26-2.25-6.44-1.59-8.34,2.27-6.56,7.55-11.94,11.67-17.34l1.55-.61c1.59.41,2.17,1.55,2.19,3.08.1,5.86-5.12,13.27-3.4,20.15.18.72-.34.86.95.72l8.11-15.67-1.38-2.28,2.93-1.04c1.46-1.78,5.61-15.77,6.44-16,.95-.27,2.05.69,2.1,1.64l-2.35,13.7c3.69,1.11,4.17-8.16,6.47-8.18,2.79-.02,1.49,5.62,1.69,7.22l21.81-1.46,30.01.26-3.73,1.07-48.98,3.55c-1.4,4.77-2.03,9.82-1.98,14.8,1.34-.86,2.22-2.55,3.07-3.88,1.05-1.63,4.04-7.87,4.83-8.6s1.61-.67,2.45-.04l3.07,23.06c-.65,0-1.32.12-1.92-.23-1.38-.81-2.95-13.27-2.87-15.59-1.12-.24-.77.14-1.07.62-1.76,2.75-4.49,13.01-8.83,8.81-.46-.44-2.09-3.48-2.09-3.91v-7.91ZM707.87,64.12l1.56-7.07-7.19,10.79c.8,1.07.87-.2,1.01-.31,1.08-.87,2.01-1.94,3.06-2.83.44-.37,1.3-.33,1.55-.58ZM726.7,58.49c-1.51-.36-1.19,2.04-1.43,2.87.85-.28,1.28-2.09,1.43-2.87Z" fill="#ffffff"/>
  <path d="M455.65,54.17c1.62-2.48,7.42-7.32,8.54-2.05.96,4.54-5.2,15.39-3.99,20.75,2.57-1.73,2.16-4.57,2.98-7.09,1.64-4.96,3.3-9.31,6.84-13.3,1.48-1.67,2.57-3.08,5.04-2.62.46.08,3.76,3.13,4.03,3.66,2.11,4.05-1.31,15.9-3.21,20.16-3.58,8-10.07,13.09-13.52,1.59-5.63,7.33-7.01-1.76-6.18-6.9l4.03-14.2c-6.97,9.04-10.51,20.12-15.09,30.47-6.1,1.33-2.03-7.35-1.22-10.33.13-.48.68-1.52-.24-1.44-1.01,2.18-2.77,4.64-4.34,6.46-1.18,1.37-6.74,7.56-8.62,6.01l7.39-9.15c5.61-8.51,12.33-16.49,15.71-26.25,4.32-.55,2.28,1.62,1.85,4.24ZM466.2,77.67c3.11-1.18,5.03-5.39,6.32-8.31,1.79-4.06,3.4-8.81,3.27-13.27l-4.09,6.22-3.59,9.12-.95-.95c-1.69,2.1-.76,4.58-.97,7.19Z" fill="#ffffff"/>
  <path d="M642.43,124.98c-1.19-1.23-1.67-2.78-.42-4.17,1.36-1.5,8.72-5.5,10.97-6.78,3.3-1.88,13.86-7.92,16.9-8.53.48-.09,1.3-.29,1.17.45l-26.31,16.85.14,1.4c10.63,4.11,29.12,4.98,36.93-4.87,6.28-7.93,10.33-32.8,9.9-42.9-.1-2.21-.9-4.57-.5-6.93-2.15,1.2-8.11,12.14-10.68,6.6-2.03-4.4,3.5-13.96,6.16-17.59,1.52-2.07,4.97-6.89,7.85-4.6,3.47,2.76-.01,8.91-.01,12.48,0,2.49.9,5.6,1.02,8.13.6,12.17-.28,22.15-3.51,33.93-3.48,12.69-7.62,19.66-21.7,21.47-5.98.77-23.64-.55-27.89-4.96ZM692.59,62.27l.53-6.18c-.61-.84-9.61,12.99-8.63,14.87,1.78-1.84,3.82-3.9,5.26-6,1.22-1.77.13-2.72,2.84-2.68Z" fill="#ffffff"/>
  <path d="M375.05,48.41c1.63,1.22,12.97-4.73,13.91.24l-15.29,4.14c-1.96,8.8-4.79,17.47-5.35,26.55-.06,1.05.11,1.3.61.12.64-1.51,2.76-8.36,3.34-8.88.05-.04.98.24,1.35-.11-.65,3.1-1.79,12.96-4.08,14.86-2.69,2.23-4.83-2.15-5.06-4.52-.84-8.59,2.66-18.42,4.82-26.63-1-.21-1.12.48-1.53,1.1-5.76,8.53-10.89,19.02-17.89,26.72-2.01,2.21-3.37,3.91-6.24,1.91-3.4-2.37-2.38-4.78-2.14-8.31l-1.94-.81c-.69-.98,3.07-4.22,3.85-5.49,3-4.88,5.32-11.53,8.38-16.56,1.03-1.37,3.64.37,3.53,1.59-3.63,8.38-9.05,16.43-9.76,25.74,7.95-7.64,14.06-16.79,20.18-25.9l-1.22-2.14c.73-1.2,2.43-.9,3.33-1.48,1.21-.77,5.76-9.65,6.67-11.55,1.38-2.87,3.27-9.65,5.12-11.7.51-.57,2.27-.48,2.07.63l-6.64,20.48Z" fill="#ffffff"/>
  <path d="M275.74,75.27c.68.7,7.68-4.28,8.18-5.13.66-1.11.73-3.94,1.17-5.43,1-3.38,4.07-14.4,9.14-11.53,3.42,1.93.35,7.49-.97,10.1-1.75,3.44-5.74,6.97-5.04,10.78.09.47.24,1.05.75,1.17,1.21.29,13.56-7.14,15.52-8.4,3.15-2.03,9.02-7.29,11.68-8.47.74-.33,1.48-.44,2.27-.36-5.62,6.88-13.36,14.03-21.15,18.42-4.84,2.73-8.86,3.81-12.23-1.67-1.98-.3-5.7,6.26-10.87,1.96-6.03-5.02-.32-18.31,2.74-23.99,1.99-3.7,7.28-12.66,9.92-15.5s7.34-2.04,7.1,1.77c-.37,5.88-8.76,17.7-12.47,22.6-3.47,4.58-7.61,6.85-5.74,13.68ZM277.18,61.84c5.6-7.04,12.52-15.35,13.9-24.46-3.03,2.65-5.25,7.12-7.27,10.71-2.49,4.43-4.94,8.94-6.63,13.75ZM292.1,56l-1.75,4.08.74.32,1.75-4.08-.74-.32Z" fill="#ffffff"/>
  <path d="M566.1,69.62c-.38.66-.31,4.51.62,4.7,1.08.22,5.92-4.12,6.91-5.18,3.01-3.23,8.82-11.66,9.44-15.91.22-1.48-1.22-4.16.92-4.35,1.69-.15,1.47,1.29,2.16,1.71,1.19.71,3.39-.16,3.69,2.95.33,3.35-6.29,14.2-5.13,18.88,2.9-.82,7.42-6.69,9.59-7.43.51-.17.9.35,1.44.24.21.21-2.75,4.19-3.17,4.74-1.52,2.01-4.98,6.76-6.66,8.21-2.57,2.22-4.59.05-5.02-2.68-1.12-7.26,2.67-16.31,6.2-22.51,0-.41-1.01-.31-1.19-.23-.5.22-3.62,8.51-4.38,10.01-1.82,3.55-8.19,13.23-11.71,14.66-4.67,1.9-6.68-4.63-7.58-8.01,1.76-5.93,5-14.02,9.26-18.59,1.62-1.74,5.38-3.39,5.99-.22,1.14,5.94-4.23,13.24-8.39,17-.55.5-2.91,1.88-3,2.03ZM568.87,62.8c2.72-2.86,5.24-6.56,5.75-10.55-2.51,2.9-4.82,6.79-5.75,10.55Z" fill="#ffffff"/>
  <path d="M414.48,74.9c.05-.04,1,.25,1.35-.12l.24,1.92c2.92-4.75.27-11.72-.95-16.78-2.83,4.5-4.68,9.65-7.36,14.23-3.23,5.53-4.18,7.75-9.67,2.08-.72,3.12-3.87,4.87-5.38,7.55-4.04.15.49-4.48,1.53-6.36,1.44-2.58,3.1-5.53,4.26-8.21,1.32-3.06,5.02-15.66,7.5-16.76,1.06-.31,2.61.86,2.63,1.95.02.95-3.89,9.21-4.54,11.29s-1.41,4.98-1.45,7.18l12.77-23.2c.79-1.25,1.91-.96,2.85-.08,1.35,1.28.28,6.76.47,9.13.45,5.84,6.51,20.11-1.09,23.39-4.6,1.99-5.42-5.22-3.14-7.2Z" fill="#ffffff"/>
  <path d="M304.93,98.21l-1.85-.16c3.33-10.52,9.03-20.02,13.69-29.95,1.12-1.05,2.75-.66,2.55,1.06-.18,1.59-2.83,7-3.67,8.84-3.18,6.92-7.41,13.36-10.72,20.21Z" fill="#ffffff"/>
  <path d="M374.57,32.11c.27,1.28-.33.82-.95,1.19-2.85,1.69-6.43,2.85-9.46,4.47-1.54.82-2.91,2.88-4.97,2.3l-1.11-.9c-.93-2.18,2.54-3.64,4.16-4.28,3.75-1.47,8.36-1.99,12.32-2.78Z" fill="#ffffff"/>
  <path d="M415.82,37.87c.21.9-.51,1.14-.96,1.68-1.23,1.49-3.49,3.44-5.12,4.47-.6.38-5.48,3.33-5.42,1.28,3.27-3.23,6.7-6.77,11.5-7.43Z" fill="#ffffff"/>
</svg>