<svg xmlns="http://www.w3.org/2000/svg" viewBox="0 9.149999618530273 155.12857055664062 41.25" data-asc="0.85" width="155.12857055664062" height="41.25"><defs/><g><g fill="#ffffff"><g transform="translate(0, 0)"><path d="M7.85 50.40L6.75 50.25L6.60 50.25Q6.40 50.35 6.05 50.35Q5.55 50.35 4.97 50.25Q4.40 50.15 4.20 50.10L3.75 49.95L3.75 50Q3.60 50 3.45 49.92Q3.30 49.85 3.20 49.80Q2.75 49.65 2.38 49.50Q2 49.35 1.60 49.15L0.95 48.75Q0.85 48.50 0.43 48.05Q0 47.60 0 47.40L0.25 47.20L0.35 47.50Q0.60 47.75 0.77 48.02Q0.95 48.30 1.25 48.55Q1.85 49 2.75 49Q3.65 49 4.45 49.05L5.35 49.20L6.30 48.95L6.45 49.05Q6.55 49 6.72 49Q6.90 49 7.10 49Q7.65 49 7.65 48.90Q7.85 48.90 7.80 49Q8.50 48.75 9.28 48.63Q10.05 48.50 10.75 48.30Q11.15 48.20 11.50 48.05Q11.85 47.90 12.25 47.90Q12.65 47.50 13.43 47.42Q14.20 47.35 14.75 47.15Q16.55 46.40 18.32 45.60Q20.10 44.80 21.85 44L22.90 43.35Q23.45 43.05 24.08 42.80Q24.70 42.55 25.25 42.20L26.15 41.50Q26.25 41.40 26.35 41.42Q26.45 41.45 26.50 41.40L27.05 40.95Q27.15 40.80 27.18 40.80Q27.20 40.80 27.40 40.85L32.40 37.10L32.80 36.60Q33.20 36.20 33.63 35.88Q34.05 35.55 34.45 35.20Q34.75 34.95 35.53 34.25Q36.30 33.55 37.03 32.95Q37.75 32.35 37.80 32.35L39.65 30.90Q40 30.65 40.13 30.35Q40.25 30.05 40.60 29.85Q40.75 29.75 40.85 29.57Q40.95 29.40 41 29.35Q41.55 28.95 42.38 28.25Q43.20 27.55 43.80 27.15Q44.85 26.30 45.33 25.77Q45.80 25.25 46.90 24.50Q47.05 24.40 47.65 23.88Q48.25 23.35 48.95 22.72Q49.65 22.10 50.23 21.63Q50.80 21.15 50.85 21.15Q50.95 21 51.48 20.47Q52 19.95 52.63 19.32Q53.25 18.70 53.78 18.17Q54.30 17.65 54.45 17.50Q55 17 55.35 16.50Q55.70 16 56.15 15.50Q56.30 15.35 56.63 14.97Q56.95 14.60 57.35 14.20Q56.70 14.25 56.40 13.92Q56.10 13.60 55.85 13.55Q55.55 13.85 55.30 13.80L55.35 13.40L55.15 13.35L55.10 13.65Q55.05 13.65 54.98 13.60Q54.90 13.55 54.80 13.55L54.50 13.35L54.35 13.50L53.95 13.45L54 13.15L53.95 13.15L53.95 13.20Q53.75 13.30 53.58 13.32Q53.40 13.35 53.20 13.35Q52.55 13.35 51.95 13.20L51.90 12.95Q51.85 13 51.75 13Q51.65 13 51.55 13L51.50 12.95L51.40 13.15Q50.95 13.05 50.73 13.05Q50.50 13.05 50 13.05Q49.40 13.05 48.80 12.90Q48.20 12.75 47.60 12.75Q47.35 12.75 47.08 12.67Q46.80 12.60 46.50 12.55Q46.40 12.70 46.05 12.70Q45.75 12.70 45.35 12.60L45.25 12.80L45.10 12.80Q44.95 12.80 44.45 12.82Q43.95 12.85 43.50 12.90Q43.05 12.95 43 13.10Q42.75 13.10 42.50 13.13Q42.25 13.15 42 13.10Q41.75 13.40 40.78 13.55Q39.80 13.70 38.92 13.82Q38.05 13.95 38 14.20Q35.35 14.70 32.80 15.90Q30.25 17.10 28.18 18.95Q26.10 20.80 24.88 23.22Q23.65 25.65 23.65 28.55Q23.65 29.20 23.98 30.60Q24.30 32 25.05 33Q25.10 33.05 24.90 33Q24.70 32.95 24.60 32.95Q24.45 32.85 24.13 32.40Q23.80 31.95 23.50 31.52Q23.20 31.10 23 31.10L22.85 31.20Q22.35 30.90 22.25 30.27Q22.15 29.65 22.15 29.15Q22.15 27.30 22.85 25.43Q23.55 23.55 24.65 21.82Q25.75 20.10 27 18.85Q27.55 18.30 28.20 17.82Q28.85 17.35 29.45 16.85Q29.55 16.80 29.98 16.52Q30.40 16.25 30.83 15.97Q31.25 15.70 31.25 15.65Q31.80 15.45 32.90 14.88Q34 14.30 35.15 13.80Q36.30 13.30 36.95 13.40L37 13.35Q37.20 13.05 38.40 12.75Q39.60 12.45 41.13 12.20Q42.65 11.95 43.95 11.82Q45.25 11.70 45.70 11.75L45.70 11.70Q45.85 11.60 46.15 11.60Q46.45 11.60 46.85 11.70Q47.15 11.55 47.50 11.55Q47.75 11.55 47.98 11.60Q48.20 11.65 48.40 11.65Q48.50 11.60 48.70 11.60Q49 11.60 49.35 11.67Q49.70 11.75 49.90 11.80Q50 11.70 50.25 11.70Q50.35 11.70 50.55 11.75Q50.75 11.80 50.90 11.85Q51.10 11.75 51.20 11.75Q51.50 11.75 51.80 11.85Q52.10 11.95 52.35 12L52.45 11.80Q53.05 11.90 54.03 12.02Q55 12.15 56 12.27Q57 12.40 57.65 12.60Q57.85 12.60 58.15 12.70L58.20 12.75Q58.40 12.65 58.55 12.65L58.85 12.65Q59.35 12.15 59.70 12.10Q60.55 11.85 60.95 11.85Q61.55 11.85 61.55 12.25Q61.55 12.35 61.45 12.65Q62.10 12.70 62.78 12.70Q63.45 12.70 63.40 12.80Q63.40 12.80 63.75 12.88Q64.10 12.95 64.45 13.15Q64.80 13.35 64.80 13.75Q64.80 13.95 64.63 14.27Q64.45 14.60 63.95 15Q63.85 15.10 63.55 15.10Q63.35 15.10 63.15 15.02Q62.95 14.95 62.70 14.90Q62.20 15.25 62 15.55L61.95 15.60Q62.05 16.10 61.78 16.60Q61.50 17.10 61.10 17.45Q60.85 17.60 60.80 17.90L60.75 17.90L60.40 17.95Q58.65 20.30 56.88 22.77Q55.10 25.25 53.73 27.32Q52.35 29.40 51.65 30.65Q51.60 30.80 51.38 31.05Q51.15 31.30 51.15 31.45L50.60 32L50.90 32.50Q50.85 32.85 50.55 33.10Q50.25 33.35 50.30 33.75Q50.10 33.80 49.88 34.50Q49.65 35.20 49.40 35.85Q49.15 36.50 48.95 36.50L49 36.55Q49.05 36.60 49.05 36.75Q49.05 37 48.80 37.27Q48.55 37.55 48.30 37.60Q48.40 37.95 48.15 38.42Q47.90 38.90 47.65 39.15Q47.60 40 48 40Q48.40 40 49.20 39.35L51.30 37.55Q52.70 36.30 54.88 34.40Q57.05 32.50 59.50 30.23Q61.95 27.95 64.30 25.57Q66.65 23.20 68.40 21Q68.50 20.80 68.78 20.13Q69.05 19.45 69.20 19.25Q70.20 17.80 70.73 16.60Q71.25 15.40 72.40 14Q72.80 13.50 73.33 12.82Q73.85 12.15 74.35 11.75Q74.55 11.55 74.80 11.55Q75.05 11.55 75.28 11.65Q75.50 11.75 75.80 11.70Q76.20 11.60 76.67 12.20Q77.15 12.80 77.50 13.15Q78 13.65 79 14.35Q80 15.05 80.20 15.85Q80.25 16.05 80.25 16.40Q80.25 17.35 79.70 17.90Q79.25 18.50 78.95 18.50Q78.80 18.50 78.80 18.10Q78.80 17.70 78.88 17.13Q78.95 16.55 78.95 16.05Q78.95 15.60 78.90 15.40Q78.80 15 78.45 14.82Q78.10 14.65 77.80 14.65Q77.15 14.65 76.88 15.15Q76.60 15.65 76.25 15.70L76.20 15.85Q76 15.90 75.88 16.20Q75.75 16.50 75.50 16.55Q75.45 16.75 74.98 17.27Q74.50 17.80 74.35 18.05Q73.40 19.15 72.55 20.45Q72.45 20.60 72.38 20.80Q72.30 21 72.20 21.15L71.50 21.95Q71.50 22 71.30 22.38Q71.10 22.75 70.90 23.13Q70.70 23.50 70.70 23.55Q70.55 23.75 70.13 24.75Q69.70 25.75 69.25 27.02Q68.80 28.30 68.48 29.32Q68.15 30.35 68.15 30.55Q67.95 30.85 67.78 31.50Q67.60 32.15 67.50 32.60Q66.80 35.35 66.30 37.77Q65.80 40.20 65.90 43.45Q65.90 44.20 66.05 44.95Q66.20 45.55 66.40 45.75Q66.60 45.95 66.85 45.95Q68 45.95 68.75 45.17Q69.50 44.40 70.15 43.30Q70.30 43 70.50 42.70Q70.70 42.40 70.90 42.10L71.20 41.55Q71.35 41.35 71.33 41.45Q71.30 41.55 71.40 41.25L71.45 41.30L71.45 41.25Q71.60 41.10 71.80 40.63Q72 40.15 72.23 39.73Q72.45 39.30 72.50 39.30Q72.50 39.20 72.53 39.02Q72.55 38.85 72.60 38.80Q72.70 38.65 72.83 38.23Q72.95 37.80 73.10 37.75L73.15 37.80Q73.15 38.20 72.90 39.02Q72.65 39.85 72.40 40.52Q72.15 41.20 72.15 41.25Q72.10 41.30 71.88 41.80Q71.65 42.30 71.42 42.85Q71.20 43.40 71.10 43.55Q70.95 43.95 70.38 44.88Q69.80 45.80 69.17 46.60Q68.55 47.40 68.25 47.50Q67.70 47.55 67.28 47.17Q66.85 46.80 66.70 46.80Q66.55 46.30 66.17 46.10Q65.80 45.90 65.50 45.65Q65.35 45.55 65.23 45.38Q65.10 45.20 65 45Q64.50 44.45 64.08 44Q63.65 43.55 63.40 42.70Q63.20 41.80 63.15 40.67Q63.10 39.55 63.15 38.70Q63.15 38.50 63.23 38.13Q63.30 37.75 63.25 37.60L63.30 37.60Q63.35 37.95 63.30 38.23Q63.25 38.50 63.30 38.90L63.35 38.90L63.35 38.85Q63.45 38.65 63.60 37.92Q63.75 37.20 63.70 37Q63.70 37.05 63.67 37.02Q63.65 37 63.65 37L63.60 37Q63.60 37.05 63.63 37.15Q63.65 37.25 63.60 37.35Q63.55 37.25 63.53 37.17Q63.50 37.10 63.45 37.05Q63.45 36.95 63.42 36.90Q63.40 36.85 63.40 36.80Q63.40 36.55 63.48 36.33Q63.55 36.10 63.55 35.90L63.50 35.55Q63.65 35.25 63.70 34.67Q63.75 34.10 63.85 33.75Q63.90 33.60 63.98 33.50Q64.05 33.40 64.10 33.20Q64.15 33.10 64.15 32.90Q64.15 32.70 64.15 32.52Q64.15 32.35 64.20 32.20Q64.30 32 64.48 31.92Q64.65 31.85 64.55 31.50L64.50 31.55L64.45 31.35Q64.75 30.40 65 29.40Q65.25 28.40 65.60 27.50Q65.70 27.25 65.80 27.07Q65.90 26.90 65.95 26.70L66.45 25.50Q64.20 27.70 61.70 29.90Q59.20 32.10 57.03 33.92Q54.85 35.75 53.50 36.95Q53.10 37.30 52.42 37.92Q51.75 38.55 51.30 38.90L48.90 40.85L47.45 42.05Q46.95 42.45 46.92 42.52Q46.90 42.60 46.55 42.90L46.05 43.50L46.05 43.40L45.75 43.80Q45.45 44 44.60 44.33Q43.75 44.65 43.20 44.50Q42.45 44.30 42.17 43.77Q41.90 43.25 41.80 42.60L41.95 42.20Q42.05 41.80 42.13 41.85Q42.20 41.90 42.35 41.55Q45.10 35.15 49.05 28.60Q53 22.05 57.75 16.40Q56.80 17.15 55.20 18.60L46.60 26.30Q46.40 26.50 46.13 26.63Q45.85 26.75 45.70 26.90L43.55 28.85L40.85 31.30Q40.10 31.95 39.78 32.25Q39.45 32.55 38.60 33.20Q38.25 33.40 37.83 33.88Q37.40 34.35 37.05 34.60Q36.60 34.95 36.70 34.98Q36.80 35 36.30 35.35L35.55 35.85L34.70 36.55L34.15 36.95L32.65 38L30.25 39.65L25.35 43.15L23.70 44.30Q22.70 45 21.63 45.63Q20.55 46.25 19.45 46.85Q19.20 46.95 18.63 47.30Q18.05 47.65 17.80 47.65L16.75 48.20Q16.05 48.35 15.65 48.55L14.05 49.05Q13.70 49.15 13.40 49.27Q13.10 49.40 12.70 49.40Q12.50 49.50 11.70 49.67Q10.90 49.85 10.65 49.85L8.70 50.35Q8.50 50.40 8.28 50.38Q8.05 50.35 7.85 50.40ZM92.50 25Q92.50 25 91.95 24.90Q91.40 24.80 90.80 24.45Q90.65 24.30 90.33 24.10Q90.00 23.90 90.20 23.65Q90.30 23.50 90.45 23.50Q90.60 23.30 90.78 23.15Q90.95 23 91.05 22.80Q92.00 21.60 93.08 20.57Q94.15 19.55 95.30 18.60Q95.70 18.25 96.05 17.90Q96.40 17.55 96.85 17.35Q97.40 17.10 97.55 17.25Q97.70 17.40 97.70 17.40Q97.70 17.45 97.65 17.45Q97.55 17.75 97.45 17.95Q97.25 18.20 96.95 18.42Q96.65 18.65 96.55 18.95Q96.55 19.10 96.50 19.10Q96.30 19.30 95.78 19.80Q95.25 20.30 95.25 20.55Q95.10 20.55 95.10 20.60L95.05 20.60Q95.00 20.95 94.75 21.15Q94.50 21.35 94.25 21.60Q94.05 21.80 93.95 22.07Q93.85 22.35 93.70 22.60Q93.55 22.80 93.38 22.92Q93.20 23.05 93.10 23.25Q92.90 23.60 93.00 24.02Q93.10 24.45 93.00 24.85Q92.95 25 92.73 25.02Q92.50 25.05 92.50 25M79.05 43.55Q77.75 43.05 77.90 41.55L78.10 41.15Q78.35 40.75 78.50 40.35Q78.65 39.95 78.85 39.60Q79.90 37.80 80.98 36.02Q82.05 34.25 83.25 32.55Q83.30 32.50 83.33 32.42Q83.35 32.35 83.40 32.35L83.40 32.25Q83.65 32.05 84.10 31.38Q84.55 30.70 85.08 29.92Q85.60 29.15 85.95 28.75Q85.60 29 85.23 29.30Q84.85 29.60 84.55 30Q84.40 30.20 83.83 30.82Q83.25 31.45 82.55 32.23Q81.85 33 81.30 33.63Q80.75 34.25 80.60 34.45Q80.00 35.10 79.75 35.10Q79.65 35.10 79.65 35Q79.65 34.80 80.00 34.35L81.60 32.55Q81.95 32.15 82.28 31.82Q82.60 31.50 82.90 31.15Q83.15 30.90 83.38 30.60Q83.60 30.30 83.85 30.05L84.65 29.20Q84.90 28.95 85.13 28.63Q85.35 28.30 85.60 28.05Q87.10 26.50 87.70 26.10Q88.30 25.70 88.65 25.95Q88.75 25.85 88.90 25.85Q89.05 25.85 89.20 25.93Q89.35 26 89.45 26.05Q89.65 26.15 90.05 26.43Q90.45 26.70 90.70 27.02Q90.95 27.35 90.65 27.65Q90.35 28 89.95 28.15Q89.55 28.30 89.20 28.65Q88.95 28.85 88.68 29.10Q88.40 29.35 88.25 29.65L88.20 29.70Q88.25 30.25 87.50 30.82Q86.75 31.40 86.35 31.80Q86.20 31.95 86.10 32.30L86.05 32.30L85.80 32.35Q85.70 32.70 85.38 32.92Q85.05 33.15 85.05 33.55Q84.75 33.65 84.53 34.20Q84.30 34.75 84.05 34.75L84.05 34.90Q84.05 35.15 83.75 35.48Q83.45 35.80 83.25 35.80Q83.25 35.85 83.25 35.95Q83.25 36.05 83.20 36.05Q83.00 36.20 83.00 36.60L82.85 36.60L82.85 36.65L82.95 36.90L82.65 36.95Q82.60 37.15 82.30 37.63Q82.00 38.10 81.75 38.10L81.75 38.15L81.70 38.15L81.95 38.40L81.90 38.40L81.90 38.45L81.85 38.45Q81.65 38.35 81.55 38.35L81.55 38.40Q81.65 38.60 81.65 38.70Q81.65 39 81.30 39Q81.30 39.05 81.30 39.05L81.40 39.15L81.40 39.20Q81.05 39.25 81.05 39.75L80.95 39.75L80.85 39.70Q80.75 40.05 80.63 40.42Q80.50 40.80 80.35 41.15Q80.30 41.40 80.18 41.63Q80.05 41.85 80.05 42.15L80.10 42.15L80.10 42.10Q80.65 41.70 81.40 41.27Q82.15 40.85 82.65 40.35L86.55 36.65L88.05 35.20Q88.15 35.10 88.45 34.85Q88.75 34.60 88.95 34.50Q89.05 34.45 89.25 34.52Q89.45 34.60 89.35 34.70L87.95 35.90Q87.30 36.40 87.05 36.90Q86.80 37.40 86.15 37.95Q85.70 38.35 85.30 38.80Q84.90 39.25 84.45 39.65L83.10 40.85Q82.65 41.25 82.23 41.75Q81.80 42.25 81.30 42.65L80.65 43.20Q80.45 43.35 80.13 43.50Q79.80 43.65 79.50 43.65Q79.35 43.65 79.05 43.55M89.55 34.30Q89.45 34.30 89.45 34.10Q89.45 33.90 89.55 33.90Q89.65 33.90 89.78 33.83Q89.90 33.75 89.95 33.75Q90.00 33.75 90.00 33.80Q90.00 33.90 89.83 34.10Q89.65 34.30 89.55 34.30ZM87.70 48.25Q87.40 48.05 87.08 47.77Q86.75 47.50 86.65 47.20L86.35 46.40Q86.25 46.05 86.05 45.70Q85.85 45.35 85.85 44.95Q85.95 43.30 86.78 42Q87.60 40.70 88.55 39.45Q89.40 38.30 90.35 37.23Q91.30 36.15 92.40 35.30Q92.80 35 93.18 34.77Q93.55 34.55 93.95 34.35L94.35 34.15L94.45 34.25Q94.15 34.55 93.80 34.75Q93.45 34.95 93.10 35.20L92.85 35.50L92.30 35.85Q92.15 36 92.03 36.15Q91.90 36.30 91.75 36.40Q91.40 36.75 91.05 37.13Q90.70 37.50 90.45 37.90Q90.30 38.05 90.10 38.35Q89.75 38.85 89.45 39.35Q89.15 39.85 88.85 40.40Q88.65 40.75 88.45 41.08Q88.25 41.40 88.15 41.80Q87.95 42.25 87.83 42.70Q87.70 43.15 87.55 43.65L87.55 44.20Q87.55 44.50 87.50 45.02Q87.45 45.55 87.45 46.10Q87.45 46.80 87.65 47.38Q87.85 47.95 88.50 47.95Q88.85 47.75 89.40 47.75L90.35 47.35L92.00 46.05Q93.10 45.20 93.93 44.15Q94.75 43.10 95.50 42.05Q96.35 40.90 97.10 39.67Q97.85 38.45 97.85 36.90Q97.85 36.55 97.80 36.20Q97.75 35.85 97.50 35.65Q97.35 35.50 96.90 34.80Q96.45 34.10 96.25 33.90Q95.90 33.65 95.58 33.08Q95.25 32.50 94.75 31.60Q94.60 31.35 94.40 30.90Q94.20 30.45 94.10 30.25Q94.05 30.25 93.90 30.42Q93.75 30.60 93.75 30.65L93.40 30.95Q93.05 31.25 92.70 31.60Q92.35 31.95 92.05 32.35Q91.50 32.95 90.85 33.52Q90.20 34.10 89.60 34.70Q89.50 34.85 89.10 35.20Q88.70 35.55 88.40 35.90L88.35 35.95Q88.25 35.95 88.18 35.73Q88.10 35.50 88.20 35.40Q88.35 35.15 88.68 34.80Q89.00 34.45 89.05 34.40Q89.65 33.85 90.08 33.45Q90.50 33.05 91.00 32.45Q91.40 32 91.85 31.57Q92.30 31.15 92.75 30.75Q93.35 30.20 93.55 29.73Q93.75 29.25 93.95 28.90Q93.85 28.50 93.85 28.10Q93.85 27.60 94.05 27Q94.25 26.40 94.85 25.75Q95.45 25.10 96.45 24.18Q97.45 23.25 98.50 22.65Q99.00 22.40 99.63 22.10Q100.25 21.80 100.70 21.75Q100.90 21.70 100.90 21.80Q100.90 21.90 101.05 21.90Q101.20 21.90 101.35 21.82Q101.50 21.75 101.65 21.75Q102.05 21.75 102.45 22.30Q102.85 22.85 102.95 23.20Q103.00 23.30 103.23 23.68Q103.45 24.05 103.35 24.15Q103.35 24.15 103.30 24.22Q103.25 24.30 103.05 24.30Q102.75 24.30 102.15 23.90Q101.40 24.05 101.30 24.18Q101.20 24.30 100.80 24.45Q100.80 24.45 100.63 24.60Q100.45 24.75 100.20 24.90L100.15 24.90Q100.05 25.10 99.90 25.10L99.75 25.35Q99.50 25.75 98.75 26.30Q98.00 26.85 97.60 27.25L96.00 28.85Q95.80 29.05 95.45 29.38Q95.10 29.70 95.00 29.95Q94.90 30.40 95.38 31.25Q95.85 32.10 96.45 32.92Q97.05 33.75 97.30 34.15Q97.70 34.70 98.00 35.20Q98.30 35.70 98.55 36.35L98.95 37.80Q99.00 38 99.03 38.17Q99.05 38.35 99.05 38.55Q99.05 38.90 99.00 39.27Q98.95 39.65 98.90 40.05Q98.90 40.25 98.88 40.45Q98.85 40.65 98.80 40.85Q98.75 40.90 98.73 40.92Q98.70 40.95 98.70 40.95Q98.60 40.95 98.50 40.83Q98.40 40.70 98.20 41.10Q98.10 41.30 98.10 41.35Q98.10 41.50 98.30 41.48Q98.50 41.45 98.25 41.80Q98.20 41.90 97.88 42.27Q97.55 42.65 97.25 43Q96.95 43.35 96.95 43.50L96.80 43.45L96.80 43.70Q96.50 43.75 96.45 43.98Q96.40 44.20 96.15 44.40Q96.00 44.55 95.78 44.60Q95.55 44.65 95.45 44.85L95.35 45.20L95.20 45.20L95.25 45.35L95.20 45.35L95.20 45.40Q95.00 45.45 94.78 45.63Q94.55 45.80 94.50 46Q94.50 46.10 94.45 46.10L94.10 46L94.10 45.95L94.05 45.95Q94.00 46.30 93.38 46.63Q92.75 46.95 92.75 47.05L92.80 47.25Q92.35 47.25 91.83 47.55Q91.30 47.85 90.90 48Q90.55 48.20 89.93 48.35Q89.30 48.50 88.70 48.50Q88.10 48.50 87.70 48.25M95.00 29.15L95.00 29.10L95.05 29.10Q95.55 28.40 96.38 27.70Q97.20 27 97.85 26.35Q98.10 26.10 98.38 25.88Q98.65 25.65 98.75 25.35L98.80 25.35L99.10 25Q99.25 24.60 99.25 24.55Q99.25 24.50 99.23 24.47Q99.20 24.45 99.20 24.45Q99.10 24.45 98.85 24.60Q98.60 24.75 98.35 24.95L97.65 25.55Q97.00 26.10 96.50 26.70L95.60 27.50Q95.35 27.70 95.28 27.95Q95.20 28.20 94.95 28.45Q94.95 28.50 94.95 28.82Q94.95 29.15 95.00 29.15ZM103.30 46.60Q103.10 46.65 102.75 46.73Q102.40 46.80 102.00 46.80Q101.50 46.80 100.98 46.60Q100.45 46.40 100.10 45.75Q100.00 45.55 100.00 45.50Q100.00 45.45 99.90 45.25Q99.70 45 99.68 45.08Q99.65 45.15 99.55 44.85Q99.40 44.45 99.63 43.65Q99.85 42.85 99.80 42.50Q99.75 41.85 100.08 41.13Q100.40 40.40 100.50 39.85Q100.75 38.85 101.10 37.90Q101.45 36.95 101.90 36.05Q102.25 35.45 102.55 34.75Q102.85 34.05 102.95 33.70L104.00 31.75Q104.10 31.65 104.05 31.67Q104.00 31.70 103.90 31.70Q103.85 31.70 103.73 31.88Q103.60 32.05 103.50 32.05L103.40 32.05Q103.30 32 102.78 31.98Q102.25 31.95 102.15 31.90Q101.90 31.50 101.80 30.90L101.90 29.50Q102.00 29.55 102.03 29.60Q102.05 29.65 102.15 29.65Q102.20 29.65 102.63 29.57Q103.05 29.50 103.45 29.45Q103.85 29.40 103.90 29.40Q104.00 29.40 104.40 29.42Q104.80 29.45 105.00 29.45Q105.40 29 105.85 28.60Q105.95 28.50 106.13 28.10Q106.30 27.70 106.35 27.70Q106.65 27.30 106.78 27.10Q106.90 26.90 107.25 26.50Q107.95 25.70 108.43 24.80Q108.90 23.90 109.65 23.20Q109.80 23.05 110.20 22.47Q110.60 21.90 111.00 21.38Q111.40 20.85 111.50 20.85L111.50 20.75Q111.50 20.50 111.30 20.45Q111.10 20.40 111.25 20.20Q111.65 19.80 112.38 19.07Q113.10 18.35 113.45 17.95Q114.05 17.35 114.90 17.35Q115.55 17.35 116.00 17.63Q116.45 17.90 116.30 18Q113.85 20 111.75 22.52Q109.65 25.05 108.45 26.95L108.20 27.35Q108.10 27.50 108.03 27.60Q107.95 27.70 107.85 27.85L107.45 28.55L107.00 29.35L106.95 29.45L107.00 29.45Q107.10 29.45 107.35 29.35Q107.60 29.25 107.70 29.25Q107.80 29.25 108.05 29.30Q108.30 29.35 108.40 29.35L108.55 29.35Q108.65 29.35 108.93 29.27Q109.20 29.20 109.30 29.20Q109.40 29.20 109.58 29.25Q109.75 29.30 109.90 29.30Q110.20 29.30 110.60 29.32Q111.00 29.35 111.30 29.40Q111.35 29.40 111.40 29.45Q111.45 29.50 111.50 29.50Q111.60 29.50 112.15 29.52Q112.70 29.55 112.80 29.55Q112.95 29.55 113.05 29.45Q113.05 29.60 113.10 29.65Q113.20 29.55 113.35 29.55Q113.50 29.55 113.65 29.50Q113.65 29.50 113.70 29.55Q113.75 29.60 113.70 29.65Q113.35 29.75 112.90 29.88Q112.45 30 112.35 30Q112.30 30 112.28 29.95Q112.25 29.90 112.15 29.90Q112.10 29.90 111.85 29.98Q111.60 30.05 111.45 30.05Q111.40 30.10 111.40 30.20Q111.35 30.20 111.28 30.13Q111.20 30.05 111.10 30.05Q111.05 30.05 110.83 30.10Q110.60 30.15 110.40 30.20Q110.35 30.25 110.35 30.45Q110.10 30.45 109.68 30.42Q109.25 30.40 109.25 30.40L108.95 30.50Q108.95 30.50 108.85 30.55Q108.75 30.60 108.65 30.70Q108.60 30.70 108.53 30.65Q108.45 30.60 108.35 30.60Q108.30 30.60 107.83 30.70Q107.35 30.80 107.10 30.90Q107.05 30.95 106.93 31.02Q106.80 31.10 106.70 31.10L105.85 31.10Q105.65 31.45 105.63 31.52Q105.60 31.60 105.40 31.95L104.85 32.90Q104.55 33.45 104.48 33.75Q104.40 34.05 104.30 34.35Q104.20 34.65 103.80 35.20Q103.45 35.70 103.33 36.23Q103.20 36.75 103.10 37Q102.85 37.55 102.75 37.92Q102.65 38.30 102.40 38.80L102.40 38.90Q102.40 39 102.33 39.08Q102.25 39.15 102.15 39.25L102.15 39.65Q102.15 39.75 101.95 40.23Q101.75 40.70 101.65 41.25Q101.70 41.40 101.70 41.70Q101.70 42.25 101.38 42.63Q101.05 43 101.15 43.70Q101.20 43.90 101.20 44.83Q101.20 45.75 101.70 46.20Q101.85 46.35 102.15 46.35Q102.65 46.35 103.23 46.02Q103.80 45.70 104.00 45.65L104.30 45.50Q104.30 45.55 104.30 45.55Q104.25 45.60 104.03 45.88Q103.80 46.15 103.85 46.25Q103.70 46.25 103.70 46.25L103.30 46.60ZM108.05 44.85Q107.70 44.75 107.25 44.58Q106.80 44.40 106.65 43.95Q106.60 43.85 106.60 43.55Q106.60 43.15 106.80 42.85Q107.00 42.55 107.15 42.25Q107.65 41.40 108.23 40.60Q108.80 39.80 109.40 39Q109.80 38.45 110.20 37.85Q110.60 37.25 111.00 36.75Q111.00 36.75 111.15 36.55Q111.30 36.35 111.95 35.60L111.90 35.60Q111.90 35.40 111.95 35.40Q112.10 35.25 112.10 35Q112.25 34.90 112.48 34.55Q112.70 34.20 112.80 34.20L112.70 34.05Q113.00 33.80 113.30 33.27Q113.60 32.75 113.80 32.40Q114.35 31.70 114.93 31.07Q115.50 30.45 115.85 29.65L115.90 29.55L115.85 29.55Q115.65 29.70 115.35 29.70Q115.10 29.70 114.83 29.55Q114.55 29.40 114.30 29.25L113.95 29.05Q113.70 29.35 113.40 29.63Q113.10 29.90 112.80 30.25L110.00 33.45L108.90 34.60Q108.65 34.85 108.45 34.85Q108.25 34.85 108.25 34.70Q108.25 34.50 108.65 34.10Q109.20 33.55 109.75 33.02Q110.30 32.50 110.80 31.95Q111.20 31.45 111.60 30.98Q112.00 30.50 112.35 30Q112.65 29.60 113.00 29.23Q113.35 28.85 113.55 28.40L113.55 28.35Q113.55 28.25 113.48 28.13Q113.40 28 113.40 27.85Q113.40 27.55 113.50 27.17Q113.60 26.80 113.70 26.55Q114.25 25.50 115.03 24.60Q115.80 23.70 116.60 22.80Q116.90 22.45 117.25 22.10Q117.60 21.75 117.95 21.50L118.60 21.05L119.10 20.80Q119.45 20.85 120.08 21.30Q120.70 21.75 120.60 22.15Q120.60 22.40 120.13 22.88Q119.65 23.35 119.45 23.60L118.70 24.50L118.30 24.80L117.70 25.45Q117.55 25.65 117.38 25.80Q117.20 25.95 117.05 26.10Q116.95 26.30 116.75 26.30Q116.55 26.65 115.83 27.13Q115.10 27.60 115.10 28Q115.05 28.05 114.90 28.45Q114.75 28.85 115.10 28.85L115.10 28.80L115.15 28.80Q115.25 28.80 115.60 28.67Q115.95 28.55 115.95 28.50L116.10 28.50Q116.25 28.35 116.43 28.30Q116.60 28.25 116.75 28.20Q116.95 28.10 117.08 28Q117.20 27.90 117.40 27.85Q117.55 27.80 117.85 27.80Q118.45 27.80 118.98 28.17Q119.50 28.55 119.75 29.05L119.80 29.15Q119.80 29.30 119.65 29.40L119.00 29.75L118.60 30.05L118.30 30.15L117.60 30.80L117.55 30.85Q117.40 30.85 117.40 30.95Q117.20 31.25 117.00 31.25L116.95 31.25L116.95 31.50Q116.90 31.55 116.80 31.67Q116.70 31.80 116.60 31.80Q116.45 31.80 116.45 31.85L116.40 31.85L116.45 32Q116.10 32.10 115.90 32.30Q115.75 32.45 115.70 32.60Q115.65 32.75 115.55 32.85Q115.40 33.05 115.05 33.40Q114.70 33.75 114.65 33.95Q114.65 34 114.60 34L114.60 34.05L114.25 34.25Q114.25 34.45 113.90 34.83Q113.55 35.20 113.23 35.52Q112.90 35.85 112.90 36L112.95 36.15L112.90 36.15Q112.70 36.30 112.30 36.80Q111.90 37.30 111.90 37.55L111.85 37.55Q111.85 37.55 111.68 37.63Q111.50 37.70 111.25 38.30Q111.10 38.40 110.68 38.95Q110.25 39.50 110.25 39.70Q110.25 39.75 110.20 39.75Q109.95 40.10 109.73 40.75Q109.50 41.40 109.70 41.40Q110.55 40.85 111.40 40.10Q112.10 39.40 112.88 38.70Q113.65 38 114.35 37.30Q114.85 36.75 115.43 36.13Q116.00 35.50 116.50 35L117.45 34.10Q117.60 33.95 117.65 33.95Q117.75 33.95 117.50 34.35Q117.25 34.75 117.15 34.85Q116.80 35.20 116.48 35.67Q116.15 36.15 115.90 36.40Q115.45 36.85 115.08 37.38Q114.70 37.90 114.25 38.35Q114.10 38.55 113.90 38.70Q113.70 38.85 113.50 39.05Q113.15 39.40 112.83 39.88Q112.50 40.35 112.20 40.75Q112.10 40.90 111.85 41.23Q111.60 41.55 111.60 41.70L111.55 41.75L111.00 42.50Q110.80 42.75 110.68 42.73Q110.55 42.70 110.40 42.95L110.15 43.20Q109.55 44.25 108.50 44.70Q108.45 44.70 108.25 44.73Q108.05 44.75 108.05 44.85M117.85 34Q117.70 34 117.70 33.80Q117.70 33.60 117.85 33.60Q117.90 33.60 118.03 33.52Q118.15 33.45 118.20 33.45Q118.25 33.45 118.25 33.50Q118.25 33.60 118.08 33.80Q117.90 34 117.85 34ZM123.95 47.15Q123.70 47.35 123.25 47.35Q122.60 47.35 122.25 46.85L121.95 46.20Q121.85 45.90 121.68 45.65Q121.50 45.40 121.50 45.05Q121.50 44.65 121.60 44.27Q121.70 43.90 121.75 43.55Q121.90 42.85 122.20 42.13Q122.50 41.40 122.75 40.75Q123.25 39.50 123.90 38.33Q124.55 37.15 125.20 35.95L125.80 34.90L125.55 35.25Q125.10 35.90 124.70 36.50Q124.30 37.10 123.85 37.70Q123.10 38.65 122.28 39.58Q121.45 40.50 120.60 41.30Q120.25 41.60 119.85 41.90Q119.45 42.20 119 42.45Q118.60 42.65 118.13 42.95Q117.65 43.25 117.20 43.25Q116.70 43.25 116.25 42.85Q115.80 42.45 115.55 41.95Q115.40 41.65 115.30 41.33Q115.20 41 115.20 40.60Q115.25 40 115.50 39.50Q115.75 39 116 38.50Q116.65 37.35 117.43 36.33Q118.20 35.30 119.10 34.35Q119.25 34.15 119.68 33.67Q120.10 33.20 120.53 32.77Q120.95 32.35 121.10 32.35Q121 32.25 121.10 32.25Q121.25 32.10 121.60 31.75Q121.95 31.40 122.15 31.40Q122.20 31.30 122.35 31.10Q122.50 30.90 122.65 30.90L122.65 30.95Q122.70 30.85 122.78 30.75Q122.85 30.65 122.95 30.65Q122.95 30.55 123 30.55L123.10 30.40L123.25 30.40Q123.35 30.20 123.55 30.20L123.75 29.95Q124 29.65 124.35 29.38Q124.70 29.10 125 28.90L126.15 27.70Q127 27 127.80 26.50L128.35 26.15L128.35 26.10Q128.60 26 128.78 25.82Q128.95 25.65 129.25 25.65Q129.60 25.65 130.05 26Q130.50 26.35 130.90 26.80Q131.05 26.55 131.25 26.30Q131.45 26.05 131.55 25.95Q131.60 25.90 131.93 25.93Q132.25 25.95 132.25 25.90L132.35 25.90Q132.60 26.05 133.18 26.22Q133.75 26.40 134.28 26.67Q134.80 26.95 134.80 27.45Q134.80 27.65 134.65 27.90Q134.45 28.20 134.13 28.38Q133.80 28.55 133.55 28.75L133.10 29.20Q132.90 29.40 132.25 30.10Q131.60 30.80 131.35 30.90Q131.35 30.90 130.83 31.60Q130.30 32.30 129.63 33.23Q128.95 34.15 128.40 34.90Q127.85 35.65 127.80 35.75Q127.30 36.50 126.85 37.05Q126.40 37.60 126 38.30Q125.95 38.50 125.80 38.65Q125.65 38.80 125.55 38.95L125.40 39.40Q125.35 39.55 125.08 40Q124.80 40.45 124.70 40.50Q124.65 40.85 124.33 41.33Q124 41.80 124.05 42L123.95 41.85L123.90 41.90Q123.85 42.10 123.78 42.63Q123.70 43.15 123.45 43.20L123.45 43.30Q123.45 43.50 123.38 43.70Q123.30 43.90 123.25 44.10Q123.20 44.30 123.10 45.02Q123 45.75 123 46.30Q123 47 123.20 47Q123.60 47.05 124.18 46.55Q124.75 46.05 125.05 45.75L125.40 45.40Q125.45 45.45 125.40 45.50Q125.35 45.60 125 46Q124.65 46.40 124.65 46.50Q124.50 46.50 124.50 46.55L123.95 47.15M117.60 41.90Q118.05 41.85 118.73 41.25Q119.40 40.65 119.75 40.60Q119.90 40.30 120.25 40.08Q120.60 39.85 120.80 39.65L122.25 38.25Q123.30 37.20 124.45 36.02Q125.60 34.85 126.60 33.75L127.60 32.20Q128 31.60 128.70 30.75Q129.40 29.90 129.90 29.15Q129.90 28.95 129.93 28.73Q129.95 28.50 130.10 28.20Q130.20 28.10 130.25 27.95Q130.30 27.80 130.35 27.65L130.35 27.60L130.30 27.60Q130 27.90 129.58 28Q129.15 28.10 128.80 28.30L128.30 28.70Q127.55 29.10 126.80 29.55Q126.05 30 125.35 30.55Q125.15 30.55 125.15 30.75Q125.05 30.75 124.53 31.15Q124 31.55 123.53 31.92Q123.05 32.30 123.05 32.35Q122.85 32.55 122.50 32.70Q122.15 32.85 122.15 33.20L121.85 33.20L121.85 33.60L121.60 33.60L121.60 33.65Q121.55 33.75 121.43 33.90Q121.30 34.05 121.15 34.10Q121.10 34.15 121.10 34.10L121.05 34.10Q121 34.25 120.93 34.27Q120.85 34.30 120.75 34.40L120.35 35L120.30 35L120.50 35.40Q120.40 35.40 120.05 35.65Q119.70 35.90 119.70 35.95L119.65 35.95L119.65 36.20Q119.30 36.25 119.23 36.50Q119.15 36.75 119 37L118.45 37.60L118.15 38.40L117.80 38.90Q117.75 38.95 117.68 39.10Q117.60 39.25 117.65 39.25L117.65 39.30Q117.75 39.30 117.63 39.45Q117.50 39.60 117.30 39.55Q117.25 39.75 117 40.30Q116.75 40.85 116.75 41.30Q116.75 42.05 117.60 41.90ZM133.40 43.10Q133.15 43.35 132.30 43.02Q131.45 42.70 131.05 42.50Q130.45 42.25 130.15 41.58Q129.85 40.90 129.95 40.25L130.10 39.85Q130.25 39.45 130.45 38.95Q130.65 38.45 130.85 38.10Q131.55 36.90 131.82 36.33Q132.10 35.75 132.42 35.17Q132.75 34.60 133.55 33.50Q133.60 33.45 133.88 32.90Q134.15 32.35 134.20 32.35L134.55 31.80Q134.90 31.55 135.55 30.48Q136.20 29.40 136.75 28.75Q136.40 29 136.03 29.30Q135.65 29.60 135.35 30Q135.20 30.20 134.63 30.82Q134.05 31.45 133.35 32.23Q132.65 33 132.10 33.63Q131.55 34.25 131.40 34.45Q130.80 35.10 130.55 35.10Q130.45 35.10 130.45 35Q130.45 34.80 130.80 34.35L132.40 32.55Q132.75 32.15 133.07 31.82Q133.40 31.50 133.70 31.15Q133.95 30.90 134.17 30.60Q134.40 30.30 134.65 30.05L135.45 29.20L137.65 26.40Q139 24.70 142 20.57Q145 16.45 150.45 10.70Q151.15 10.35 151.68 9.82Q152.20 9.30 152.35 9.25Q152.75 9.15 152.90 9.15Q153.40 9.15 153.80 9.50Q154.20 9.85 154.40 10.60Q154.50 11 154.90 11.57Q155.30 12.15 155 12.50Q154.85 12.65 154.35 13.32Q153.85 14 153.40 14.67Q152.95 15.35 152.85 15.60Q152.50 15.80 152.03 16.52Q151.55 17.25 151.30 17.65Q151.35 17.95 150.63 18.80Q149.90 19.65 148.93 20.67Q147.95 21.70 147.13 22.50Q146.30 23.30 146.15 23.50Q146.10 23.55 145.67 23.97Q145.25 24.40 144.85 24.80Q144.45 25.20 144.40 25.30L144.35 25.30L144.05 25.70Q144 25.95 143.28 26.47Q142.55 27 141.85 27.55Q141.15 28.10 141.15 28.35Q141 28.40 140.40 28.88Q139.80 29.35 139.07 29.98Q138.35 30.60 137.75 31.05Q137.15 31.50 137.05 31.50L135.55 34.15L135.55 34.25Q135.55 34.55 135.25 34.88Q134.95 35.20 134.75 35.20Q134.75 35.40 134.70 35.40Q134.50 35.55 134.50 35.95L134.45 35.95L134.35 36L134.45 36.25L134.15 36.30Q134.10 36.50 133.80 37Q133.50 37.50 133.25 37.50L133.25 37.55L133.20 37.55Q133.50 37.80 133.32 37.75Q133.15 37.70 133.05 37.70L133.05 37.75Q133.15 37.95 133.15 38.05Q133.15 38.35 132.80 38.35Q132.80 38.45 132.85 38.45L132.90 38.50L132.90 38.55Q132.55 38.65 132.55 39.10L132.45 39.10L132.05 40.05Q132.05 40.10 132.03 40.13Q132 40.15 132 40.20Q132 40.40 132.15 40.35Q132.30 40.30 132.20 40.60Q132.10 40.90 132.03 41.08Q131.95 41.25 131.95 41.35Q131.95 41.45 132.03 41.55Q132.10 41.65 132.15 41.75Q132.40 41.95 133.15 41.70Q133.90 41.45 134.65 41.02Q135.40 40.60 135.70 40.30L139.65 36.55L141.15 35.10Q141.25 35.05 141.65 34.65Q142.05 34.25 142.25 34.15Q142.35 34.10 142.55 34.17Q142.75 34.25 142.65 34.35L141.05 35.80Q140.40 36.35 140.13 36.83Q139.85 37.30 139.25 37.85Q138.75 38.25 138.32 38.70Q137.90 39.15 137.50 39.60L136.05 41.15Q135.55 41.55 135.20 41.83Q134.85 42.10 134.35 42.55Q134.20 42.70 133.88 42.85Q133.55 43 133.40 43.10M139.25 28.85Q140.50 28.10 141.92 26.82Q143.35 25.55 144.70 24.13Q146.05 22.70 147.10 21.45Q148.15 20.20 148.65 19.60Q148.75 19.50 148.90 19Q149.05 18.50 149.70 17.70Q149.95 17.35 150.22 16.80Q150.50 16.25 150.85 15.80Q151.40 15.10 151.68 14.42Q151.95 13.75 151.95 13.40Q151.95 13.10 151.75 13.10Q151.50 13.10 150.90 13.70Q150.55 13.95 149.53 15.13Q148.50 16.30 147.15 17.95Q145.80 19.60 144.45 21.32Q143.10 23.05 142.03 24.38Q140.95 25.70 140.50 26.25Q140.05 26.75 139.60 27.48Q139.15 28.20 139 28.65Q138.85 29.10 139.25 28.85M142.85 33.95Q142.75 33.95 142.75 33.75Q142.75 33.55 142.85 33.55Q142.90 33.55 143.05 33.48Q143.20 33.40 143.25 33.40Q143.30 33.40 143.30 33.45Q143.30 33.50 143.10 33.73Q142.90 33.95 142.85 33.95Z"/></g></g></g></svg>