<svg xmlns="http://www.w3.org/2000/svg" viewBox="0 8.449999809265137 154.50357055664062 38.25" data-asc="0.85" width="154.50357055664062" height="38.25"><defs/><g><g fill="#ffffff"><g transform="translate(0, 0)"><path d="M12.15 46.15Q10.25 46.15 8.60 45.55Q6.95 44.95 5.95 43.63Q4.95 42.30 4.95 40.10Q4.95 38.30 5.97 36.75Q7 35.20 8.40 34.25Q8.70 34 9.08 33.75Q9.45 33.50 9.80 33.50L9.90 33.50Q9.75 33.85 9.13 34.33Q8.50 34.80 7.75 35.55Q7 36.30 6.42 37.40Q5.85 38.50 5.85 40Q5.85 42.55 7.38 43.80Q8.90 45.05 11.30 45.05Q12.30 45.05 13.43 44.80Q14.55 44.55 15.50 44.65L15.55 44.60Q15.65 44.50 15.88 44.48Q16.10 44.45 16.25 44.40Q16.65 44 17.58 43.60Q18.50 43.20 19.58 42.85Q20.65 42.50 21.43 42.17Q22.20 41.85 22.25 41.65L22.70 41.70Q22.80 41.50 22.93 41.33Q23.05 41.15 23.25 41.15L23.35 41.15Q23.60 40.90 24.05 40.58Q24.50 40.25 24.85 40.35Q25.05 39.90 25.40 39.75Q25.75 39.60 25.80 39.10L26.05 39.10Q26.50 38.55 27.23 38.02Q27.95 37.50 28.45 37L28.65 37.05L28.70 37Q28.90 36.80 29.10 36.45Q29.30 36.10 29.65 36.20L29.55 35.80Q29.90 35.70 30.48 35.13Q31.05 34.55 31.30 34.55L31.35 34.15L31.40 34.20L31.40 34.15L31.65 34.15Q31.70 33.90 31.80 33.65Q31.90 33.40 32.25 33.50Q32.40 33.20 32.68 32.88Q32.95 32.55 33.15 32.30Q33.25 31.90 33.25 31.80Q33.25 31.70 33.25 31.70Q33.25 31.70 33.25 31.65Q33.25 31.60 33.30 31.55Q33.45 31.55 33.80 31.07Q34.15 30.60 34.48 30.13Q34.80 29.65 34.90 29.70Q35.10 29.40 35.40 28.77Q35.70 28.15 35.95 27.95L36.10 27.55Q36.20 27.55 36.18 27.57Q36.15 27.60 36.25 27.60Q36.30 27.60 36.30 27.55Q36.30 27.50 36.25 27.50Q36.45 27.25 36.60 26.98Q36.75 26.70 36.90 26.45Q36.90 26.20 37.23 25.72Q37.55 25.25 37.80 25.30Q37.80 25.25 37.75 25.18Q37.70 25.10 37.70 25.05Q37.70 24.70 38.00 24.80L38.05 25L38.10 25L38.15 24.95L38.15 24.70L38.00 24.30L38.45 24.25L38.45 23.85L38.85 23.75L38.85 23.15Q39.10 23 39.43 22.40Q39.75 21.80 39.80 21.55L40.05 21.50Q40.10 21.40 40.08 21.27Q40.05 21.15 40.05 21.10Q40.55 20.75 40.65 20.25Q40.85 20.15 41.05 19.80Q41.25 19.45 41.35 19.25Q41.35 19 41.48 18.82Q41.60 18.65 41.65 18.45Q41.50 18.40 40.85 18.25Q40.20 18.10 40.20 17.90L40.15 17.90Q40.05 18 39.85 18Q39.35 18 38.95 17.63Q38.55 17.25 38.15 17.15L38.15 17.20Q38.35 17.40 38.30 17.60L37.50 17.30L37.55 17.10L37.70 17.15L37.70 17.10L37.20 16.90L37.05 17.20L36.65 16.90Q36.25 16.80 35.83 16.77Q35.40 16.75 35 16.55Q34.90 16.65 34.75 16.65Q34.40 16.65 34.15 16.38Q33.90 16.10 33.65 16.05Q33.45 16.35 33.10 16.35L33.20 15.95L33 15.90L32.90 16.20Q32.80 16.10 32.65 16.10L32.35 15.90L32.20 16L31.80 16L31.85 15.70L31.80 15.70L31.75 15.75Q31.45 15.90 31 15.90Q30.70 15.90 30.40 15.85Q30.10 15.80 29.75 15.75L29.70 15.50Q29.55 15.55 29.35 15.50L29.30 15.45L29.20 15.70Q28.80 15.60 28.55 15.60Q28.30 15.60 27.85 15.60Q27.25 15.60 26.63 15.42Q26.00 15.25 25.40 15.25Q25.15 15.25 24.88 15.20Q24.60 15.15 24.35 15.10Q24.15 15.25 23.90 15.25Q23.70 15.25 23.53 15.22Q23.35 15.20 23.15 15.15L23.10 15.35L22.95 15.35Q22.80 15.35 22.30 15.38Q21.80 15.40 21.33 15.45Q20.85 15.50 20.80 15.65Q20.60 15.65 20.35 15.67Q20.10 15.70 19.85 15.65Q19.60 15.95 18.63 16.10Q17.65 16.25 16.75 16.35Q15.85 16.45 15.80 16.70Q13.15 17.20 10.55 18.52Q7.95 19.85 5.85 21.85Q3.75 23.85 2.47 26.40Q1.20 28.95 1.20 31.85Q1.20 32.50 1.40 33.20Q1.60 33.90 1.60 34.25Q1.60 34.35 1.50 34.35Q1.30 34.25 1.20 33.92Q1.10 33.60 0.80 33.60L0.65 33.75Q0.20 33.45 0.10 32.83Q0 32.20 0 31.70Q0 29.85 0.70 27.98Q1.40 26.10 2.50 24.38Q3.60 22.65 4.80 21.35Q5.35 20.80 6 20.35Q6.65 19.90 7.30 19.40Q7.40 19.30 7.80 19.05Q8.20 18.80 8.63 18.52Q9.05 18.25 9.05 18.20Q9.60 18 10.70 17.45Q11.80 16.90 12.95 16.40Q14.10 15.90 14.75 15.90L14.85 15.90Q15.05 15.60 16.23 15.30Q17.40 15 18.93 14.75Q20.45 14.50 21.75 14.38Q23.05 14.25 23.50 14.30L23.55 14.25Q23.70 14.10 23.95 14.10Q24.15 14.10 24.33 14.15Q24.50 14.20 24.65 14.25Q24.95 14.10 25.30 14.10Q25.55 14.10 25.80 14.13Q26.05 14.15 26.25 14.20Q26.35 14.15 26.55 14.15Q26.85 14.15 27.18 14.22Q27.50 14.30 27.70 14.35Q27.85 14.20 28.05 14.20Q28.35 14.20 28.75 14.40Q28.80 14.30 29.05 14.30Q29.35 14.30 29.63 14.38Q29.90 14.45 30.20 14.55L30.30 14.35Q31.30 14.55 32.50 14.80Q33.70 15.05 34.75 15.05Q34.85 15.05 35.33 15.15Q35.80 15.25 35.80 15.40Q35.80 15.35 36 15.35Q36.20 15.40 36.75 15.50Q37.30 15.60 37.25 15.70Q37.30 15.70 37.40 15.67Q37.50 15.65 37.55 15.65Q38.10 15.65 38.58 15.88Q39.05 16.10 39.55 16.20L39.55 16.15L39.70 16.05Q39.90 16.15 40.53 16.32Q41.15 16.50 41.35 16.50Q41.60 16.50 41.60 16.35L41.80 16.40L41.95 16.70L42.40 16.80L42.40 16.75Q42.75 16.25 43.03 15.42Q43.30 14.60 43.30 14Q43.30 13.50 43.05 13.22Q42.80 12.95 42.80 12.60Q42.80 12.60 42.80 12.57Q42.80 12.55 42.85 12.55L43.00 12.50Q43.65 12.60 44.78 12.63Q45.90 12.65 46.80 12.95Q47.70 13.25 47.70 14.25Q47.70 14.85 47.48 15.63Q47.25 16.40 47.05 16.95Q47.15 17.25 47.45 17.35Q47.75 17.45 48.00 17.50L48.10 17.25L48.30 17.30L48.30 17.50L48.60 17.35Q48.70 17.55 48.85 17.55Q49.00 17.55 49.15 17.55L49.30 17.55L49.35 17.80Q49.40 17.75 49.45 17.80L49.50 17.55Q49.65 17.60 49.75 17.70Q49.85 17.80 50.00 17.85Q50.00 17.85 50.03 17.82Q50.05 17.80 50.05 17.85Q50.10 17.80 50.20 17.80Q50.40 17.80 50.50 17.92Q50.60 18.05 50.75 18.10L50.80 18.15L50.85 18.05L51.00 17.80Q51.25 17.85 51.53 17.92Q51.80 18 52.05 18.05L52.00 18.30L52.05 18.30Q52.15 18.25 52.40 18.25Q52.80 18.25 53.18 18.38Q53.55 18.50 53.95 18.60Q54.35 18.65 54.38 18.77Q54.40 18.90 54.55 18.95L54.55 18.90Q54.85 18.75 55.25 18.75Q56.05 18.75 56.80 18.92Q57.55 19.10 58.30 19.25Q58.35 19.20 58.55 19.20Q58.65 19.20 58.83 19.22Q59.00 19.25 59.10 19.25Q60.10 19.25 61.55 19.07Q63.00 18.90 64.42 18.52Q65.85 18.15 66.70 17.55Q66.95 17.35 67.17 17.10Q67.40 16.85 67.75 16.85Q67.45 18 66.40 18.88Q65.35 19.75 63.93 20.35Q62.50 20.95 61.08 21.25Q59.65 21.55 58.60 21.55Q58.25 21.55 57.93 21.52Q57.60 21.50 57.30 21.45Q56.85 21.35 56.38 21.38Q55.90 21.40 55.45 21.30Q55.40 21.25 55.35 21.25Q55.30 21.25 55.30 21.20L55.20 21.15Q55.10 21.20 54.90 21.20Q53.20 21.20 51.60 20.70Q50.00 20.20 48.35 20L48.25 19.95L48.20 19.95Q48.10 19.85 47.85 19.75Q47.60 19.65 47.40 19.60L47.20 19.65L47.05 19.65Q46.75 19.65 46.30 19.55Q45.85 19.45 45.90 19.25Q45.75 19.40 45.30 20.17Q44.85 20.95 44.30 21.90Q43.75 22.85 43.30 23.55Q42.85 24.25 42.65 24.20Q42.60 24.50 42.20 25.05Q41.80 25.60 41.35 26.07Q40.90 26.55 40.60 26.65L40.45 26.70L40.40 26.70Q40.40 26.85 40.33 27.07Q40.25 27.30 40.00 27.25Q39.95 27.45 39.43 28.15Q38.90 28.85 38.20 29.70Q37.50 30.55 36.88 31.23Q36.25 31.90 36.05 32.10L36.05 32.20Q36.20 32.35 36.20 32.40Q36.20 32.55 35.88 32.52Q35.55 32.50 35.50 32.60Q35.30 33.05 35.05 33.42Q34.80 33.80 34.20 33.70L34.15 33.85L34.30 34.10Q33.95 34.10 33.58 34.48Q33.20 34.85 33.05 35.15L32.95 35.25L32.80 35.30L32.80 35.35Q32.80 35.55 32.25 36.08Q31.70 36.60 30.93 37.20Q30.15 37.80 29.48 38.23Q28.80 38.65 28.50 38.65L28.45 38.65L28.45 38.70Q27.65 39.20 27.03 39.67Q26.40 40.15 25.65 40.70L25.45 41.10Q25.10 41.35 24.58 41.48Q24.05 41.60 23.85 41.95Q23.85 41.95 23.80 41.98Q23.75 42 23.75 42.05Q23.25 42.05 22.48 42.70Q21.70 43.35 21.15 43.60Q19.15 44.55 16.78 45.35Q14.40 46.15 12.15 46.15ZM54.35 33.95Q54.50 33.95 54.40 34.17Q54.30 34.40 54.30 34.50L52.65 36.55Q52.25 37.05 51.75 37.38Q51.25 37.70 50.80 38.15Q50.65 38.35 50.30 38.50Q49.95 38.65 49.75 38.85Q49.55 39.05 48.78 39.17Q48 39.30 47.70 39.30Q47.65 39.30 47.55 39.20L47.35 39.50Q46.85 40.30 46.18 40.95Q45.50 41.60 44.80 42.15Q44.45 42.45 44.08 42.73Q43.70 43 43.30 43.20Q42.90 43.40 42.25 43.40Q41.55 43.40 40.90 43.15Q39.95 42.80 39.45 41.95Q39.25 41.60 39.08 41.20Q38.90 40.80 38.90 40.30Q38.90 39.75 39.05 39.33Q39.20 38.90 39.35 38.50Q40.25 36.30 41.80 34.35Q41.90 34.25 42.08 33.95Q42.25 33.65 42.45 33.35Q42.20 33.55 41.88 33.83Q41.55 34.10 41.30 34.35Q41 34.70 40.83 34.85Q40.65 35 40.25 35.50Q40.15 35.70 39.70 36.02Q39.25 36.35 39.15 36.35Q39 36.35 39.08 36.08Q39.15 35.80 39.95 35Q40.10 34.90 40.20 34.75Q40.30 34.60 40.40 34.45L41.90 32.70L43.50 31.25Q43.75 31 44.28 30.42Q44.80 29.85 45.75 29.10Q46 28.90 46.53 28.32Q47.05 27.75 47.25 27.55Q47.50 27.30 47.75 27.40L47.95 27.15Q48.25 26.75 48.55 26.77Q48.85 26.80 49.20 26.50L49.65 26.15L49.70 26.15L49.70 26.10Q49.95 26 50.08 25.82Q50.20 25.65 50.50 25.65Q50.90 25.65 51.50 26.10Q52.10 26.55 52.60 27.07Q53.10 27.60 53.20 28Q53.20 28.10 53.20 28.15Q53.20 28.20 53.25 28.30Q53.50 28.55 53.50 29.20Q53.50 29.95 53.20 30.82Q52.90 31.70 52.58 32.42Q52.25 33.15 52.05 33.45Q52.05 33.45 51.98 33.27Q51.90 33.10 51.75 33.35L51.50 33.70L51.55 34.10L51.45 34.45L51.40 34.45Q51.25 34.75 50.83 35.30Q50.40 35.85 49.80 36.60Q49.50 36.95 49.15 37.40Q48.80 37.85 48.50 38.25L48.65 38.25Q49.15 38.25 49.78 37.90Q50.40 37.55 50.80 37.25Q51.50 36.85 52.08 36.23Q52.65 35.60 53.30 34.90Q53.50 34.65 53.65 34.48Q53.80 34.30 54 34.10Q54.15 33.95 54.35 33.95M46.15 37.30Q46.70 36.90 47.65 36.08Q48.60 35.25 49.95 33.40Q50.15 33.15 50.60 32.38Q51.05 31.60 51.15 31.35Q51.40 30.80 51.63 30.17Q51.85 29.55 51.85 28.90Q51.85 28.20 51.80 27.88Q51.75 27.55 51.40 27.55Q51 27.55 50.15 28.05L49.75 28.45Q48.45 29.25 47.15 30.30Q47.10 30.35 47.03 30.38Q46.95 30.40 46.95 30.50Q46.85 30.50 46.45 30.95Q46.05 31.40 45.70 31.85Q45.35 32.30 45.35 32.35Q45.25 32.55 44.93 32.70Q44.60 32.85 44.65 33.20L44.30 33.20L44.40 33.60L44.15 33.60L44.15 33.65Q44.15 34 43.80 34.10Q43.70 34.20 43.70 34.10Q43.65 34.25 43.58 34.27Q43.50 34.30 43.40 34.40L43.10 35L42.85 35.65Q42.80 35.65 42.48 35.90Q42.15 36.15 42.15 36.20L42.20 36.45Q41.85 36.50 41.80 36.75Q41.75 37 41.65 37.25L41.65 37.60L41 38.85L40.70 39.35Q40.65 39.40 40.60 39.55Q40.55 39.70 40.60 39.70L40.60 39.75L40.70 39.75L40.75 39.35Q40.85 39.55 40.90 39.98Q40.95 40.40 40.90 40.65Q40.85 40.85 40.78 41.13Q40.70 41.40 40.70 41.65L40.70 42.05Q40.70 42.40 41.15 42.50Q41.60 42.60 41.85 42.55Q41.95 42.50 42.43 42.25Q42.90 42 43.33 41.73Q43.75 41.45 43.70 41.35L43.75 41.40L43.90 41.40Q44 41.15 44.35 40.95Q44.70 40.75 44.90 40.55Q45.25 40.25 45.63 39.92Q46 39.60 46.25 39.25L46.75 38.55Q46.05 38.40 46.05 37.80Q46.05 37.60 46.15 37.30ZM64.50 46.60Q64.10 46.70 63.50 46.70Q63 46.70 62.58 46.60Q62.15 46.50 61.90 46.25Q61.75 46.05 61.77 46Q61.80 45.95 61.65 45.75Q61.45 45.50 61.42 45.60Q61.40 45.70 61.30 45.35Q61.20 45.05 61.17 44.48Q61.15 43.90 61.15 43.30Q61.15 42.70 61.10 42.50Q61.05 41.85 61.17 41.27Q61.30 40.70 61.35 40.15Q61.50 39.15 61.83 38.20Q62.15 37.25 62.60 36.35Q62.90 35.75 63.05 35.25Q63.20 34.75 63.25 34.40Q62.40 35.60 61.38 37.10Q60.35 38.60 59.40 39.85Q58.45 41.10 57.80 41.65Q57.30 42 56.80 42.27Q56.30 42.55 55.85 42.55Q55.15 42.55 54.65 41.85Q54.30 41.35 54.30 40.85Q54.30 40.25 54.80 39.60Q54.85 39.55 54.70 39.25Q54.55 38.95 54.80 38.75Q55 38.50 55.25 38.02Q55.50 37.55 55.70 37.30Q55.85 37.05 56.02 36.85Q56.20 36.65 56.45 36.20Q56.55 36.05 56.88 35.50Q57.20 34.95 57.30 34.75Q57.85 34.05 58.48 33.08Q59.10 32.10 59.40 31.65L59.50 31.50Q59.20 31.70 57.90 33.10Q56.60 34.50 55 36Q54.70 36.20 54.60 36.20Q54.50 36.20 54.50 36.10Q54.50 35.90 54.80 35.60L56 34.30Q56.30 34.05 56.75 33.40Q57.20 32.75 57.50 32.55Q57.80 32.25 58.17 31.75Q58.55 31.25 58.85 30.90Q60.05 29.50 60.52 28.63Q61 27.75 61.45 27.20Q61.70 26.95 61.92 26.60Q62.15 26.25 62.35 26Q62.55 25.70 62.70 25.55L63.40 25.70Q63.60 25.70 64.05 25.90Q64.50 26.10 64.83 26.45Q65.15 26.80 64.95 27.20Q64.95 27.25 64.55 27.63Q64.15 28 63.75 28.40Q63.35 28.80 63.25 28.85Q63.25 28.85 63.23 28.85Q63.20 28.85 63.15 28.90Q62.30 29.90 62.02 30.10Q61.75 30.30 61.70 30.35Q61.65 30.40 61.50 31Q61.30 31.10 60.90 31.57Q60.50 32.05 60.40 32.25L60.15 32.65L59.80 33.05L59.65 33.55Q59.60 33.70 59.50 33.85Q59.40 34 59.30 34.15L58.40 35.25Q58.25 35.45 58.20 35.67Q58.15 35.90 58.05 36.20Q58 36.25 57.88 36.60Q57.75 36.95 57.65 36.95Q57.65 37.35 57.35 37.77Q57.05 38.20 56.80 38.50Q56.70 38.70 56.35 39.60Q56 40.50 56.05 41Q56.25 41 56.25 41.27Q56.25 41.55 56.45 41.50Q56.90 41.35 57.45 40.85Q58 40.35 58.25 40.15Q59.50 39 60.42 37.63Q61.35 36.25 62.25 34.85Q63.15 33.45 64.20 32.35Q64.45 32.10 64.75 31.42Q65.05 30.75 65.80 30.75Q66.10 30.75 66.50 30.95Q66.65 31 67.08 31.35Q67.50 31.70 67.80 32.02Q68.10 32.35 67.95 32.45Q67.85 32.50 67.65 32.70Q67.50 32.85 67.08 33.27Q66.65 33.70 66.40 33.65Q66.40 33.65 66.20 34Q66 34.35 65.15 35.60Q65.05 35.50 64.72 36.13Q64.40 36.75 64.30 37Q64.10 37.55 63.83 37.92Q63.55 38.30 63.30 38.80L63.30 38.90Q63.30 39 63.23 39.08Q63.15 39.15 63.05 39.25Q63.10 39.40 63.10 39.65Q63.10 39.75 62.92 40.23Q62.75 40.70 62.65 41.25Q62.70 41.40 62.73 41.52Q62.75 41.65 62.75 41.75Q62.75 42.25 62.45 42.65Q62.15 43.05 62.25 43.70Q62.30 43.90 62.35 44.83Q62.40 45.75 62.95 46.20Q63.10 46.35 63.40 46.35Q63.90 46.35 64.45 46.05Q65 45.75 65.20 45.65L65.45 45.50Q65.50 45.55 65.45 45.55Q65.40 45.60 65.20 45.88Q65 46.15 65.05 46.25Q64.90 46.25 64.90 46.25L64.50 46.60ZM67.80 44.85Q67.45 44.75 67 44.58Q66.55 44.40 66.40 43.95Q66.35 43.85 66.35 43.55Q66.35 43.15 66.55 42.85Q66.75 42.55 66.90 42.25Q67.40 41.40 67.97 40.60Q68.55 39.80 69.15 39Q69.55 38.45 69.95 37.85Q70.35 37.25 70.75 36.75Q70.75 36.75 70.90 36.55Q71.05 36.35 71.70 35.60L71.65 35.60Q71.65 35.40 71.70 35.40Q71.85 35.25 71.85 35Q72 34.90 72.22 34.55Q72.45 34.20 72.55 34.20L72.45 34.05Q72.75 33.80 73.05 33.27Q73.35 32.75 73.55 32.40Q74.10 31.70 74.67 31.07Q75.25 30.45 75.60 29.65L75.65 29.55L75.60 29.55Q75.40 29.70 75.10 29.70Q74.85 29.70 74.57 29.55Q74.30 29.40 74.05 29.25L73.70 29.05Q73.45 29.35 73.15 29.63Q72.85 29.90 72.55 30.25L69.75 33.45L68.65 34.60Q68.40 34.85 68.20 34.85Q68 34.85 68 34.70Q68 34.50 68.40 34.10Q68.95 33.55 69.50 33.02Q70.05 32.50 70.55 31.95Q70.95 31.45 71.35 30.98Q71.75 30.50 72.10 30Q72.40 29.60 72.75 29.23Q73.10 28.85 73.30 28.40L73.30 28.35Q73.30 28.25 73.22 28.13Q73.15 28 73.15 27.85Q73.15 27.55 73.25 27.17Q73.35 26.80 73.45 26.55Q74 25.50 74.77 24.60Q75.55 23.70 76.35 22.80Q76.65 22.45 77 22.10Q77.35 21.75 77.70 21.50L78.35 21.05L78.85 20.80Q79.20 20.85 79.82 21.30Q80.45 21.75 80.35 22.15Q80.35 22.40 79.88 22.88Q79.40 23.35 79.20 23.60L78.45 24.50L78.05 24.80L77.45 25.45Q77.30 25.65 77.13 25.80Q76.95 25.95 76.80 26.10Q76.70 26.30 76.50 26.30Q76.30 26.65 75.57 27.13Q74.85 27.60 74.85 28Q74.80 28.05 74.65 28.45Q74.50 28.85 74.85 28.85L74.85 28.80L74.90 28.80Q75 28.80 75.35 28.67Q75.70 28.55 75.70 28.50L75.85 28.50Q76 28.35 76.17 28.30Q76.35 28.25 76.50 28.20Q76.70 28.10 76.82 28Q76.95 27.90 77.15 27.85Q77.30 27.80 77.60 27.80Q78.20 27.80 78.72 28.17Q79.25 28.55 79.50 29.05L79.55 29.15Q79.55 29.30 79.40 29.40L78.75 29.75L78.35 30.05L78.05 30.15L77.35 30.80L77.30 30.85Q77.15 30.85 77.15 30.95Q76.95 31.25 76.75 31.25L76.70 31.25L76.70 31.50Q76.65 31.55 76.55 31.67Q76.45 31.80 76.35 31.80Q76.20 31.80 76.20 31.85L76.15 31.85L76.20 32Q75.85 32.10 75.65 32.30Q75.50 32.45 75.45 32.60Q75.40 32.75 75.30 32.85Q75.15 33.05 74.80 33.40Q74.45 33.75 74.40 33.95Q74.40 34 74.35 34L74.35 34.05L74 34.25Q74 34.45 73.65 34.83Q73.30 35.20 72.97 35.52Q72.65 35.85 72.65 36L72.70 36.15L72.65 36.15Q72.45 36.30 72.05 36.80Q71.65 37.30 71.65 37.55L71.60 37.55Q71.60 37.55 71.42 37.63Q71.25 37.70 71 38.30Q70.85 38.40 70.42 38.95Q70 39.50 70 39.70Q70 39.75 69.95 39.75Q69.70 40.10 69.47 40.75Q69.25 41.40 69.45 41.40Q70.30 40.85 71.15 40.10Q71.85 39.40 72.63 38.70Q73.40 38 74.10 37.30Q74.60 36.75 75.17 36.13Q75.75 35.50 76.25 35L77.20 34.10Q77.35 33.95 77.40 33.95Q77.50 33.95 77.25 34.35Q77 34.75 76.90 34.85Q76.55 35.20 76.22 35.67Q75.90 36.15 75.65 36.40Q75.20 36.85 74.82 37.38Q74.45 37.90 74 38.35Q73.85 38.55 73.65 38.70Q73.45 38.85 73.25 39.05Q72.90 39.40 72.57 39.88Q72.25 40.35 71.95 40.75Q71.85 40.90 71.60 41.23Q71.35 41.55 71.35 41.70L71.30 41.75L70.75 42.50Q70.55 42.75 70.42 42.73Q70.30 42.70 70.15 42.95L69.90 43.20Q69.30 44.25 68.25 44.70Q68.20 44.70 68 44.73Q67.80 44.75 67.80 44.85M77.60 34Q77.45 34 77.45 33.80Q77.45 33.60 77.60 33.60Q77.65 33.60 77.77 33.52Q77.90 33.45 77.95 33.45Q78 33.45 78 33.50Q78 33.60 77.82 33.80Q77.65 34 77.60 34ZM80.85 46.60Q80.50 46.60 80.35 46.48Q80.20 46.35 79.95 46.10Q79.60 45.70 79.07 45.15Q78.55 44.60 78.55 44.05Q78.55 43.50 79.27 42.70Q80.00 41.90 80.45 41.60Q80.60 41.30 81.00 40.92Q81.40 40.55 81.75 40.50L81.75 40.45Q82.00 40.20 82.22 39.92Q82.45 39.65 82.75 39.55L82.90 39.30Q83.00 39.25 83.10 39.17Q83.20 39.10 83.30 39.05Q83.45 38.90 83.55 38.90L83.75 38.60L83.85 38.65Q83.90 38.55 84.17 38.38Q84.45 38.20 84.55 38.15L84.60 38.15L84.60 38.20Q84.15 38.60 83.30 39.45Q82.45 40.30 81.55 41.30Q80.65 42.30 80.02 43.17Q79.40 44.05 79.40 44.45Q79.40 44.75 79.62 44.90Q79.85 45.05 80.10 45.05Q80.50 45.05 80.82 44.77Q81.15 44.50 81.40 44.45L81.45 44.35Q81.65 44.35 81.77 44.17Q81.90 44 82.10 43.95Q82.15 43.85 82.77 43.35Q83.40 42.85 84.10 42.30Q84.80 41.75 85.00 41.55Q85.25 41.30 86.35 40.20Q87.45 39.10 88.85 37.35Q89.55 36.50 90.72 34.70Q91.90 32.90 93.05 30.73Q94.20 28.55 94.70 26.55Q94.75 26.30 94.80 26.02Q94.85 25.75 94.85 25.55Q94.85 25.20 94.80 25Q94.75 24.80 94.35 24.80Q93.35 24.80 92.50 25.47Q91.65 26.15 91.10 26.80Q90.55 27.45 90.35 27.50Q90.35 27.50 90.25 27.60L90.25 27.65L90.20 27.60Q89.70 28.10 89.30 28.73Q88.90 29.35 88.40 29.90Q88.25 30.10 88.05 30.23Q87.85 30.35 87.70 30.50Q87.30 30.95 86.95 31.42Q86.60 31.90 86.20 32.40L86.10 32.50Q86.05 32.80 85.85 33.02Q85.65 33.25 85.50 33.50Q85.05 34.05 84.60 34.65Q84.15 35.25 83.65 35.80Q83.10 36.45 82.65 37.20Q82.20 37.95 81.65 38.65Q81.45 38.90 81.17 39.70Q80.90 40.50 80.55 40.50Q80.10 40.50 79.52 39.88Q78.95 39.25 78.95 38.75Q78.95 38.50 79.05 38.23Q79.15 37.95 79.15 37.70L79.20 37.40Q80.45 34.60 81.90 32.20Q82.10 31.95 82.35 31.65Q82.60 31.35 82.60 31Q82.85 30.90 83.07 30.48Q83.30 30.05 83.40 29.85Q83.80 29.25 84.20 28.60Q84.60 27.95 85.00 27.40Q85.25 27.05 85.80 26.32Q86.35 25.60 87 24.77Q87.65 23.95 88.13 23.25Q88.60 22.55 88.70 22.25Q88.70 22.25 88.72 22.25Q88.75 22.25 88.70 22.20Q88.50 22.25 88.02 22.80Q87.55 23.35 87.10 23.93Q86.65 24.50 86.40 24.75L85.65 25.50Q85.55 25.65 85.25 25.90Q84.95 26.15 84.55 26.55Q84.15 26.95 83.35 27.82Q82.55 28.70 81.75 29.60Q80.95 30.50 80.50 31.05Q79.55 32.15 78.55 33.25Q77.55 34.35 76.55 35.45Q76.45 35.60 76.17 35.88Q75.90 36.15 75.70 36.15Q75.65 36.15 75.65 36.05Q75.65 35.85 76.07 35.33Q76.50 34.80 77.07 34.15Q77.65 33.50 78.17 32.95Q78.70 32.40 78.90 32.20L79.80 31.10Q80.00 30.85 80.22 30.65Q80.45 30.45 80.65 30.25Q80.90 29.95 81.10 29.65Q81.30 29.35 81.55 29.10Q83.40 27.05 85.52 24.75Q87.65 22.45 89.75 20.07Q91.85 17.70 93.55 15.55Q93.80 15.25 94 14.92Q94.20 14.60 94.40 14.25L97.25 10.45Q97.65 10 98 9.57Q98.35 9.15 98.65 8.70L99.15 8.45Q99.65 8.50 100.52 8.92Q101.40 9.35 101.40 9.90Q101.40 10.10 100.92 10.57Q100.45 11.05 99.92 11.50Q99.40 11.95 99.20 12.15Q98.95 12.35 98.75 12.70Q98.55 13.05 98.30 13.30Q98.10 13.50 97.52 14.02Q96.95 14.55 96.45 15.05Q95.95 15.55 95.95 15.75L95.80 15.75Q95.15 16.70 94.35 17.50Q93.55 18.30 92.80 19.15Q92.50 19.50 92.27 19.92Q92.05 20.35 91.70 20.70L90.70 21.65L90.40 22.25Q90.20 22.45 89.77 22.97Q89.35 23.50 89 24.05Q88.65 24.60 88.60 24.90Q88.40 25 88.27 25.20Q88.15 25.40 88.05 25.60L88 25.65L87.85 25.65Q87.80 25.85 87.32 26.47Q86.85 27.10 86.70 27.30Q86.50 27.60 86.38 27.92Q86.25 28.25 86 28.55L85.05 29.80Q84.90 30.05 84.65 30.23Q84.40 30.40 84.40 30.75Q84.35 30.85 84.27 31.20Q84.20 31.55 84.10 31.60Q84.15 31.65 84.15 31.80Q84.15 32.15 83.80 32.38Q83.45 32.60 83.30 32.90Q82.95 33.55 82.70 34.35Q82.60 34.50 82.42 34.70Q82.25 34.90 82.15 35.05Q82.05 35.25 81.97 35.55Q81.90 35.85 81.80 36.10Q81.60 36.65 81.15 37.13Q80.70 37.60 80.70 38.40Q81.00 38.15 81.25 37.85L84.60 33.35Q84.75 33.20 85.02 32.95Q85.30 32.70 85.30 32.50Q85.45 32.30 85.47 32.30Q85.50 32.30 85.70 32.10Q85.75 31.95 86.15 31.45Q86.55 30.95 87.05 30.32Q87.55 29.70 87.97 29.23Q88.40 28.75 88.50 28.75Q88.70 28.35 89.02 28.05Q89.35 27.75 89.65 27.45Q89.85 27.25 90.50 26.52Q91.15 25.80 91.80 25.13Q92.45 24.45 92.55 24.45Q92.70 24.35 93.15 23.97Q93.60 23.60 93.80 23.60Q94.25 23.60 94.42 23.88Q94.60 24.15 94.75 24.20Q94.80 24.55 95 24.70Q95.20 24.85 95.40 25.10Q95.65 25.40 95.88 25.95Q96.10 26.50 96.10 26.90Q96.10 27.40 96.20 27.67Q96.30 27.95 96.30 28.30Q96.30 28.50 96.15 28.90Q96.10 29.10 96 29.27Q95.90 29.45 95.85 29.65L95.80 29.65Q95.85 29.45 95.85 29.25Q95.85 29.10 95.75 29.10Q95.65 29.10 95.47 29.35Q95.30 29.60 95.25 29.70L95.45 30.05L95.50 30.05L95.60 29.80L95.60 30Q95.60 30.30 95.42 30.52Q95.25 30.75 95.30 31.05Q95.05 31.25 94.97 31.63Q94.90 32 94.70 32.25Q94.65 32.35 94.55 32.42Q94.45 32.50 94.35 32.60Q94.30 32.75 94.25 32.95Q94.20 33.15 94.10 33.30Q94 33.40 93.85 33.45Q93.70 33.50 93.70 33.75L93.75 33.70L93.75 33.85Q93.35 34.50 92.63 35.60Q91.90 36.70 91.45 37.30L90.05 39.10Q89.55 39.70 89.13 40.33Q88.70 40.95 88.15 41.50Q86.75 42.85 85.50 43.88Q84.25 44.90 82.50 45.90Q82.20 46.05 81.67 46.33Q81.15 46.60 80.85 46.60ZM108.30 25Q108.30 25 107.75 24.90Q107.20 24.80 106.60 24.45Q106.45 24.30 106.13 24.10Q105.80 23.90 106 23.65Q106.10 23.50 106.25 23.50Q106.40 23.30 106.58 23.15Q106.75 23 106.85 22.80Q107.80 21.60 108.88 20.57Q109.95 19.55 111.10 18.60Q111.50 18.25 111.85 17.90Q112.20 17.55 112.65 17.35Q113.20 17.10 113.35 17.25Q113.50 17.40 113.50 17.40Q113.50 17.45 113.45 17.45Q113.35 17.75 113.25 17.95Q113.05 18.20 112.75 18.42Q112.45 18.65 112.35 18.95Q112.35 19.10 112.30 19.10Q112.10 19.30 111.58 19.80Q111.05 20.30 111.05 20.55Q110.90 20.55 110.90 20.60L110.85 20.60Q110.80 20.95 110.55 21.15Q110.30 21.35 110.05 21.60Q109.85 21.80 109.75 22.07Q109.65 22.35 109.50 22.60Q109.35 22.80 109.17 22.92Q109 23.05 108.90 23.25Q108.70 23.60 108.80 24.02Q108.90 24.45 108.80 24.85Q108.75 25 108.53 25.02Q108.30 25.05 108.30 25M94.85 43.55Q93.55 43.05 93.70 41.55L93.90 41.15Q94.15 40.75 94.30 40.35Q94.45 39.95 94.65 39.60Q95.70 37.80 96.77 36.02Q97.85 34.25 99.05 32.55Q99.10 32.50 99.13 32.42Q99.15 32.35 99.20 32.35L99.20 32.25Q99.45 32.05 99.90 31.38Q100.35 30.70 100.88 29.92Q101.40 29.15 101.75 28.75Q101.40 29 101.02 29.30Q100.65 29.60 100.35 30Q100.20 30.20 99.63 30.82Q99.05 31.45 98.35 32.23Q97.65 33 97.10 33.63Q96.55 34.25 96.40 34.45Q95.80 35.10 95.55 35.10Q95.45 35.10 95.45 35Q95.45 34.80 95.80 34.35L97.40 32.55Q97.75 32.15 98.08 31.82Q98.40 31.50 98.70 31.15Q98.95 30.90 99.17 30.60Q99.40 30.30 99.65 30.05L100.45 29.20Q100.70 28.95 100.92 28.63Q101.15 28.30 101.40 28.05Q102.90 26.50 103.50 26.10Q104.10 25.70 104.45 25.95Q104.55 25.85 104.70 25.85Q104.85 25.85 105 25.93Q105.15 26 105.25 26.05Q105.45 26.15 105.85 26.43Q106.25 26.70 106.50 27.02Q106.75 27.35 106.45 27.65Q106.15 28 105.75 28.15Q105.35 28.30 105 28.65Q104.75 28.85 104.47 29.10Q104.20 29.35 104.05 29.65L104 29.70Q104.05 30.25 103.30 30.82Q102.55 31.40 102.15 31.80Q102 31.95 101.90 32.30L101.85 32.30L101.60 32.35Q101.50 32.70 101.17 32.92Q100.85 33.15 100.85 33.55Q100.55 33.65 100.33 34.20Q100.10 34.75 99.85 34.75L99.85 34.90Q99.85 35.15 99.55 35.48Q99.25 35.80 99.05 35.80Q99.05 35.85 99.05 35.95Q99.05 36.05 99 36.05Q98.80 36.20 98.80 36.60L98.65 36.60L98.65 36.65L98.75 36.90L98.45 36.95Q98.40 37.15 98.10 37.63Q97.80 38.10 97.55 38.10L97.55 38.15L97.50 38.15L97.75 38.40L97.70 38.40L97.70 38.45L97.65 38.45Q97.45 38.35 97.35 38.35L97.35 38.40Q97.45 38.60 97.45 38.70Q97.45 39 97.10 39Q97.10 39.05 97.10 39.05L97.20 39.15L97.20 39.20Q96.85 39.25 96.85 39.75L96.75 39.75L96.65 39.70Q96.55 40.05 96.42 40.42Q96.30 40.80 96.15 41.15Q96.10 41.40 95.97 41.63Q95.85 41.85 95.85 42.15L95.90 42.15L95.90 42.10Q96.45 41.70 97.20 41.27Q97.95 40.85 98.45 40.35L102.35 36.65L103.85 35.20Q103.95 35.10 104.25 34.85Q104.55 34.60 104.75 34.50Q104.85 34.45 105.05 34.52Q105.25 34.60 105.15 34.70L103.75 35.90Q103.10 36.40 102.85 36.90Q102.60 37.40 101.95 37.95Q101.50 38.35 101.10 38.80Q100.70 39.25 100.25 39.65L98.90 40.85Q98.45 41.25 98.02 41.75Q97.60 42.25 97.10 42.65L96.45 43.20Q96.25 43.35 95.92 43.50Q95.60 43.65 95.30 43.65Q95.15 43.65 94.85 43.55M105.35 34.30Q105.25 34.30 105.25 34.10Q105.25 33.90 105.35 33.90Q105.45 33.90 105.58 33.83Q105.70 33.75 105.75 33.75Q105.80 33.75 105.80 33.80Q105.80 33.90 105.63 34.10Q105.45 34.30 105.35 34.30ZM107.50 43.10Q107.25 43.35 106.40 43.02Q105.55 42.70 105.15 42.50Q104.55 42.25 104.25 41.58Q103.95 40.90 104.05 40.25L104.20 39.85Q104.35 39.45 104.55 38.95Q104.75 38.45 104.95 38.10Q105.65 36.90 105.92 36.33Q106.20 35.75 106.53 35.17Q106.85 34.60 107.65 33.50Q107.70 33.45 107.98 32.90Q108.25 32.35 108.30 32.35L108.65 31.80Q109 31.55 109.65 30.48Q110.30 29.40 110.85 28.75Q110.50 29 110.13 29.30Q109.75 29.60 109.45 30Q109.30 30.20 108.73 30.82Q108.15 31.45 107.45 32.23Q106.75 33 106.20 33.63Q105.65 34.25 105.50 34.45Q104.90 35.10 104.65 35.10Q104.55 35.10 104.55 35Q104.55 34.80 104.90 34.35L106.50 32.55Q106.85 32.15 107.17 31.82Q107.50 31.50 107.80 31.15Q108.05 30.90 108.28 30.60Q108.50 30.30 108.75 30.05L109.55 29.20L111.75 26.40Q113.10 24.70 116.10 20.57Q119.10 16.45 124.55 10.70Q125.25 10.35 125.78 9.82Q126.30 9.30 126.45 9.25Q126.85 9.15 127 9.15Q127.50 9.15 127.90 9.50Q128.30 9.85 128.50 10.60Q128.60 11 129 11.57Q129.40 12.15 129.10 12.50Q128.95 12.65 128.45 13.32Q127.95 14 127.50 14.67Q127.05 15.35 126.95 15.60Q126.60 15.80 126.13 16.52Q125.65 17.25 125.40 17.65Q125.45 17.95 124.73 18.80Q124 19.65 123.03 20.67Q122.05 21.70 121.23 22.50Q120.40 23.30 120.25 23.50Q120.20 23.55 119.78 23.97Q119.35 24.40 118.95 24.80Q118.55 25.20 118.50 25.30L118.45 25.30L118.15 25.70Q118.10 25.95 117.38 26.47Q116.65 27 115.95 27.55Q115.25 28.10 115.25 28.35Q115.10 28.40 114.50 28.88Q113.90 29.35 113.17 29.98Q112.45 30.60 111.85 31.05Q111.25 31.50 111.15 31.50L109.65 34.15L109.65 34.25Q109.65 34.55 109.35 34.88Q109.05 35.20 108.85 35.20Q108.85 35.40 108.80 35.40Q108.60 35.55 108.60 35.95L108.55 35.95L108.45 36L108.55 36.25L108.25 36.30Q108.20 36.50 107.90 37Q107.60 37.50 107.35 37.50L107.35 37.55L107.30 37.55Q107.60 37.80 107.42 37.75Q107.25 37.70 107.15 37.70L107.15 37.75Q107.25 37.95 107.25 38.05Q107.25 38.35 106.90 38.35Q106.90 38.45 106.95 38.45L107 38.50L107 38.55Q106.65 38.65 106.65 39.10L106.55 39.10L106.15 40.05Q106.15 40.10 106.13 40.13Q106.10 40.15 106.10 40.20Q106.10 40.40 106.25 40.35Q106.40 40.30 106.30 40.60Q106.20 40.90 106.13 41.08Q106.05 41.25 106.05 41.35Q106.05 41.45 106.13 41.55Q106.20 41.65 106.25 41.75Q106.50 41.95 107.25 41.70Q108 41.45 108.75 41.02Q109.50 40.60 109.80 40.30L113.75 36.55L115.25 35.10Q115.35 35.05 115.75 34.65Q116.15 34.25 116.35 34.15Q116.45 34.10 116.65 34.17Q116.85 34.25 116.75 34.35L115.15 35.80Q114.50 36.35 114.23 36.83Q113.95 37.30 113.35 37.85Q112.85 38.25 112.42 38.70Q112 39.15 111.60 39.60L110.15 41.15Q109.65 41.55 109.30 41.83Q108.95 42.10 108.45 42.55Q108.30 42.70 107.98 42.85Q107.65 43 107.50 43.10M113.35 28.85Q114.60 28.10 116.03 26.82Q117.45 25.55 118.80 24.13Q120.15 22.70 121.20 21.45Q122.25 20.20 122.75 19.60Q122.85 19.50 123 19Q123.15 18.50 123.80 17.70Q124.05 17.35 124.33 16.80Q124.60 16.25 124.95 15.80Q125.50 15.10 125.78 14.42Q126.05 13.75 126.05 13.40Q126.05 13.10 125.85 13.10Q125.60 13.10 125 13.70Q124.65 13.95 123.63 15.13Q122.60 16.30 121.25 17.95Q119.90 19.60 118.55 21.32Q117.20 23.05 116.13 24.38Q115.05 25.70 114.60 26.25Q114.15 26.75 113.70 27.48Q113.25 28.20 113.10 28.65Q112.95 29.10 113.35 28.85M116.95 33.95Q116.85 33.95 116.85 33.75Q116.85 33.55 116.95 33.55Q117 33.55 117.15 33.48Q117.30 33.40 117.35 33.40Q117.40 33.40 117.40 33.45Q117.40 33.50 117.20 33.73Q117 33.95 116.95 33.95ZM118.70 43.10Q118.45 43.35 117.60 43.02Q116.75 42.70 116.35 42.50Q115.75 42.25 115.45 41.58Q115.15 40.90 115.25 40.25L115.40 39.85Q115.55 39.45 115.75 38.95Q115.95 38.45 116.15 38.10Q116.85 36.90 117.13 36.33Q117.40 35.75 117.73 35.17Q118.05 34.60 118.85 33.50Q118.90 33.45 119.18 32.90Q119.45 32.35 119.50 32.35L119.85 31.80Q120.20 31.55 120.85 30.48Q121.50 29.40 122.05 28.75Q121.70 29 121.33 29.30Q120.95 29.60 120.65 30Q120.50 30.20 119.93 30.82Q119.35 31.45 118.65 32.23Q117.95 33 117.40 33.63Q116.85 34.25 116.70 34.45Q116.10 35.10 115.85 35.10Q115.75 35.10 115.75 35Q115.75 34.80 116.10 34.35L117.70 32.55Q118.05 32.15 118.38 31.82Q118.70 31.50 119 31.15Q119.25 30.90 119.48 30.60Q119.70 30.30 119.95 30.05L120.75 29.20L122.95 26.40Q124.30 24.70 127.30 20.57Q130.30 16.45 135.75 10.70Q136.45 10.35 136.98 9.82Q137.50 9.30 137.65 9.25Q138.05 9.15 138.20 9.15Q138.70 9.15 139.10 9.50Q139.50 9.85 139.70 10.60Q139.80 11 140.20 11.57Q140.60 12.15 140.30 12.50Q140.15 12.65 139.65 13.32Q139.15 14 138.70 14.67Q138.25 15.35 138.15 15.60Q137.80 15.80 137.33 16.52Q136.85 17.25 136.60 17.65Q136.65 17.95 135.93 18.80Q135.20 19.65 134.23 20.67Q133.25 21.70 132.43 22.50Q131.60 23.30 131.45 23.50Q131.40 23.55 130.97 23.97Q130.55 24.40 130.15 24.80Q129.75 25.20 129.70 25.30L129.65 25.30L129.35 25.70Q129.30 25.95 128.58 26.47Q127.85 27 127.15 27.55Q126.45 28.10 126.45 28.35Q126.30 28.40 125.70 28.88Q125.10 29.35 124.38 29.98Q123.65 30.60 123.05 31.05Q122.45 31.50 122.35 31.50L120.85 34.15L120.85 34.25Q120.85 34.55 120.55 34.88Q120.25 35.20 120.05 35.20Q120.05 35.40 120 35.40Q119.80 35.55 119.80 35.95L119.75 35.95L119.65 36L119.75 36.25L119.45 36.30Q119.40 36.50 119.10 37Q118.80 37.50 118.55 37.50L118.55 37.55L118.50 37.55Q118.80 37.80 118.63 37.75Q118.45 37.70 118.35 37.70L118.35 37.75Q118.45 37.95 118.45 38.05Q118.45 38.35 118.10 38.35Q118.10 38.45 118.15 38.45L118.20 38.50L118.20 38.55Q117.85 38.65 117.85 39.10L117.75 39.10L117.35 40.05Q117.35 40.10 117.33 40.13Q117.30 40.15 117.30 40.20Q117.30 40.40 117.45 40.35Q117.60 40.30 117.50 40.60Q117.40 40.90 117.33 41.08Q117.25 41.25 117.25 41.35Q117.25 41.45 117.33 41.55Q117.40 41.65 117.45 41.75Q117.70 41.95 118.45 41.70Q119.20 41.45 119.95 41.02Q120.70 40.60 121 40.30L124.95 36.55L126.45 35.10Q126.55 35.05 126.95 34.65Q127.35 34.25 127.55 34.15Q127.65 34.10 127.85 34.17Q128.05 34.25 127.95 34.35L126.35 35.80Q125.70 36.35 125.43 36.83Q125.15 37.30 124.55 37.85Q124.05 38.25 123.63 38.70Q123.20 39.15 122.80 39.60L121.35 41.15Q120.85 41.55 120.50 41.83Q120.15 42.10 119.65 42.55Q119.50 42.70 119.18 42.85Q118.85 43 118.70 43.10M124.55 28.85Q125.80 28.10 127.23 26.82Q128.65 25.55 130 24.13Q131.35 22.70 132.40 21.45Q133.45 20.20 133.95 19.60Q134.05 19.50 134.20 19Q134.35 18.50 135 17.70Q135.25 17.35 135.53 16.80Q135.80 16.25 136.15 15.80Q136.70 15.10 136.98 14.42Q137.25 13.75 137.25 13.40Q137.25 13.10 137.05 13.10Q136.80 13.10 136.20 13.70Q135.85 13.95 134.83 15.13Q133.80 16.30 132.45 17.95Q131.10 19.60 129.75 21.32Q128.40 23.05 127.33 24.38Q126.25 25.70 125.80 26.25Q125.35 26.75 124.90 27.48Q124.45 28.20 124.30 28.65Q124.15 29.10 124.55 28.85M128.15 33.95Q128.05 33.95 128.05 33.75Q128.05 33.55 128.15 33.55Q128.20 33.55 128.35 33.48Q128.50 33.40 128.55 33.40Q128.60 33.40 128.60 33.45Q128.60 33.50 128.40 33.73Q128.20 33.95 128.15 33.95ZM141.75 33.95Q141.90 33.95 141.80 34.17Q141.70 34.40 141.70 34.50L140.05 36.55Q139.65 37.05 139.15 37.38Q138.65 37.70 138.20 38.15Q138.05 38.35 137.70 38.50Q137.35 38.65 137.15 38.85Q136.95 39.05 136.18 39.17Q135.40 39.30 135.10 39.30Q135.05 39.30 134.95 39.20L134.75 39.50Q134.25 40.30 133.58 40.95Q132.90 41.60 132.20 42.15Q131.85 42.45 131.48 42.73Q131.10 43 130.70 43.20Q130.30 43.40 129.65 43.40Q128.95 43.40 128.30 43.15Q127.35 42.80 126.85 41.95Q126.65 41.60 126.48 41.20Q126.30 40.80 126.30 40.30Q126.30 39.75 126.45 39.33Q126.60 38.90 126.75 38.50Q127.65 36.30 129.20 34.35Q129.30 34.25 129.48 33.95Q129.65 33.65 129.85 33.35Q129.60 33.55 129.28 33.83Q128.95 34.10 128.70 34.35Q128.40 34.70 128.23 34.85Q128.05 35 127.65 35.50Q127.55 35.70 127.10 36.02Q126.65 36.35 126.55 36.35Q126.40 36.35 126.48 36.08Q126.55 35.80 127.35 35Q127.50 34.90 127.60 34.75Q127.70 34.60 127.80 34.45L129.30 32.70L130.90 31.25Q131.15 31 131.68 30.42Q132.20 29.85 133.15 29.10Q133.40 28.90 133.93 28.32Q134.45 27.75 134.65 27.55Q134.90 27.30 135.15 27.40L135.35 27.15Q135.65 26.75 135.95 26.77Q136.25 26.80 136.60 26.50L137.05 26.15L137.10 26.15L137.10 26.10Q137.35 26 137.48 25.82Q137.60 25.65 137.90 25.65Q138.30 25.65 138.90 26.10Q139.50 26.55 140 27.07Q140.50 27.60 140.60 28Q140.60 28.10 140.60 28.15Q140.60 28.20 140.65 28.30Q140.90 28.55 140.90 29.20Q140.90 29.95 140.60 30.82Q140.30 31.70 139.98 32.42Q139.65 33.15 139.45 33.45Q139.45 33.45 139.38 33.27Q139.30 33.10 139.15 33.35L138.90 33.70L138.95 34.10L138.85 34.45L138.80 34.45Q138.65 34.75 138.23 35.30Q137.80 35.85 137.20 36.60Q136.90 36.95 136.55 37.40Q136.20 37.85 135.90 38.25L136.05 38.25Q136.55 38.25 137.18 37.90Q137.80 37.55 138.20 37.25Q138.90 36.85 139.48 36.23Q140.05 35.60 140.70 34.90Q140.90 34.65 141.05 34.48Q141.20 34.30 141.40 34.10Q141.55 33.95 141.75 33.95M133.55 37.30Q134.10 36.90 135.05 36.08Q136 35.25 137.35 33.40Q137.55 33.15 138 32.38Q138.45 31.60 138.55 31.35Q138.80 30.80 139.03 30.17Q139.25 29.55 139.25 28.90Q139.25 28.20 139.20 27.88Q139.15 27.55 138.80 27.55Q138.40 27.55 137.55 28.05L137.15 28.45Q135.85 29.25 134.55 30.30Q134.50 30.35 134.43 30.38Q134.35 30.40 134.35 30.50Q134.25 30.50 133.85 30.95Q133.45 31.40 133.10 31.85Q132.75 32.30 132.75 32.35Q132.65 32.55 132.33 32.70Q132 32.85 132.05 33.20L131.70 33.20L131.80 33.60L131.55 33.60L131.55 33.65Q131.55 34 131.20 34.10Q131.10 34.20 131.10 34.10Q131.05 34.25 130.98 34.27Q130.90 34.30 130.80 34.40L130.50 35L130.25 35.65Q130.20 35.65 129.88 35.90Q129.55 36.15 129.55 36.20L129.60 36.45Q129.25 36.50 129.20 36.75Q129.15 37 129.05 37.25L129.05 37.60L128.40 38.85L128.10 39.35Q128.05 39.40 128 39.55Q127.95 39.70 128 39.70L128 39.75L128.10 39.75L128.15 39.35Q128.25 39.55 128.30 39.98Q128.35 40.40 128.30 40.65Q128.25 40.85 128.18 41.13Q128.10 41.40 128.10 41.65L128.10 42.05Q128.10 42.40 128.55 42.50Q129 42.60 129.25 42.55Q129.35 42.50 129.83 42.25Q130.30 42 130.73 41.73Q131.15 41.45 131.10 41.35L131.15 41.40L131.30 41.40Q131.40 41.15 131.75 40.95Q132.10 40.75 132.30 40.55Q132.65 40.25 133.03 39.92Q133.40 39.60 133.65 39.25L134.15 38.55Q133.45 38.40 133.45 37.80Q133.45 37.60 133.55 37.30ZM138.15 44.20Q137.75 43.90 137.75 43.25Q137.75 42.95 137.80 42.80Q137.90 42.55 137.98 42.38Q138.05 42.20 138.10 42L138.25 41.75L138.70 40.85Q138.95 40.30 139.35 39.75Q139.75 39.20 140.10 38.70Q140.10 38.65 140.20 38.52Q140.30 38.40 140.30 38.40L141.05 37.30Q141.25 37.05 141.48 36.80Q141.70 36.55 141.75 36.25L141.80 36.20Q141.95 36.10 142.18 35.77Q142.40 35.45 142.50 35.25Q143.05 34.55 143.58 33.85Q144.10 33.15 144.60 32.45L144.70 32.30L142.00 34.50Q141.55 34.85 141.10 35.33Q140.65 35.80 140.15 36.25Q139.80 36.55 139.65 36.55Q139.55 36.55 139.55 36.40Q139.55 36.10 140.00 35.75Q140.35 35.50 140.55 35.23Q140.75 34.95 141.10 34.65Q141.35 34.45 141.73 33.95Q142.10 33.45 142.35 33.25Q142.70 33 143.23 32.38Q143.75 31.75 144.05 31.45Q145.35 30.25 145.80 29.60Q146.25 28.95 146.75 28.45L148.50 26.45Q148.65 26.30 148.85 26L149.25 25.75Q149.55 25.80 150.08 26.20Q150.60 26.60 150.30 27.20Q150.30 27.25 149.90 27.63Q149.50 28 149.10 28.40Q148.70 28.80 148.60 28.85Q148.50 28.85 148.50 28.90Q147.65 29.90 147.35 30.10Q147.05 30.30 147.03 30.35Q147.00 30.40 146.80 31Q146.65 31.10 146.53 31.27Q146.40 31.45 146.30 31.65L146.15 31.65Q146.10 31.85 145.98 31.98Q145.85 32.10 145.75 32.25L145.50 32.65L145.10 33.05L144.75 33.55Q144.65 33.70 144.58 33.85Q144.50 34 144.40 34.15Q144.20 34.40 143.98 34.67Q143.75 34.95 143.55 35.25Q143.40 35.45 143.20 35.58Q143.00 35.70 142.90 36Q142.85 36.10 142.75 36.42Q142.65 36.75 142.55 36.75Q142.55 37.15 142.28 37.35Q142.00 37.55 141.75 37.85L141.30 38.70L141.10 39.10L140.60 39.75L140.15 40.60Q139.90 41.10 139.48 41.60Q139.05 42.10 138.95 42.65Q138.90 42.65 138.73 43.05Q138.55 43.45 138.38 43.83Q138.20 44.20 138.15 44.20M149.50 44.70Q149.30 44.75 148.90 44.80Q148.50 44.85 148.05 44.85Q147.55 44.85 147.08 44.75Q146.60 44.65 146.40 44.45Q146.30 44.25 146.33 44.20Q146.35 44.15 146.25 43.95Q146.05 43.65 146.03 43.75Q146.00 43.85 145.90 43.55Q145.85 43.40 145.85 43Q145.85 42.40 145.93 41.67Q146.00 40.95 146.00 40.70Q146.00 40.05 146.18 39.48Q146.35 38.90 146.50 38.35Q146.75 37.30 147.20 36.35Q147.65 35.40 148.15 34.50Q148.55 33.80 149.00 33.08Q149.45 32.35 150.00 31.70L150.10 31.50Q149.85 31.55 149.65 31.77Q149.45 32 149.30 32.20Q149.15 32.40 148.90 32.65Q148.65 32.90 148.40 33.10Q146.60 34.75 144.68 36.88Q142.75 39 141.15 40.70Q139.95 41.90 139.65 41.90Q139.45 41.90 139.83 41.35Q140.20 40.80 141.05 40.15Q141.05 40.15 141.33 39.83Q141.60 39.50 141.60 39.45Q141.90 39.30 142.03 39.02Q142.15 38.75 142.50 38.55L143.25 37.75L143.65 37.15Q144.10 36.45 144.73 35.90Q145.35 35.35 145.90 34.70Q145.95 34.65 146.33 34.27Q146.70 33.90 146.75 33.90Q146.85 33.55 147.28 33.23Q147.70 32.90 147.90 32.70L149.10 31.45L149.15 31.40L149.25 31.45L149.20 31.40Q149.30 31.15 149.63 30.92Q149.95 30.70 150.15 30.50Q150.40 30.25 151.00 29.52Q151.60 28.80 152.40 28.80Q152.80 28.80 153.15 29Q153.30 29.05 153.68 29.40Q154.05 29.75 154.33 30.05Q154.60 30.35 154.45 30.45Q154.25 30.65 154.15 30.70Q153.95 30.85 153.48 31.30Q153.00 31.75 152.75 31.70Q152.75 31.70 152.53 32.05Q152.30 32.40 151.30 33.65Q151.20 33.55 150.83 34.20Q150.45 34.85 150.30 35.10Q150.05 35.65 149.73 36.02Q149.40 36.40 149.10 36.90L149.10 37Q149.10 37.15 149.00 37.23Q148.90 37.30 148.80 37.40L148.80 37.75Q148.80 37.90 148.58 38.38Q148.35 38.85 148.20 39.40Q148.35 39.95 148.15 40.30Q147.95 40.65 147.73 40.98Q147.50 41.30 147.55 41.85Q147.55 41.95 147.53 42.20Q147.50 42.45 147.50 42.80Q147.50 43.20 147.60 43.65Q147.70 44.10 147.95 44.35Q148.10 44.50 148.35 44.50Q148.85 44.50 149.45 44.17Q150.05 43.85 150.25 43.75L150.55 43.55Q150.55 43.60 150.55 43.60Q150.50 43.70 150.25 43.98Q150.00 44.25 150.05 44.35Q149.90 44.35 149.90 44.35L149.50 44.70Z"/></g></g></g></svg>